<?xml version="1.0" encoding="UTF-8"?>
<svg width="81.635mm" height="68.046mm" version="1.1" viewBox="0 0 81.635 68.046" xmlns="http://www.w3.org/2000/svg">
 <defs>
  <clipPath id="clipPath6460-7">
   <path d="m13562 8762.9c-18.4 26.52-42.7 48.72-70.9 64.79 35.2-4.36 63.5-30.67 70.9-64.79"/>
  </clipPath>
  <radialGradient id="radialGradient6470-7" cx="0" cy="0" r="1" gradientTransform="matrix(-457.28 0 0 -457.28 13569 8675.9)" gradientUnits="userSpaceOnUse">
   <stop stop-color="#fff" offset="0"/>
   <stop stop-color="#fff" offset=".036364"/>
   <stop stop-color="#fff" offset=".74128"/>
   <stop stop-color="#eff" offset="1"/>
  </radialGradient>
  <clipPath id="clipPath6432-5">
   <path d="m13569 8218.6c-34.8 0-68.8 3.9-101.4 11.29-76.1 81.23-198.3 146.79-267.5 177.23 5.6-0.87 11.1-1.84 16.5-2.92l-18.9 4.71c-4.4 6.15-8.7 12.41-12.8 18.78-26.3 40.6-46.3 85.61-58.7 133.71-3.6 13.98-6.6 28.25-8.8 42.72-3.7 23.38-5.6 47.33-5.6 71.75 0 13.96 0.6 27.79 1.8 41.43 1 10.46 2.2 20.8 3.9 31.04 15 94.21 58.7 178.83 122 244.57 28.6 29.68 61.1 55.52 96.8 76.64 4.1 2.44 8.2 4.8 12.4 7.11 21.8 12.03 44.8 22.33 68.6 30.71 37 13.02 76.3 21.41 117 24.47 11.4 0.87 23 1.3 34.7 1.3 14.9 0 29.5-0.7 44-2.08 17.2-1.64 34.1-4.24 50.7-7.73 29.2-6.14 57.3-15.05 84.1-26.46 12.5-5.3 24.7-11.14 36.6-17.49 20.5-10.98 40.1-23.48 58.6-37.35 16.3-12.22 31.8-25.53 46.3-39.78 5.9-5.8 11.7-11.76 17.3-17.88 50.5-55.22 87.6-122.85 106.2-197.81 4.7-18.68 8.2-37.81 10.4-57.32 2.1-17.5 3.1-35.32 3.1-53.37 0-11.32-0.4-22.56-1.2-33.66-3.4-46.06-13.5-90.2-29.5-131.46-6.6-17.03-14.2-33.55-22.7-49.52-17-31.88-37.6-61.55-61.4-88.37-21.8-24.65-46.3-46.92-72.9-66.39-3.4-2.51-6.9-4.97-10.4-7.39-32.4-22.32-67.8-40.57-105.5-54.01-20.3-7.26-41.3-13.11-62.8-17.45-29.4-5.92-59.8-9.02-90.9-9.02m-184.7 637.4c-119.9 0-217.1-97.19-217.1-217.08 0-119.9 97.2-217.09 217.1-217.09s217.1 97.19 217.1 217.09c0 46.08-14.4 88.8-38.9 123.95-7.4 34.12-35.7 60.43-70.9 64.79-31.6 18.04-68.3 28.34-107.3 28.34m-184.2-448.88-1.2 0.18c-0.1 0.18-0.2 0.33-0.4 0.51 0.6-0.23 1.1-0.46 1.6-0.69"/>
  </clipPath>
  <radialGradient id="radialGradient6442-5" cx="0" cy="0" r="1" gradientTransform="matrix(-457.28 0 0 -457.28 13569 8675.9)" gradientUnits="userSpaceOnUse">
   <stop stop-color="#fff" offset="0"/>
   <stop stop-color="#fff" offset=".036364"/>
   <stop stop-color="#fff" offset=".74128"/>
   <stop stop-color="#cff" offset="1"/>
  </radialGradient>
  <clipPath id="clipPath6408-3">
   <path d="m13081 8816.5c-26.2 37.5-60.5 68.9-100.3 91.62 49.7-6.16 89.8-43.37 100.3-91.62"/>
  </clipPath>
  <radialGradient id="radialGradient6418-5" cx="0" cy="0" r="1" gradientTransform="matrix(-646.67 0 0 -646.67 12633 8766.1)" gradientUnits="userSpaceOnUse">
   <stop stop-color="#fff" offset="0"/>
   <stop stop-color="#fff" offset=".036364"/>
   <stop stop-color="#fff" offset=".74128"/>
   <stop stop-color="#eff" offset="1"/>
  </radialGradient>
  <clipPath id="clipPath6380-0">
   <path d="m12633 8119.5c-39.6 0-78.4 3.57-116.1 10.4-0.9 0.16-1.8 0.32-2.6 0.48-15.7 2.92-31.2 6.4-46.5 10.43-70.7 18.61-136.5 48.87-195.5 88.59-11.4 7.68-22.6 15.7-33.4 24.07-3.6 2.74-7.1 5.52-10.6 8.33-18.1 14.54-35.4 30.05-51.9 46.43-33.5 33.4-63.3 70.44-88.9 110.51-4.2 6.69-8.4 13.49-12.4 20.34-11.2 19.07-21.5 38.75-30.7 59.01-37.3 81.67-58 172.45-58 268.08 0 53.18 6.4 104.88 18.5 154.34 1 4.09 2 8.16 3.1 12.23 0.2 0.54 0.3 1.08 0.5 1.62 3.5 13.15 7.4 26.11 11.7 38.91 40.7 120.37 115.9 224.89 213.7 301.76 8.4 6.55 16.9 12.9 25.6 19.04 29.7 21.05 61.2 39.66 94.3 55.53 19.9 9.55 40.4 18.1 61.4 25.61 59.3 21.22 122.6 34.03 188.5 36.97 9.7 0.43 19.5 0.65 29.3 0.65 4.8 0 9.6-0.05 14.4-0.15 80.3-1.75 156.9-18.12 227.4-46.56 6.3-2.52 12.5-5.14 18.6-7.84 76-33.45 144.3-81.08 201.6-139.57 2.3-2.4 4.7-4.85 7-7.28 2.1-2.18 4.1-4.36 6.2-6.58 56.2-60.93 101-132.71 130.6-211.86-63.3-65.74-107-150.36-122-244.57-9.1 24.33-21.1 47.18-35.7 68.15-10.5 48.25-50.6 85.46-100.3 91.62-44.8 25.51-96.6 40.09-151.8 40.09-169.6 0-307-137.45-307-307 0-168.83 136.3-305.84 304.8-306.99-86.8-49.13-155.1-121.03-175.6-214.54-6-0.17-12.1-0.25-18.2-0.25m389.6 283.51c49.3 40.13 85.9 95.26 102.9 158.47 12.4-48.1 32.4-93.11 58.7-133.71-3.6-5.85-7.3-11.63-11.1-17.36-14.7 1.36-30 2.04-45.6 2.04-33.8 0-69.2-3.17-104.9-9.44"/>
  </clipPath>
  <radialGradient id="radialGradient6390-7" cx="0" cy="0" r="1" gradientTransform="matrix(-646.67 0 0 -646.67 12633 8766.1)" gradientUnits="userSpaceOnUse">
   <stop stop-color="#fff" offset="0"/>
   <stop stop-color="#fff" offset=".036364"/>
   <stop stop-color="#fff" offset=".74128"/>
   <stop stop-color="#cff" offset="1"/>
  </radialGradient>
  <clipPath id="clipPath6276-4">
   <path d="m13198 8407.4c-8.2 1.24-16.5 2.25-25.1 3.03 3.8 5.73 7.5 11.51 11.1 17.36 4.1-6.37 8.4-12.63 12.8-18.78l-4.1 1.03c1.6-0.69 3.3-1.4 4.9-2.13 0.2-0.18 0.3-0.33 0.4-0.51"/>
  </clipPath>
  <linearGradient id="linearGradient23460" x2="1" gradientTransform="matrix(4033.8 -823.02 -823.02 -4033.8 11358 8476.9)" gradientUnits="userSpaceOnUse">
   <stop stop-color="#ad6800" offset="0"/>
   <stop stop-color="#ad6800" offset=".036364"/>
   <stop stop-color="#adad00" offset=".95695"/>
   <stop stop-color="#adad00" offset="1"/>
  </linearGradient>
  <clipPath id="clipPath948-9">
   <path d="m13724 8041.6c-1.6 4.34-3.1 8.67-4.6 13.01 2.3 0.66 4.5 1.33 6.8 2.03 1-4.28 2-8.6 3-12.88-1.7-0.71-3.5-1.44-5.2-2.16"/>
  </clipPath>
  <linearGradient id="linearGradient23450" x2="1" gradientTransform="matrix(4033.8 -823.02 -823.02 -4033.8 11448 8917.2)" gradientUnits="userSpaceOnUse">
   <stop stop-color="#f90" offset="0"/>
   <stop stop-color="#f90" offset=".036364"/>
   <stop stop-color="#ff0" offset=".95695"/>
   <stop stop-color="#ff0" offset="1"/>
  </linearGradient>
 </defs>
 <g transform="translate(-274.41 -70.209)">
  <g transform="matrix(.035278 0 0 -.035278 -142.75 406.96)">
   <g clip-path="url(#clipPath948-9)">
    <path d="m13724 8041.6c-1.6 4.34-3.1 8.67-4.6 13.01 2.3 0.66 4.5 1.33 6.8 2.03 1-4.28 2-8.6 3-12.88-1.7-0.71-3.5-1.44-5.2-2.16" fill="url(#linearGradient23450)"/>
   </g>
  </g>
  <path d="m303.7 123.29c-2.5753 11.425 12.192 15.347 19.114 13.642 4.6672-1.0231 13.233-6.3094 11.945-12.448-0.64205-3.7514-1.7674-2.3872-4.1839-1.023-1.7674 1.023-4.0217 1.705-5.9549 2.0461-4.0217 0.68231-19.473 2.0465-21.082-2.8988l0.16228 0.68231" fill="#c00"/>
  <path d="m334.48 123.28c-0.0388-5e-3 -0.0776-0.0109-0.11642-0.0166 0.0212-0.0508 0.0423-0.10231 0.06-0.15276 0.0177 0.054 0.0353 0.11042 0.0564 0.16934" fill="#8a0000"/>
  <g transform="matrix(.035278 0 0 -.035278 -142.75 406.96)">
   <g clip-path="url(#clipPath6276-4)">
    <path d="m13198 8407.4c-8.2 1.24-16.5 2.25-25.1 3.03 3.8 5.73 7.5 11.51 11.1 17.36 4.1-6.37 8.4-12.63 12.8-18.78l-4.1 1.03c1.6-0.69 3.3-1.4 4.9-2.13 0.2-0.18 0.3-0.33 0.4-0.51" fill="url(#linearGradient23460)"/>
   </g>
  </g>
  <path d="m303.64 128c-3e-3 -0.0113-7e-3 -0.0233-7e-3 -0.0342-0.16934-0.73586-0.24695-1.5169-0.22931-2.346 3e-3 -0.15769 0.0106-0.31644 0.0212-0.47766 0.0247-0.34572 0.0635-0.69988 0.12347-1.0618 0.17992 0.66993 0.47978 1.2573 0.87137 1.7787-0.17992 0.1076-0.35631 0.21978-0.53623 0.33694l0.51153-0.17078c-0.52564 0.69003-0.64911 1.3321-0.50094 1.9188-0.0847 0.0191-0.16934 0.0378-0.254 0.0561" fill="#8a0000"/>
  <ellipse cx="299.94" cy="96.402" rx="25.524" ry="26.192" opacity=".3" stroke-width=".26458"/>
  <ellipse cx="338.68" cy="100.95" rx="17.373" ry="18.709" opacity=".3" stroke-width=".26458"/>
  <g transform="matrix(.035278 0 0 -.035278 -142.75 406.96)">
   <g clip-path="url(#clipPath6380-0)">
    <path d="m12633 8119.5c-39.6 0-78.4 3.57-116.1 10.4-0.9 0.16-1.8 0.32-2.6 0.48-15.7 2.92-31.2 6.4-46.5 10.43-70.7 18.61-136.5 48.87-195.5 88.59-11.4 7.68-22.6 15.7-33.4 24.07-3.6 2.74-7.1 5.52-10.6 8.33-18.1 14.54-35.4 30.05-51.9 46.43-33.5 33.4-63.3 70.44-88.9 110.51-4.2 6.69-8.4 13.49-12.4 20.34-11.2 19.07-21.5 38.75-30.7 59.01-37.3 81.67-58 172.45-58 268.08 0 53.18 6.4 104.88 18.5 154.34 1 4.09 2 8.16 3.1 12.23 0.2 0.54 0.3 1.08 0.5 1.62 3.5 13.15 7.4 26.11 11.7 38.91 40.7 120.37 115.9 224.89 213.7 301.76 8.4 6.55 16.9 12.9 25.6 19.04 29.7 21.05 61.2 39.66 94.3 55.53 19.9 9.55 40.4 18.1 61.4 25.61 59.3 21.22 122.6 34.03 188.5 36.97 9.7 0.43 19.5 0.65 29.3 0.65 4.8 0 9.6-0.05 14.4-0.15 80.3-1.75 156.9-18.12 227.4-46.56 6.3-2.52 12.5-5.14 18.6-7.84 76-33.45 144.3-81.08 201.6-139.57 2.3-2.4 4.7-4.85 7-7.28 2.1-2.18 4.1-4.36 6.2-6.58 56.2-60.93 101-132.71 130.6-211.86-63.3-65.74-107-150.36-122-244.57-9.1 24.33-21.1 47.18-35.7 68.15-10.5 48.25-50.6 85.46-100.3 91.62-44.8 25.51-96.6 40.09-151.8 40.09-169.6 0-307-137.45-307-307 0-168.83 136.3-305.84 304.8-306.99-86.8-49.13-155.1-121.03-175.6-214.54-6-0.17-12.1-0.25-18.2-0.25m389.6 283.51c49.3 40.13 85.9 95.26 102.9 158.47 12.4-48.1 32.4-93.11 58.7-133.71-3.6-5.85-7.3-11.63-11.1-17.36-14.7 1.36-30 2.04-45.6 2.04-33.8 0-69.2-3.17-104.9-9.44" fill="url(#radialGradient6390-7)"/>
   </g>
  </g>
  <g>
   <path d="m299.01 102.11c0 5.9814 4.8472 10.83 10.83 10.83 5.9796 0 10.83-4.8489 10.83-10.83 0-5.9813-4.8507-10.83-10.83-10.83-5.9831 0-10.83 4.8489-10.83 10.83" fill="#754c24"/>
   <path d="m303.16 106.03c0 3.3084 2.6846 5.9908 5.9937 5.9908 3.3091 0 5.9902-2.6825 5.9902-5.9908 0-3.3091-2.6811-5.9916-5.9902-5.9916-3.309 0-5.9937 2.6825-5.9937 5.9916"/>
   <path d="m314.54 108.64c0.381-0.78991 0.59619-1.6761 0.59619-2.613 0-3.3091-2.6811-5.9916-5.9902-5.9916-1.1748 0-2.2684 0.33761-3.1926 0.9211 0.28223-2.9393 2.346-5.358 5.0976-6.1644-0.33514 0.5969-0.52211 1.2848-0.52211 2.0172 0 2.2909 1.8556 4.148 4.1487 4.148 2.099 0 3.8347-1.5603 4.1099-3.5849 0.45861 0.61524 0.82197 1.3067 1.0654 2.0525-0.0423 0.48119-0.0635 0.96908-0.0635 1.4616 0 0.86148 0.067 1.7064 0.19755 2.5312-0.67027 2.6212-2.7869 4.663-5.4469 5.2226" fill="#d2c4b7"/>
   <path d="m313.07 108.8c-3.9441 0-7.1438-3.1987-7.1438-7.1441 0-0.23319 0.0106-0.46426 0.0353-0.6918 0.92427-0.58349 2.0179-0.9211 3.1926-0.9211 3.309 0 5.9902 2.6825 5.9902 5.9916 0 0.93695-0.21519 1.8231-0.59619 2.613-0.47625 0.0998-0.97014 0.1524-1.4781 0.1524" fill="#ababab"/>
  </g>
  <g transform="matrix(.035278 0 0 -.035278 -142.75 406.96)">
   <g clip-path="url(#clipPath6408-3)">
    <path d="m13081 8816.5c-26.2 37.5-60.5 68.9-100.3 91.62 49.7-6.16 89.8-43.37 100.3-91.62" fill="url(#radialGradient6418-5)"/>
   </g>
  </g>
  <path d="m318.79 97.376c-1.3053-1.741-3.3831-2.8677-5.7256-2.8677-0.6985 0-1.3723 0.10054-2.0108 0.28751 0.70909-1.2711 2.0673-2.1304 3.6266-2.1304 0.17286 0 0.34572 0.01058 0.51505 0.03175 1.4041 0.80151 2.6141 1.9092 3.5384 3.2322 0.06 0.28469 0.0917 0.58032 0.0917 0.88371 0 0.19085-0.0106 0.37888-0.0353 0.56303" fill="#d2c4b7"/>
  <path d="m314.68 100.96c-2.2931 0-4.1487-1.857-4.1487-4.148 0-0.73237 0.18697-1.4203 0.52211-2.0172 0.63853-0.18697 1.3123-0.28751 2.0108-0.28751 2.3424 0 4.4203 1.1268 5.7256 2.8677-0.27517 2.0246-2.0108 3.5849-4.1099 3.5849" fill="#f0ece7"/>
  <g transform="matrix(.035278 0 0 -.035278 -142.75 406.96)">
   <g clip-path="url(#clipPath6432-5)">
    <path d="m13569 8218.6c-34.8 0-68.8 3.9-101.4 11.29-76.1 81.23-198.3 146.79-267.5 177.23 5.6-0.87 11.1-1.84 16.5-2.92l-18.9 4.71c-4.4 6.15-8.7 12.41-12.8 18.78-26.3 40.6-46.3 85.61-58.7 133.71-3.6 13.98-6.6 28.25-8.8 42.72-3.7 23.38-5.6 47.33-5.6 71.75 0 13.96 0.6 27.79 1.8 41.43 1 10.46 2.2 20.8 3.9 31.04 15 94.21 58.7 178.83 122 244.57 28.6 29.68 61.1 55.52 96.8 76.64 4.1 2.44 8.2 4.8 12.4 7.11 21.8 12.03 44.8 22.33 68.6 30.71 37 13.02 76.3 21.41 117 24.47 11.4 0.87 23 1.3 34.7 1.3 14.9 0 29.5-0.7 44-2.08 17.2-1.64 34.1-4.24 50.7-7.73 29.2-6.14 57.3-15.05 84.1-26.46 12.5-5.3 24.7-11.14 36.6-17.49 20.5-10.98 40.1-23.48 58.6-37.35 16.3-12.22 31.8-25.53 46.3-39.78 5.9-5.8 11.7-11.76 17.3-17.88 50.5-55.22 87.6-122.85 106.2-197.81 4.7-18.68 8.2-37.81 10.4-57.32 2.1-17.5 3.1-35.32 3.1-53.37 0-11.32-0.4-22.56-1.2-33.66-3.4-46.06-13.5-90.2-29.5-131.46-6.6-17.03-14.2-33.55-22.7-49.52-17-31.88-37.6-61.55-61.4-88.37-21.8-24.65-46.3-46.92-72.9-66.39-3.4-2.51-6.9-4.97-10.4-7.39-32.4-22.32-67.8-40.57-105.5-54.01-20.3-7.26-41.3-13.11-62.8-17.45-29.4-5.92-59.8-9.02-90.9-9.02m-184.7 637.4c-119.9 0-217.1-97.19-217.1-217.08 0-119.9 97.2-217.09 217.1-217.09s217.1 97.19 217.1 217.09c0 46.08-14.4 88.8-38.9 123.95-7.4 34.12-35.7 60.43-70.9 64.79-31.6 18.04-68.3 28.34-107.3 28.34m-184.2-448.88-1.2 0.18c-0.1 0.18-0.2 0.33-0.4 0.51 0.6-0.23 1.1-0.46 1.6-0.69" fill="url(#radialGradient6442-5)"/>
   </g>
  </g>
  <g>
   <path d="m321.75 102.19c0 4.2298 3.429 7.6585 7.6588 7.6585 4.2298 0 7.6588-3.4286 7.6588-7.6585 0-4.2295-3.429-7.6581-7.6588-7.6581-4.2298 0-7.6588 3.4286-7.6588 7.6581" fill="#754c24"/>
   <path d="m324.68 104.96c0 2.3396 1.898 4.2365 4.2369 4.2365 2.3424 0 4.2369-1.8969 4.2369-4.2365 0-2.34-1.8944-4.2369-4.2369-4.2369-2.3389 0-4.2369 1.8969-4.2369 4.2369"/>
   <path d="m332.73 106.81c0.27164-0.55841 0.42333-1.1853 0.42333-1.8475 0-2.34-1.8944-4.2369-4.2369-4.2369-0.82903 0-1.6051 0.23883-2.2578 0.65126 0.20109-2.0782 1.6581-3.7889 3.6054-4.359-0.23636 0.42228-0.37041 0.90875-0.37041 1.4263 0 1.62 1.3159 2.9333 2.9351 2.9333 1.4852 0 2.7093-1.1035 2.9069-2.5351 0.62794 0.84314 1.0019 1.8898 1.0019 3.0237 0 2.432-1.718 4.4627-4.0076 4.9438" fill="#d2c4b7"/>
   <path d="m331.68 106.92c-2.787 0-5.0482-2.2616-5.0482-5.0518 0-0.1651 7e-3 -0.32809 0.0212-0.48927 0.65264-0.41243 1.4288-0.65126 2.2578-0.65126 2.3424 0 4.2369 1.8969 4.2369 4.2369 0 0.66213-0.1517 1.289-0.42333 1.8475-0.33514 0.0706-0.68439 0.10795-1.0442 0.10795" fill="#ababab"/>
  </g>
  <g transform="matrix(.035278 0 0 -.035278 -142.75 406.96)">
   <g clip-path="url(#clipPath6460-7)">
    <path d="m13562 8762.9c-18.4 26.52-42.7 48.72-70.9 64.79 35.2-4.36 63.5-30.67 70.9-64.79" fill="url(#radialGradient6470-7)"/>
   </g>
  </g>
  <g>
   <path d="m335.73 98.844c-0.92428-1.2308-2.3918-2.0278-4.0499-2.0278-0.49389 0-0.97014 0.07091-1.4217 0.2032 0.50095-0.89888 1.4605-1.5064 2.5647-1.5064 0.12347 0 0.24341 0.0074 0.36336 0.02222 0.99483 0.56691 1.8521 1.3501 2.5012 2.2856 0.0459 0.20144 0.067 0.41063 0.067 0.62477 0 0.13547-7e-3 0.26811-0.0247 0.39829" fill="#d2c4b7"/>
   <path d="m332.83 101.38c-1.6192 0-2.9351-1.3134-2.9351-2.9333 0-0.51752 0.13405-1.004 0.37041-1.4263 0.45156-0.13229 0.92781-0.2032 1.4217-0.2032 1.658 0 3.1256 0.79692 4.0499 2.0278-0.19756 1.4316-1.4217 2.5351-2.9069 2.5351" fill="#f0ece7"/>
   <path d="m318.89 137.28c-0.0776-0.14393-0.15875-0.28399-0.24694-0.41981 0.61736-1.6842 1.6157-3.3581 2.8046-4.8133 2.5576-2.2161 6.35-4.1822 8.8794-4.1822 0.23636 0 0.45861 0.0169 0.67027 0.0519l-0.6103-0.20281c-0.57856-0.15208-1.1959-0.24024-1.845-0.28225 2.1167-0.71999 4.2086-1.476 5.2917-3.1651 0.16227-0.23985 0.29633-0.47977 0.41275-0.71927 0.64911 3.9688-3.6195 6.32-6.8298 7.7646-3.7536 1.705-5.1153 3.9218-8.5266 5.9683" fill="#960000"/>
   <path d="m321.44 132.04c0.93133-1.1388 1.9791-2.1435 3.0586-2.9139 1.1501-0.73907 2.6-1.2118 4.0358-1.7014 0.64911 0.042 1.2665 0.13018 1.845 0.28226l0.6103 0.20281c-0.21166-0.0349-0.43391-0.0519-0.67027-0.0519-2.5294 0-6.3218 1.966-8.8794 4.1822" fill="#930a0b"/>
   <path d="m318.55 136.72c-1.9473-2.8261-6.5052-3.949-9.5532-5.0719-1.4288-0.51964-4.639-1.8309-5.1047-3.7084 0.71261-0.16298 1.4111-0.35983 2.099-0.58843 4.5226 3.2223 13.204 3.357 12.559 9.3687" fill="#960000"/>
   <path d="m303.89 127.94c-0.14817-0.58667-0.0247-1.2287 0.50094-1.9188l-0.51153 0.17078c0.17992-0.11716 0.35631-0.22934 0.53623-0.33694 0.42686 0.56978 0.95955 1.0612 1.5734 1.4965-0.68791 0.2286-1.3864 0.42545-2.099 0.58843" fill="#700"/>
   <path d="m322.68 110.27c4.258 1.8249 15.208 7.9082 11.151 13.992-1.8239 2.8388-6.4876 3.0416-9.3274 4.8666-2.8363 2.0278-5.4751 5.678-6.2865 9.1253 3.2456-10.342-16.221-6.2862-14.803-16.831 1.016-8.5168 12.979-12.37 20.077-10.95l-0.81139-0.20245" fill="#f33"/>
   <path d="m332.62 121.63c-3.7571-2.3202-8.8406-3.6774-13.836-3.6774-4.1698 0-8.2832 0.94689-11.515 3.0692 0.61031-4.8665 7.3025-6.6918 11.356-6.8943 0.38805-0.0257 0.76552-0.0385 1.1395-0.0385 5.5069 0 9.6238 2.7669 12.852 7.1353l3e-3 0.40573" fill="#ff9f9f"/>
  </g>
 </g>
</svg>
