<svg xmlns="http://www.w3.org/2000/svg" xmlns:xlink="http://www.w3.org/1999/xlink" width="493.039" height="695.694" viewBox="0 0 130.45 184.069"><defs><linearGradient x1="11561.1" y1="15884.5" x2="13732.53" y2="12284.5" spreadMethod="pad" id="A" xlink:href="#c"><stop offset="0" stop-color="#f9f"/><stop offset=".036" stop-color="#f9f"/><stop offset=".695" stop-color="#c06"/><stop offset="1" stop-color="#c06"/></linearGradient><linearGradient x1="11514.7" y1="15856.5" x2="13686.13" y2="12256.5" spreadMethod="pad" id="B" xlink:href="#c"><stop offset="0" stop-color="#f9f"/><stop offset=".036" stop-color="#f9f"/><stop offset=".695" stop-color="#c06"/><stop offset="1" stop-color="#c06"/></linearGradient><linearGradient x1="11561.1" y1="15884.5" x2="13732.53" y2="12284.5" spreadMethod="pad" id="C" xlink:href="#c"><stop offset="0" stop-color="#b965a8"/><stop offset=".036" stop-color="#b965a8"/><stop offset=".695" stop-color="#980043"/><stop offset="1" stop-color="#980043"/></linearGradient><linearGradient x1="11514.7" y1="15856.5" x2="13686.13" y2="12256.5" spreadMethod="pad" id="D" xlink:href="#c"><stop offset="0" stop-color="#b965a8"/><stop offset=".036" stop-color="#b965a8"/><stop offset=".695" stop-color="#980043"/><stop offset="1" stop-color="#980043"/></linearGradient><linearGradient x1="11561.1" y1="15884.5" x2="13732.53" y2="12284.5" spreadMethod="pad" id="E" xlink:href="#c"><stop offset="0" stop-color="#b7516e"/><stop offset=".036" stop-color="#b7516e"/><stop offset=".695" stop-color="#a82442"/><stop offset="1" stop-color="#a82442"/></linearGradient><linearGradient x1="11514.7" y1="15856.5" x2="13686.13" y2="12256.5" spreadMethod="pad" id="F" xlink:href="#c"><stop offset="0" stop-color="#7e4572"/><stop offset=".036" stop-color="#7e4572"/><stop offset=".695" stop-color="#67002d"/><stop offset="1" stop-color="#67002d"/></linearGradient><linearGradient x1="11561.1" y1="15884.5" x2="13732.53" y2="12284.5" spreadMethod="pad" id="G" xlink:href="#c"><stop offset="0" stop-color="#ad68ad"/><stop offset=".036" stop-color="#ad68ad"/><stop offset=".695" stop-color="#8a0045"/><stop offset="1" stop-color="#8a0045"/></linearGradient><linearGradient x1="11561.1" y1="15884.5" x2="13732.53" y2="12284.5" spreadMethod="pad" id="H" xlink:href="#c"><stop offset="0" stop-color="#b05e9c"/><stop offset=".036" stop-color="#b05e9c"/><stop offset=".695" stop-color="#91003e"/><stop offset="1" stop-color="#91003e"/></linearGradient><clipPath id="I"><path d="M12873.9 12139.8c-24 0-46.9 27.4-31.7 52.8 121.4 202.7 278.3 379 432.7 557-186-179.2-374.4-356.2-529.4-563.7-7.6-10.3-19.7-15-31.5-15-21.6 0-42.3 15.9-32.5 42 108.9 289.5 335.4 494.5 554 705.9-242.5-196.5-486.8-391.8-647.1-661.5h0c-7.1-11.9-17.7-16.8-28.3-16.8-24 0-48.1 25.1-32.2 52.1 74.7 126.3 159.5 244.9 251 358.2-128.1-118.9-258.6-235-396-343.4h0c-7.9-6.3-16.3-9-24.3-9-27 0-48.2 31.4-25.2 58.5l474.8 562.7-464.2-402.2c-43.3-37.6-87.4-74.4-132.5-110-7.3-5.8-15.2-8.2-22.9-8.2-29.1 0-54.5 34.9-26.6 57.7h0l132.6 110.1c249.7 216.9 471.8 462.9 702.2 700.3 7.5-12.5 15.4-24.4 23.8-35.6a515.61 515.61 0 0 1 15-29.7c16.6-29 35.8-54.2 57.2-76.1-153.9-158-297.5-325.9-439.2-495.3 163.9 149.2 322.4 304.6 484.3 456.1 27.2-20 56.8-36.1 88-48.6l-175.7-182.2 208.5 170.5c50.1-15.9 103.5-23.8 157.6-25.8-76.7-79.5-157.1-155.7-235.3-232.8-73.7-72.7-148.7-147.5-217-227.5 153.3 155.8 316.4 302.6 467.8 460.1 190.9 2.4 377.1 84.1 507.1 223.3 16.4-5.8 28.5-25.6 24.4-43.7-5.4-24-11.6-47.7-18.5-71.1 32.2 32.1 66.3 62.5 102.9 90.8 7.6 5.9 16.9 8.8 25.9 8.8 10.9 0 21.4-4.3 27.7-12.8 6.6 9.2 17.9 13.7 29.1 13.7 15.1 0 30-8.4 32.9-25.1 7.1-40.4 10.9-81 12.2-121.8 20.9 48.6 43.1 96.8 66.7 144.4 6.1 12.4 16.4 17.6 27.1 17.6 18 0 36.9-15 38.1-35.2 2.1-35.3 2.4-70.9 1.1-106.5 39.8 77.4 83.8 152.5 133.7 224.1 8.1 11.6 19 16.8 29.6 16.8 17 0 33.1-13.2 35.6-34.4 1.7-13.9 2.9-27.8 3.6-41.8l59.8 130.9c5.9 12.5 15.9 17.7 26.5 17.7 18.1 0 37.4-15.4 38.7-35.4 1.3-19 1.9-38.1 1.9-57.3l75.7 175c5.7 12.8 15.5 18.1 25.9 18.1 19.2 0 40-18.2 38.7-40.5 1.5-5.5 1.5-11.9-.6-18.9l-7.8-25.5c-29.1-150.1-57-301.4-124.3-440-6.2-12.7-16.2-18-26.5-18-11.7 0-23.7 6.7-31.1 17-25.8-89.5-60.2-176.1-99.5-256.2-6-12.1-16.6-17.2-27.6-17.2-21.5 0-44.2 19.4-36.4 44.2 34.6 109.6 73.8 217.7 115.9 324.7 9.1 40.6 16.1 81.7 20.8 122.7l-71.5-168.4c-8.5-39.3-18.9-78.1-30.3-115.9-36.2-119.8-83.5-236.6-142.4-347.2-6.3-11.9-17.2-16.9-28.3-16.9-21.6 0-44 19-35.6 43.9 53 158.3 111.4 315 175 469.5 7.4 41.4 12.1 82.8 13.7 124-61.8-101.9-113.7-209.4-160.3-319.4-4.9-24.6-10.3-49-16.2-73.2-30.3-124.2-72.1-252.2-148.3-356.5-7.6-10.4-19.5-15.1-31.2-15.1-8.2 0-16.3 2.3-22.7 6.7l-14-54.6c-4.4-17.8-17-25.3-30.1-25.3-20 0-41.4 17.6-37.4 43.9h0c22 143.3 55 284.1 98.6 421.5 15.1 83.6 27 169.7 25.4 254.9l-20.9-36.6c-31.3-112.7-90.1-219-147.4-319.2-73.8-129.2-157.1-258.1-206.6-399.4-8.8-27.3-17-54.8-24.4-82.7h0c-4.7-17.4-18-24.9-31.7-24.9-20.6 0-42.1 17.2-35.8 43.5 7 29.4 15.7 58.2 25.6 86.6 83.2 256.6 222.1 490.7 356.1 724.7 3.4 13.2 6.3 26.5 8.7 39.9-58.2-53.6-109.8-113-156.8-176.3-84.8-186.6-201.9-360.1-304.6-538.8-35.1-70.1-70.5-139.3-107.9-205.9h0c-7-12.5-17.3-17.7-27.6-17.7-9.3 0-18.6 4.3-25.5 11.2-9.6 9.5-14.5 24.3-8.1 40 .2.6.5 1.2.8 1.8 32 69.6 68.7 137.5 107.4 204.7 93 185.1 184.1 376 305.6 541.7 20.8 46.7 39.5 94.3 55.3 143.1-120.6-104.4-220.5-234.2-309.8-364.7-107.9-157.6-203.4-322.9-298.1-488.7-6.6-11.5-17.7-16.5-29-16.5-21.7 0-43.9 18.4-35 43.5 100.2 281.2 293 511.5 451.4 761.3-273.9-271-484.3-601.7-750-881.1-7-7.3-15.2-10.4-23.3-10.4m1282.5 675.2c-10-60.3-23.2-120.5-37.7-180.1 30 81.2 61 162.2 94.6 242.1 9.2 48 16.4 96.5 20.9 145.2-28.8-68.1-54.7-137.2-77.8-207.2m-2154.6-316.5c-27.4 0-49.5 31.8-25.5 58.4 147.4 163 318.1 298 494.3 426.6 97.8 85.8 196.9 170 299.4 248.9-299.1-175.4-594.4-357.1-858.5-582.2h0c-8.1-6.8-16.5-9.7-24.4-9.7-26.4 0-46.8 32.3-25.1 59.2 94.7 117.5 199.5 225.7 309.8 328.7l179.7 167.8-575.7-380c-5.7-4-11.5-5.7-17.2-5.7-27.1 0-49.6 38.9-25.2 60.6l287.1 263.1c-112.3-85-230.3-161-359-218-5.6-2.5-11.1-3.6-16.4-3.6-2.2 0-4.3.2-6.4.5-2.7-.7-5.4-1-8.1-1-27.2 0-50.1 33.5-25.8 59l975.7 1002.9c-170.9-124.3-338.7-251.4-501-387.3-187.1-156.8-369.6-319.1-553.7-479.3-8.1-7-16.6-10-24.6-10-23.2 0-41.8 25.6-30.4 52.4 68.2 161.1 177.9 298.4 305.7 420.3 260.8 172.3 507.9 364.4 749.2 564.1l350.5 238.6c10.9-20.4 24.5-39.6 40.1-57.3-200.3-132.4-397-270.3-593.7-409.2-246.4-173.9-525.2-363.1-697.8-620.2 306.2 266 613.5 528.5 943.8 765.5 116.7 83.8 235.1 170.2 349.2 262.3 19.5-21.7 42.1-41.1 67-57.8-177.8-159.4-350.2-324.8-519.4-493.7 192.1 156.8 389.3 308 586.9 457.4 47.2-19.9 98.3-30.9 148.3-30.9a396.83 396.83 0 0 1 15.5.3c-60.3-59.9-125.1-115-197.4-161-97-61.7-183.8-132.8-268.7-206.8 36.2 24.5 73 48.3 110.8 71.2l92.5 55.4c110.7 81.6 225 158.4 344.3 228.6 5.4 3.2 10.9 4.6 16.3 4.6 28.3 0 52.7-38.2 26.1-59.5-108.7-87.4-227.4-159.4-346.6-230.9-312.9-230.5-596.1-499.6-880.6-766 369.4 239.5 744 472.7 1077.7 760.6h0c7.7 6.6 15.9 9.4 23.8 9.4 27.3 0 50.1-33.2 25.7-58.9-203.8-214.1-459.7-365.4-685.1-554.1-114.9-96.3-224.4-200.4-333.6-302.9l-26.6-25.2c240.6 166.4 495.4 312.6 748.5 460.4 6.7-46.5 25.2-93 48-136.5-153-119.6-314.3-229.1-471.4-343.8-164.2-143.7-325.1-291.9-494-426.4h0c-7.8-6.2-16.2-8.9-24-8.9m587.5 1274.5c-121.8-97.9-241.9-197.8-359.1-300.8 105.4 82.9 209.6 167.5 309.9 256.7l49.2 44.1"/></clipPath><clipPath id="J"><path d="M11387.9 13340.4c-28.2 0-51.2 36.2-25.9 59.3l576.2 517.8 278.6 256.8 100.9 98.2-15.5-13.3c-173.3-149.1-354.8-286.3-517.2-447.6-142.3-141.3-285.8-288.8-466.3-381.1-5.4-2.8-10.9-4-16.2-4-28.4 0-51.9 35.3-26.2 58.9l45.6 42.8-17.5-12c-6.3-4.3-12.5-6.1-18.3-6.1-26.2 0-44.6 37.8-24.1 61 354.2 401.2 766 741.8 1172.5 1088a455.91 455.91 0 0 1 92.6-57.3c7.1-5.5 14.4-10.8 21.9-15.9l-234.2-197.6c-124.3-106.2-244.1-218.1-364.1-329.8l330.2 274.5c95.1 82 192.7 160.5 290.9 238.4 40.1-24 84.1-41.9 130.8-52.7-59.2-46.5-117.3-93.8-173.4-143.1-185.5-163.2-357.9-341.9-541.5-507.6l-314.5-281.5c416.8 267.4 796.7 587 1172.8 910.6-.7-28.6 3.6-55.9 12-81.8l-332.3-281.1c-241.3-199.7-488.4-391.8-749.2-564.1-120.8-79.7-244.5-155.2-372.1-225.3-5.5-3.1-11.1-4.4-16.5-4.4m-186.5 414.6c-26.6 0-47.2 32.1-25.1 59 328.7 401.4 707 754.5 1099.4 1092.6 6.1-24.6 14.2-48.5 24.1-71.4-277.6-240-547.7-487.9-797.7-755.6l752.7 582.7 101.1 77.2c14.2-18.5 29.7-35.9 46.4-52l-97-74c-364.1-277.6-728.2-555.3-1079.5-849h0c-8.1-6.7-16.5-9.5-24.4-9.5m-56.3 285c-26.8 0-50.1 34.6-26 59.7 135.9 141.3 288.8 263.5 443.9 382.7l89.4 68.3c179.5 137.4 349.6 279.4 511.5 437.3 33.6 32.7 68.1 64.4 103.3 95.2-3.2-21.8-4.8-43.9-4.8-66.5 0-10.1.3-20.2 1-30.1l-15.2-14.3 15.4 10.6c1.9-25.8 5.9-51 11.9-75.3-385.7-264.6-770.5-530-1106.9-857.4h0c-7.4-7.2-15.6-10.2-23.5-10.2m-30.6 356.7c-27.1 0-43.2 35.4-24 60.2 252.6 325.4 634.4 513.9 944.2 775.3l227 194c-403-229.2-802.8-462.2-1121.7-804.5h0c-7.3-7.9-15.5-11.2-23.4-11.2-25.7 0-48.3 34.8-26.1 60.6 106 123.2 230.6 226.4 360.1 323.5 40.7 31.1 82 61.3 123.9 90.8l193 143.7c75.9 60 144.6 126.4 216.9 190.3 30 26.4 61.1 51.4 92.9 75.5-312.1-171.8-609.4-368.7-915.8-550.1-5.6-3.4-11.4-4.9-16.9-4.9-27.8 0-50 37-25.5 59.8 36.7 34.3 74.2 67.5 112.3 99.8l-27-11.9c-5.7-2.4-11.3-3.5-16.5-3.5-32.1 0-51.5 41.5-18.8 64h0c267.2 183.3 532.9 372.3 807.1 546.7-213.2-129.9-429.1-254.6-665.9-339.3-4-1.4-7.9-2.1-11.5-2.1-27.9 0-41.7 39.2-22.5 60.6 303.7 339.3 808.8 377.8 1152.1 656.2-313.9-122.9-613.5-279.4-909.7-439.7h0c-5.9-3.2-11.8-4.6-17.2-4.6-31.2 0-51.5 45.8-18.2 65 208.2 120.3 422.1 234.3 620.9 370.2l-103.9-38c-106.4-41.3-223.6-87.7-303.1-172.9-7.2-7.7-15.4-10.9-23.3-10.9-26.2 0-49.8 35.1-26.2 60.4 81.5 87.4 198.5 137.5 307.6 180.6 115.8 45.7 235.5 81.1 350.7 128.4 3.6 1.5 7.2 2.2 10.7 2.2 27.1 0 46.8-41.5 23.3-60.7-37.7-30.8-76.3-60.4-115.6-89.1 111.2 48.4 224 93.3 338.7 133.3 4.1 1.5 8 2.1 11.6 2.1 28 0 41.1-38.9 22.5-60.6l-11.1-12.6 54.4 24.8c5.4 2.3 10.9 3.4 16.1 3.4 28.6 0 50.6-32.5 26.3-58.4l-9.9-10.5 81.8 36.9c6 2.6 11.7 3.8 17.1 3.8 31.7 0 49.3-41.1 18.2-64.3-364.3-272.1-771.9-483.8-1148.4-738.4 145.6 89 292.2 176.1 442.5 256.9 236 126.8 437.4 310.9 672.3 438.2 42 26.3 86.6 48.6 135.2 64.5 4.3 1.4 8.3 2 12 2 34.4 0 43.2-54.6 6.6-69.5h0c-41.6-17.1-82-36.7-121.4-58.1-112.9-71-205.9-175.3-310-257.3-138.6-109.1-294.5-196.3-427.8-312 334.9 194.5 679.6 376.1 989.4 605.6 6.3 4.6 12.5 6.7 18.3 6.7 25.8 0 44-38.7 24.1-61.7-127.7-147.6-303.5-241.7-468.4-340.9-194.5-117-357-267.3-530.3-412.3-252.4-211.3-551.7-376.7-790.3-605.7 299.6 183.4 582.9 392.3 873.8 589.1 59.2 40.1 119.4 78.7 180.1 116.7-26.5-37-47.6-78-62.2-122.1l-66.6-44.2c-358.8-242.8-706.5-504.2-1086-714.6-6.5-3.6-12.7-5.2-18.5-5.2m737.7 1303.5c-134.1-57-264.9-118.7-380.1-203.6 130.9 59.7 256.4 129.8 380.1 203.6m613 284c-78.3-41.9-155.1-86.5-231.3-132.2 71.7 41.8 144.3 82.2 217.7 120.9 4.6 3.7 9.1 7.5 13.6 11.3m758.6-1205.9l1.8 4.1 4.1-3.6c-2-.1-4-.3-5.9-.5m-23.2 417.1a413.58 413.58 0 0 1-10.3 16.6l200.2 173.4c7.5 6.6 15.7 9.4 23.6 9.4 27.5 0 51-33.9 25.9-58.9l-43.3-42.5c-77.9-6.1-147.3-42.8-196.1-98m-24.6 37.5c-22.7 31.3-49.3 59.5-79.1 84.1 75.8 60.1 157.9 118.4 225.9 186.4h0c3.8 3.8 7.9 6.5 12 8.1 10.7 8.2 22 15.5 34.3 22.3 6 3.3 11.9 4.7 17.5 4.7 27.6 0 46.9-35.3 24.9-59.7-76.2-84.4-154.9-166.1-235.5-245.9m-205.6 166.2c-22.2 14.6-45.8 27.3-70.5 37.9l122.8 96.7 196.4 166c7.4 6.3 15.5 9 23.3 9 28.2 0 52.8-34.8 26.2-58.5h0c-64.2-57-129.7-112.2-196.4-166l-101.8-85.1m-120.6 56.1c-41.2 12.2-84.9 18.7-130.1 18.7-24.1 0-47.7-1.8-70.8-5.4 168.6 105.2 334.1 215 484.5 345.5h0c7.8 6.8 16.1 9.6 24.1 9.6 26.8 0 48.5-32.8 25.4-59.1-100.8-114.8-214.6-214.7-333.1-309.3"/></clipPath><clipPath id="K"><path d="M13200.6 14188.9c-50 0-101.1 11-148.3 30.9l46.8 35.4c48-19.9 99.3-30.8 148.9-30.8h2.5c-11.3-11.9-22.8-23.6-34.4-35.2a396.83 396.83 0 0 0-15.5-.3m-215.8 67.2c-24.9 16.7-47.5 36.1-67 57.8l16.8 13.7-18.3-12.1c-15.6 17.7-29.2 36.9-40.1 57.3l43.8 28.9c26.1-42.6 63.5-79.3 106.8-108.1l-42-37.5"/></clipPath><clipPath id="L"><path d="M12858 14415.3c-8.4 25.9-12.7 53.2-12 81.8l15.4 13.2c6.7.8 13.4 1.8 20 2.9 2.3-22.4 7.6-43.9 15.4-64.5l-38.8-33.4"/></clipPath><clipPath id="M"><path d="M13391.3 14385.9l-24.9 4.1c10.4 1.4 20.8 2.6 31.2 3.6-.1-.2-.3-.3-.4-.5l-5.9-7.2"/></clipPath><clipPath id="N"><path d="M12702.6 14518.7c-46.7 10.8-90.7 28.7-130.8 52.7l11.2 8.8c43.1-13.5 89-20.8 136.7-20.8 12.5 0 25 .5 37.2 1.5l-54.3-42.2m-153.6 67.2c-7.5 5.1-14.8 10.4-21.9 15.9 8.9-4.1 17.9-8 27-11.5l-5.1-4.4"/></clipPath><clipPath id="O"><path d="M13028.9 14654.6l174.6 149.6a324.67 324.67 0 0 1 22.1-21.8l-1.8-4.1c-77.5-8-79.3-52.2-134.5-96.4-18.9-12.5-39.3-21.3-60.4-27.3m123.8 214.8l2.4 7.1c.5-1.2 1.1-2.4 1.7-3.7-1.4-1.1-2.7-2.3-4.1-3.4"/></clipPath><clipPath id="P"><path d="M13160.7 15137.8c-3.5 13-7.7 25.8-12.3 38.3l41.9 35.9a413.58 413.58 0 0 0 10.3-16.6 294.43 294.43 0 0 1-39.9-57.6m-20.8 59.6c-16.2 37.5-37.3 72.5-62.4 104 1.1 1 2.3 1.9 3.5 2.9l15.9 12.7c29.8-24.6 56.4-52.8 79.1-84.1l-36.1-35.5"/></clipPath><clipPath id="Q"><path d="M12861.4 14510.3l19 16.4 1-13.5c-6.6-1.1-13.3-2.1-20-2.9"/></clipPath><clipPath id="R"><path d="M13465.9 14674.9c-10.7 11.1-22.5 22.6-35.1 33.9 1.1 0 2.2.1 3.4.1 16.4-3.1 30.4-18.3 31.7-34"/></clipPath><clipPath id="S"><path d="M12719.7 14559.4c-47.7 0-93.6 7.3-136.7 20.8-9.8 3-19.4 6.4-28.9 10.1-9.1 3.5-18.1 7.4-27 11.5a455.91 455.91 0 0 0-92.6 57.3c-11.1 9-21.9 18.4-32.2 28.4-16.7 16.1-32.2 33.5-46.4 52-22.3 29.3-41.2 61.4-56.1 95.7-9.9 22.9-18 46.8-24.1 71.4-.1.3-.1.6-.2 1-6 24.3-10 49.5-11.9 75.3-.1 1.2-.1 2.4-.2 3.7-.7 9.9-1 20-1 30.1 0 22.6 1.6 44.7 4.8 66.5 3.9 26.6 10.1 52.6 18.4 77.5 14.6 44.1 35.7 85.1 62.2 122.1 69.9 97.6 177.3 166.5 301.1 185.7 23.1 3.6 46.7 5.4 70.8 5.4 45.2 0 88.9-6.5 130.1-18.7 17.2-5.1 33.9-11.2 50.1-18.2 24.7-10.6 48.3-23.3 70.5-37.9 9.6-6.3 19-13 28.1-20 29.4-22.6 55.9-48.7 79-77.7 25.1-31.5 46.2-66.5 62.4-104 3-7 5.8-14.1 8.5-21.3 4.6-12.5 8.8-25.3 12.3-38.3-21.4-40.7-33.6-87.1-33.6-136.3 0-44.7 10.1-87.1 28-125l-2.4-7.1c-30.8-90.5-89.1-168.3-165-223.3-23.4-3.2-47-4.1-69.6-4.1 2.2-11.4 4.7-22.7 7.6-33.7-4.7-2.4-9.4-4.6-14.1-6.8-8.6-4-17.3-7.7-26.1-11.1-7.5-3-15.1-5.7-22.8-8.2-33.7-11.1-69.1-18.4-105.8-21.3-12.2-1-24.7-1.5-37.2-1.5m6.5 544.3c-24.5-35.2-38.9-77.9-38.9-124 0-119.9 97.2-217.1 217.1-217.1s217.1 97.2 217.1 217.1-97.2 217.1-217.1 217.1c-39 0-75.7-10.3-107.3-28.4-35.2-4.3-63.5-30.6-70.9-64.7"/></clipPath><radialGradient fx="0" fy="0" cx="0" cy="0" r="1" gradientTransform="matrix(457.275,0,0,-457.275,12719.7,15016.7)" spreadMethod="pad" id="T" xlink:href="#c"><stop offset="0" stop-color="#fff"/><stop offset=".741" stop-color="#fff"/><stop offset="1" stop-color="#cff"/></radialGradient><clipPath id="U"><path d="M12726.2 15103.7c7.4 34.1 35.7 60.4 70.9 64.7-28.2-16-52.4-38.2-70.9-64.7"/></clipPath><radialGradient fx="0" fy="0" cx="0" cy="0" r="1" gradientTransform="matrix(457.275,0,0,-457.275,12719.7,15016.7)" spreadMethod="pad" id="V" xlink:href="#c"><stop offset="0" stop-color="#fff"/><stop offset=".741" stop-color="#fff"/><stop offset="1" stop-color="#eff"/></radialGradient><clipPath id="W"><path d="M13430.8 14708.8c-46.8 41.8-105 80.6-157.5 80.6-15.1 0-29.8-3.3-43.5-10.6h-.1l-4.1 3.6a324.67 324.67 0 0 0-22.1 21.8c-18.6 20.5-34.4 43.5-46.7 68.6-.6 1.3-1.2 2.5-1.7 3.7-17.9 37.9-28 80.3-28 125 0 49.2 12.2 95.6 33.6 136.3a294.43 294.43 0 0 0 39.9 57.6c48.8 55.2 118.2 91.9 196.1 98a300.46 300.46 0 0 0 23.3.9c68.5 0 131.5-23.5 181.4-62.9 67.9-53.6 111.5-136.7 111.5-229.9 0-157-123.6-285.2-278.7-292.6-1.2 0-2.3-.1-3.4-.1m-6.6 348.4c-15.7-22.5-24.9-49.9-24.9-79.4 0-76.8 62.2-139 139-139s139.1 62.2 139.1 139-62.3 139-139.1 139c-25 0-48.4-6.6-68.7-18.1-22.5-2.8-40.7-19.7-45.4-41.5"/></clipPath><radialGradient fx="0" fy="0" cx="0" cy="0" r="1" gradientTransform="matrix(292.871,0,0,-292.871,13420,15001.5)" spreadMethod="pad" id="X" xlink:href="#c"><stop offset="0" stop-color="#fff"/><stop offset=".741" stop-color="#fff"/><stop offset="1" stop-color="#cff"/></radialGradient><clipPath id="Y"><path d="M13424.2 15057.2c4.7 21.8 22.9 38.7 45.4 41.5-18.1-10.3-33.6-24.5-45.4-41.5"/></clipPath><radialGradient fx="0" fy="0" cx="0" cy="0" r="1" gradientTransform="matrix(292.871,0,0,-292.871,13420,15001.5)" spreadMethod="pad" id="Z" xlink:href="#c"><stop offset="0" stop-color="#fff"/><stop offset=".741" stop-color="#fff"/><stop offset="1" stop-color="#eff"/></radialGradient><clipPath id="a"><path d="M13431.8 13000.4l75.5 80.8c112.6 20.5 219.8 68.3 310 138.5 5.2-9.2 6.1-21.1-.4-33.8-14.3-28.3-29.4-56.2-45.2-83.8 43.8 42.4 90.3 81.8 140.2 117.4 5.8 4.1 11.7 5.8 17.4 5.8 3.3 0 6.5-.5 9.6-1.6-130-139.2-316.2-220.9-507.1-223.3m-15.5.2c-54.1 2-107.5 9.9-157.6 25.8l58.2 48.3c22-2.7 44.3-4.3 66.7-4.9 35.1.1 70.2 2.9 104.8 8.2-23.5-26.2-47.6-52-72.1-77.4m-190.4 37.5c-31.2 12.5-60.8 28.6-88 48.6l30.1 28.1c32.3-14.6 66.5-25.2 101.9-32.5l-44-44.2m-133.1 87.8c-21.4 21.9-40.6 47.1-57.2 76.1a515.61 515.61 0 0 0-15 29.7c26.3-35.2 57.2-63.6 91.4-86.2l-19.2-19.6"/></clipPath><linearGradient id="b" x1="11514.7" y1="15856.5" x2="13686.13" y2="12256.5" spreadMethod="pad" xlink:href="#c"><stop offset="0" stop-color="#ad68ad"/><stop offset=".036" stop-color="#ad68ad"/><stop offset=".695" stop-color="#8a0045"/><stop offset="1" stop-color="#8a0045"/></linearGradient><linearGradient id="c" gradientUnits="userSpaceOnUse"/></defs><g transform="matrix(.035278 0 0 -.035278 -390.932379 571.884499)"><path d="M13100.2 11337.9c-1.4 18-14.8 34.6-31.6 34.6-5.9 0-12.2-2-18.5-6.8l-27.2-20.8c-58 14.8-117.4 21.8-176.7 21.8a772.78 772.78 0 0 1-64.5-2.7c-134.2 12.6-269.6 13.3-405.2 13.3-45.1 0-45.1 70 0 70h0c224.4 0 448.5-2.7 667.5-54.5l118 404.4 38.9-.9 33.8-1.6c-49.3-148.4-85.9-301.8-133.2-453.2-.4-1.2-.8-2.4-1.3-3.6m158.3 525.3c-23.9 2.1-48.2 3.3-72.8 4.1 40.7 114.5 90.2 225.8 159.1 330.7 7.4 11.4 18.2 16.1 28.9 16.1 9 0 18-3.4 24.9-9-6.4-15.7-1.5-30.5 8.1-40-.5-.8-1-1.7-1.5-2.5-62.6-95.2-108.7-195.8-146.7-299.4m-820.8-686.3c-29.9 0-49.6 45.9-17.4 65.9 109 67.7 234 110.3 361.4 121.2 74.5-7 148.6-17.6 222.2-33.8l-52.6-41.9c-35 5.7-70.3 8.5-105.5 8.5-136.8 0-273-41.6-390.2-114.4-6.1-3.9-12.2-5.5-17.9-5.5" fill="#a38c8c"/><path d="M13003.9 11330.2c-73.6 16.2-147.7 26.8-222.2 33.8a772.78 772.78 0 0 0 64.5 2.7c59.3 0 118.7-7 176.7-21.8l-19-14.7" fill="#714d4d"/><g fill="#a38c8c"><path d="M13038.9 11269.4l29.8 23.1c-4.4-12.6-15.1-22.8-29.8-23.1"/><path d="M12715.8 10993.2c-26.9 0-50.9 35.2-26.1 59.8a3531.67 3531.67 0 0 0 261.6 235.3c25.7-4.2 51.2-9.9 76.4-17.3 3.7-1.1 7.3-1.6 10.6-1.6h.6c-105.1-82.5-204.9-171.7-299.7-265.9-7.3-7.2-15.5-10.3-23.4-10.3m352.9 299.3c2.6 7.5 3.1 15.9.9 23.4 13.4.8 25.1 9.3 30.6 22 .9-11.7-3.3-24-14.8-32.7l-16.7-12.7"/></g><g fill="#714d4d"><path d="M13069.6 11315.9c-2.9 10.1-10.3 18.8-23.3 22.6-7.8 2.3-15.6 4.4-23.4 6.4l27.2 20.8c6.3 4.8 12.6 6.8 18.5 6.8 16.8 0 30.2-16.6 31.6-34.6-5.5-12.7-17.2-21.2-30.6-22"/><path d="M13038.3 11269.4c-3.3 0-6.9.5-10.6 1.6-25.2 7.4-50.7 13.1-76.4 17.3l52.6 41.9c18.2-4 36.4-8.4 54.5-13.1 3.1-.8 6.2-1.2 9.1-1.2h2.1c2.2-7.5 1.7-15.9-.9-23.4l-29.8-23.1h-.6"/></g><path d="M13067.5 11315.9c-2.9 0-6 .4-9.1 1.2-18.1 4.7-36.3 9.1-54.5 13.1l19 14.7c7.8-2 15.6-4.1 23.4-6.4 13-3.8 20.4-12.5 23.3-22.6h-2.1" fill="#552a2a"/><path d="M13790.3 11071.9c-14 0-28.3 7.2-34.3 23.9-35.6 98.1-69.2 196.9-108.7 293.6-28 68.6-57.7 141.5-95.8 208-9 53.7-19.6 107.3-31.4 160.6 8.9-9 17.5-18.7 25.8-29.2 138.5-175.1 202.7-407.6 277.6-614.4 9.3-25.7-11.7-42.5-33.2-42.5m-389.9 685.8c-50.1 24.1-106.6 33.3-165.7 37 7.6 23 15.5 45.8 23.8 68.5 77.2-6.8 150.5-23.2 213.6-65.6-5.1-1.8-9.9-4.6-13.8-8.4-7.7 7.1-18 11.1-27.6 11.1-13.4 0-25.6-7.7-28-25.4l-2.3-17.2m-238.4 39.5c-117.4 2-239-1.3-349.3 42.2-21.7 8.5-32 29.7-20.9 51.4 51.3 100.1 117.6 191.6 168.9 291.8 6.4 12.5 16.7 17.7 27.2 17.7 23.2 0 47.4-25.4 33.3-53-44.8-87.5-101.1-168.3-148.8-254.2 97.9-27.2 207.4-22.5 313.3-25.8l-23.7-70.1" fill="#a38c8c"/><path d="M13234.7 11794.7l-33.8 1.6-38.9.9 23.7 70.1c24.6-.8 48.9-2 72.8-4.1-8.3-22.7-16.2-45.5-23.8-68.5" fill="#714d4d"/><path d="M13541.7 11102.1c-17.5 0-34.2 11.2-32.8 33.7 12.2 187.7-8.5 373.7-46.4 557.1l2.4 21.1c8.7-8.1 17.1-17 25.2-26.7 22.9-27.7 43.1-58.1 61.4-89.9 25.4-152.5 37.5-306.8 27.4-461.6-1.4-22.5-19.7-33.7-37.2-33.7m-21.6 655.9c-15.2 15.2-31.3 28.4-48 39.6 4.3 1.6 8.8 2.4 13.3 2.4 13.7 0 26.8-7.6 30.8-25.1l3.9-16.9" fill="#a38c8c"/><path d="M13551.5 11597.4c-18.3 31.8-38.5 62.2-61.4 89.9-8.1 9.7-16.5 18.6-25.2 26.7l5.3 42.3c1.9 13.8-3.5 25.2-11.9 32.9 3.9 3.8 8.7 6.6 13.8 8.4 16.7-11.2 32.8-24.4 48-39.6 11.8-53.3 22.4-106.9 31.4-160.6" fill="#714d4d"/><path d="M13327.2 11057.2c-21.8 0-42.5 16.5-32.1 41.8 86.9 209.4 77.1 437.6 105.3 658.7 19.8-9.6 38.6-21.5 56.1-36.3l6-28.5c-21.9-206.7-18.8-417.2-99.9-612.5-6.7-16.2-21.3-23.2-35.4-23.2" fill="#a38c8c"/><g fill="#714d4d"><path d="M13456.5 11721.4c-17.5 14.8-36.3 26.7-56.1 36.3l2.3 17.2c2.4 17.7 14.6 25.4 28 25.4 9.6 0 19.9-4 27.6-11.1-8.1-7.6-12.7-19-9.6-32.9l7.8-34.9"/><path d="M13462.5 11692.9l-6 28.5 8.4-7.4c-.9-7-1.6-14.1-2.4-21.1"/></g><path d="M13464.9 11714l-8.4 7.4-7.8 34.9c-3.1 13.9 1.5 25.3 9.6 32.9 8.4-7.7 13.8-19.1 11.9-32.9-2-14.1-3.7-28.2-5.3-42.3" fill="#552a2a"/><g clip-path="url(#I)"><path d="M12873.9 12139.8c-24 0-46.9 27.4-31.7 52.8 121.4 202.7 278.3 379 432.7 557-186-179.2-374.4-356.2-529.4-563.7-7.6-10.3-19.7-15-31.5-15-21.6 0-42.3 15.9-32.5 42 108.9 289.5 335.4 494.5 554 705.9-242.5-196.5-486.8-391.8-647.1-661.5h0c-7.1-11.9-17.7-16.8-28.3-16.8-24 0-48.1 25.1-32.2 52.1 74.7 126.3 159.5 244.9 251 358.2-128.1-118.9-258.6-235-396-343.4h0c-7.9-6.3-16.3-9-24.3-9-27 0-48.2 31.4-25.2 58.5l474.8 562.7-464.2-402.2c-43.3-37.6-87.4-74.4-132.5-110-7.3-5.8-15.2-8.2-22.9-8.2-29.1 0-54.5 34.9-26.6 57.7h0l132.6 110.1c249.7 216.9 471.8 462.9 702.2 700.3 7.5-12.5 15.4-24.4 23.8-35.6a515.61 515.61 0 0 1 15-29.7c16.6-29 35.8-54.2 57.2-76.1-153.9-158-297.5-325.9-439.2-495.3 163.9 149.2 322.4 304.6 484.3 456.1 27.2-20 56.8-36.1 88-48.6l-175.7-182.2 208.5 170.5c50.1-15.9 103.5-23.8 157.6-25.8-76.7-79.5-157.1-155.7-235.3-232.8-73.7-72.7-148.7-147.5-217-227.5 153.3 155.8 316.4 302.6 467.8 460.1 190.9 2.4 377.1 84.1 507.1 223.3 16.4-5.8 28.5-25.6 24.4-43.7-5.4-24-11.6-47.7-18.5-71.1 32.2 32.1 66.3 62.5 102.9 90.8 7.6 5.9 16.9 8.8 25.9 8.8 10.9 0 21.4-4.3 27.7-12.8 6.6 9.2 17.9 13.7 29.1 13.7 15.1 0 30-8.4 32.9-25.1 7.1-40.4 10.9-81 12.2-121.8 20.9 48.6 43.1 96.8 66.7 144.4 6.1 12.4 16.4 17.6 27.1 17.6 18 0 36.9-15 38.1-35.2 2.1-35.3 2.4-70.9 1.1-106.5 39.8 77.4 83.8 152.5 133.7 224.1 8.1 11.6 19 16.8 29.6 16.8 17 0 33.1-13.2 35.6-34.4 1.7-13.9 2.9-27.8 3.6-41.8l59.8 130.9c5.9 12.5 15.9 17.7 26.5 17.7 18.1 0 37.4-15.4 38.7-35.4 1.3-19 1.9-38.1 1.9-57.3l75.7 175c5.7 12.8 15.5 18.1 25.9 18.1 19.2 0 40-18.2 38.7-40.5 1.5-5.5 1.5-11.9-.6-18.9l-7.8-25.5c-29.1-150.1-57-301.4-124.3-440-6.2-12.7-16.2-18-26.5-18-11.7 0-23.7 6.7-31.1 17-25.8-89.5-60.2-176.1-99.5-256.2-6-12.1-16.6-17.2-27.6-17.2-21.5 0-44.2 19.4-36.4 44.2 34.6 109.6 73.8 217.7 115.9 324.7 9.1 40.6 16.1 81.7 20.8 122.7l-71.5-168.4c-8.5-39.3-18.9-78.1-30.3-115.9-36.2-119.8-83.5-236.6-142.4-347.2-6.3-11.9-17.2-16.9-28.3-16.9-21.6 0-44 19-35.6 43.9 53 158.3 111.4 315 175 469.5 7.4 41.4 12.1 82.8 13.7 124-61.8-101.9-113.7-209.4-160.3-319.4-4.9-24.6-10.3-49-16.2-73.2-30.3-124.2-72.1-252.2-148.3-356.5-7.6-10.4-19.5-15.1-31.2-15.1-8.2 0-16.3 2.3-22.7 6.7l-14-54.6c-4.4-17.8-17-25.3-30.1-25.3-20 0-41.4 17.6-37.4 43.9h0c22 143.3 55 284.1 98.6 421.5 15.1 83.6 27 169.7 25.4 254.9l-20.9-36.6c-31.3-112.7-90.1-219-147.4-319.2-73.8-129.2-157.1-258.1-206.6-399.4-8.8-27.3-17-54.8-24.4-82.7h0c-4.7-17.4-18-24.9-31.7-24.9-20.6 0-42.1 17.2-35.8 43.5 7 29.4 15.7 58.2 25.6 86.6 83.2 256.6 222.1 490.7 356.1 724.7 3.4 13.2 6.3 26.5 8.7 39.9-58.2-53.6-109.8-113-156.8-176.3-84.8-186.6-201.9-360.1-304.6-538.8-35.1-70.1-70.5-139.3-107.9-205.9h0c-7-12.5-17.3-17.7-27.6-17.7-9.3 0-18.6 4.3-25.5 11.2-9.6 9.5-14.5 24.3-8.1 40 .2.6.5 1.2.8 1.8 32 69.6 68.7 137.5 107.4 204.7 93 185.1 184.1 376 305.6 541.7 20.8 46.7 39.5 94.3 55.3 143.1-120.6-104.4-220.5-234.2-309.8-364.7-107.9-157.6-203.4-322.9-298.1-488.7-6.6-11.5-17.7-16.5-29-16.5-21.7 0-43.9 18.4-35 43.5 100.2 281.2 293 511.5 451.4 761.3-273.9-271-484.3-601.7-750-881.1-7-7.3-15.2-10.4-23.3-10.4m1282.5 675.2c-10-60.3-23.2-120.5-37.7-180.1 30 81.2 61 162.2 94.6 242.1 9.2 48 16.4 96.5 20.9 145.2-28.8-68.1-54.7-137.2-77.8-207.2m-2154.6-316.5c-27.4 0-49.5 31.8-25.5 58.4 147.4 163 318.1 298 494.3 426.6 97.8 85.8 196.9 170 299.4 248.9-299.1-175.4-594.4-357.1-858.5-582.2h0c-8.1-6.8-16.5-9.7-24.4-9.7-26.4 0-46.8 32.3-25.1 59.2 94.7 117.5 199.5 225.7 309.8 328.7l179.7 167.8-575.7-380c-5.7-4-11.5-5.7-17.2-5.7-27.1 0-49.6 38.9-25.2 60.6l287.1 263.1c-112.3-85-230.3-161-359-218-5.6-2.5-11.1-3.6-16.4-3.6-2.2 0-4.3.2-6.4.5-2.7-.7-5.4-1-8.1-1-27.2 0-50.1 33.5-25.8 59l975.7 1002.9c-170.9-124.3-338.7-251.4-501-387.3-187.1-156.8-369.6-319.1-553.7-479.3-8.1-7-16.6-10-24.6-10-23.2 0-41.8 25.6-30.4 52.4 68.2 161.1 177.9 298.4 305.7 420.3 260.8 172.3 507.9 364.4 749.2 564.1l350.5 238.6c10.9-20.4 24.5-39.6 40.1-57.3-200.3-132.4-397-270.3-593.7-409.2-246.4-173.9-525.2-363.1-697.8-620.2 306.2 266 613.5 528.5 943.8 765.5 116.7 83.8 235.1 170.2 349.2 262.3 19.5-21.7 42.1-41.1 67-57.8-177.8-159.4-350.2-324.8-519.4-493.7 192.1 156.8 389.3 308 586.9 457.4 47.2-19.9 98.3-30.9 148.3-30.9a396.83 396.83 0 0 1 15.5.3c-60.3-59.9-125.1-115-197.4-161-97-61.7-183.8-132.8-268.7-206.8 36.2 24.5 73 48.3 110.8 71.2l92.5 55.4c110.7 81.6 225 158.4 344.3 228.6 5.4 3.2 10.9 4.6 16.3 4.6 28.3 0 52.7-38.2 26.1-59.5-108.7-87.4-227.4-159.4-346.6-230.9-312.9-230.5-596.1-499.6-880.6-766 369.4 239.5 744 472.7 1077.7 760.6h0c7.7 6.6 15.9 9.4 23.8 9.4 27.3 0 50.1-33.2 25.7-58.9-203.8-214.1-459.7-365.4-685.1-554.1-114.9-96.3-224.4-200.4-333.6-302.9l-26.6-25.2c240.6 166.4 495.4 312.6 748.5 460.4 6.7-46.5 25.2-93 48-136.5-153-119.6-314.3-229.1-471.4-343.8-164.2-143.7-325.1-291.9-494-426.4h0c-7.8-6.2-16.2-8.9-24-8.9m587.5 1274.5c-121.8-97.9-241.9-197.8-359.1-300.8 105.4 82.9 209.6 167.5 309.9 256.7l49.2 44.1" fill="url(#A)"/></g><g clip-path="url(#J)"><path d="M11387.9 13340.4c-28.2 0-51.2 36.2-25.9 59.3l576.2 517.8 278.6 256.8 100.9 98.2-15.5-13.3c-173.3-149.1-354.8-286.3-517.2-447.6-142.3-141.3-285.8-288.8-466.3-381.1-5.4-2.8-10.9-4-16.2-4-28.4 0-51.9 35.3-26.2 58.9l45.6 42.8-17.5-12c-6.3-4.3-12.5-6.1-18.3-6.1-26.2 0-44.6 37.8-24.1 61 354.2 401.2 766 741.8 1172.5 1088a455.91 455.91 0 0 1 92.6-57.3c7.1-5.5 14.4-10.8 21.9-15.9l-234.2-197.6c-124.3-106.2-244.1-218.1-364.1-329.8l330.2 274.5c95.1 82 192.7 160.5 290.9 238.4 40.1-24 84.1-41.9 130.8-52.7-59.2-46.5-117.3-93.8-173.4-143.1-185.5-163.2-357.9-341.9-541.5-507.6l-314.5-281.5c416.8 267.4 796.7 587 1172.8 910.6-.7-28.6 3.6-55.9 12-81.8l-332.3-281.1c-241.3-199.7-488.4-391.8-749.2-564.1-120.8-79.7-244.5-155.2-372.1-225.3-5.5-3.1-11.1-4.4-16.5-4.4m-186.5 414.6c-26.6 0-47.2 32.1-25.1 59 328.7 401.4 707 754.5 1099.4 1092.6 6.1-24.6 14.2-48.5 24.1-71.4-277.6-240-547.7-487.9-797.7-755.6l752.7 582.7 101.1 77.2c14.2-18.5 29.7-35.9 46.4-52l-97-74c-364.1-277.6-728.2-555.3-1079.5-849h0c-8.1-6.7-16.5-9.5-24.4-9.5m-56.3 285c-26.8 0-50.1 34.6-26 59.7 135.9 141.3 288.8 263.5 443.9 382.7l89.4 68.3c179.5 137.4 349.6 279.4 511.5 437.3 33.6 32.7 68.1 64.4 103.3 95.2-3.2-21.8-4.8-43.9-4.8-66.5 0-10.1.3-20.2 1-30.1l-15.2-14.3 15.4 10.6c1.9-25.8 5.9-51 11.9-75.3-385.7-264.6-770.5-530-1106.9-857.4h0c-7.4-7.2-15.6-10.2-23.5-10.2m-30.6 356.7c-27.1 0-43.2 35.4-24 60.2 252.6 325.4 634.4 513.9 944.2 775.3l227 194c-403-229.2-802.8-462.2-1121.7-804.5h0c-7.3-7.9-15.5-11.2-23.4-11.2-25.7 0-48.3 34.8-26.1 60.6 106 123.2 230.6 226.4 360.1 323.5 40.7 31.1 82 61.3 123.9 90.8l193 143.7c75.9 60 144.6 126.4 216.9 190.3 30 26.4 61.1 51.4 92.9 75.5-312.1-171.8-609.4-368.7-915.8-550.1-5.6-3.4-11.4-4.9-16.9-4.9-27.8 0-50 37-25.5 59.8 36.7 34.3 74.2 67.5 112.3 99.8l-27-11.9c-5.7-2.4-11.3-3.5-16.5-3.5-32.1 0-51.5 41.5-18.8 64h0c267.2 183.3 532.9 372.3 807.1 546.7-213.2-129.9-429.1-254.6-665.9-339.3-4-1.4-7.9-2.1-11.5-2.1-27.9 0-41.7 39.2-22.5 60.6 303.7 339.3 808.8 377.8 1152.1 656.2-313.9-122.9-613.5-279.4-909.7-439.7h0c-5.9-3.2-11.8-4.6-17.2-4.6-31.2 0-51.5 45.8-18.2 65 208.2 120.3 422.1 234.3 620.9 370.2l-103.9-38c-106.4-41.3-223.6-87.7-303.1-172.9-7.2-7.7-15.4-10.9-23.3-10.9-26.2 0-49.8 35.1-26.2 60.4 81.5 87.4 198.5 137.5 307.6 180.6 115.8 45.7 235.5 81.1 350.7 128.4 3.6 1.5 7.2 2.2 10.7 2.2 27.1 0 46.8-41.5 23.3-60.7-37.7-30.8-76.3-60.4-115.6-89.1 111.2 48.4 224 93.3 338.7 133.3 4.1 1.5 8 2.1 11.6 2.1 28 0 41.1-38.9 22.5-60.6l-11.1-12.6 54.4 24.8c5.4 2.3 10.9 3.4 16.1 3.4 28.6 0 50.6-32.5 26.3-58.4l-9.9-10.5 81.8 36.9c6 2.6 11.7 3.8 17.1 3.8 31.7 0 49.3-41.1 18.2-64.3-364.3-272.1-771.9-483.8-1148.4-738.4 145.6 89 292.2 176.1 442.5 256.9 236 126.8 437.4 310.9 672.3 438.2 42 26.3 86.6 48.6 135.2 64.5 4.3 1.4 8.3 2 12 2 34.4 0 43.2-54.6 6.6-69.5h0c-41.6-17.1-82-36.7-121.4-58.1-112.9-71-205.9-175.3-310-257.3-138.6-109.1-294.5-196.3-427.8-312 334.9 194.5 679.6 376.1 989.4 605.6 6.3 4.6 12.5 6.7 18.3 6.7 25.8 0 44-38.7 24.1-61.7-127.7-147.6-303.5-241.7-468.4-340.9-194.5-117-357-267.3-530.3-412.3-252.4-211.3-551.7-376.7-790.3-605.7 299.6 183.4 582.9 392.3 873.8 589.1 59.2 40.1 119.4 78.7 180.1 116.7-26.5-37-47.6-78-62.2-122.1l-66.6-44.2c-358.8-242.8-706.5-504.2-1086-714.6-6.5-3.6-12.7-5.2-18.5-5.2m737.7 1303.5c-134.1-57-264.9-118.7-380.1-203.6 130.9 59.7 256.4 129.8 380.1 203.6m613 284c-78.3-41.9-155.1-86.5-231.3-132.2 71.7 41.8 144.3 82.2 217.7 120.9 4.6 3.7 9.1 7.5 13.6 11.3m758.6-1205.9l1.8 4.1 4.1-3.6c-2-.1-4-.3-5.9-.5m-23.2 417.1a413.58 413.58 0 0 1-10.3 16.6l200.2 173.4c7.5 6.6 15.7 9.4 23.6 9.4 27.5 0 51-33.9 25.9-58.9l-43.3-42.5c-77.9-6.1-147.3-42.8-196.1-98m-24.6 37.5c-22.7 31.3-49.3 59.5-79.1 84.1 75.8 60.1 157.9 118.4 225.9 186.4h0c3.8 3.8 7.9 6.5 12 8.1 10.7 8.2 22 15.5 34.3 22.3 6 3.3 11.9 4.7 17.5 4.7 27.6 0 46.9-35.3 24.9-59.7-76.2-84.4-154.9-166.1-235.5-245.9m-205.6 166.2c-22.2 14.6-45.8 27.3-70.5 37.9l122.8 96.7 196.4 166c7.4 6.3 15.5 9 23.3 9 28.2 0 52.8-34.8 26.2-58.5h0c-64.2-57-129.7-112.2-196.4-166l-101.8-85.1m-120.6 56.1c-41.2 12.2-84.9 18.7-130.1 18.7-24.1 0-47.7-1.8-70.8-5.4 168.6 105.2 334.1 215 484.5 345.5h0c7.8 6.8 16.1 9.6 24.1 9.6 26.8 0 48.5-32.8 25.4-59.1-100.8-114.8-214.6-214.7-333.1-309.3" fill="url(#B)"/></g><path d="M13216.1 14189.2l34.4 35.2c54 .4 105.8 13.9 148.7 43.1-49.7-50.9-115-75.1-183.1-78.3m-163.8 30.6c-23.7 10-46.4 22.2-67.5 36.3l42 37.5c22.7-15.1 47-28 72.3-38.4l-46.8-35.4m-134.5 94.1c-.5.6-1 1.1-1.5 1.6l18.3 12.1-16.8-13.7m-41.6 58.9c-7.3 13.6-13.4 27.8-18.2 42.5l38.8 33.4c6.2-16.3 14-32 23.2-47l-43.8-28.9" fill="#b9a8a8"/><g clip-path="url(#K)"><path d="M13200.6 14188.9c-50 0-101.1 11-148.3 30.9l46.8 35.4c48-19.9 99.3-30.8 148.9-30.8h2.5c-11.3-11.9-22.8-23.6-34.4-35.2a396.83 396.83 0 0 0-15.5-.3m-215.8 67.2c-24.9 16.7-47.5 36.1-67 57.8l16.8 13.7-18.3-12.1c-15.6 17.7-29.2 36.9-40.1 57.3l43.8 28.9c26.1-42.6 63.5-79.3 106.8-108.1l-42-37.5" fill="url(#C)"/></g><path d="M12846 14497.1c.1 3.8.3 7.7.6 11.7 4.9.4 9.9.9 14.8 1.5l-15.4-13.2" fill="#b9a8a8"/><g clip-path="url(#L)"><path d="M12858 14415.3c-8.4 25.9-12.7 53.2-12 81.8l15.4 13.2c6.7.8 13.4 1.8 20 2.9 2.3-22.4 7.6-43.9 15.4-64.5l-38.8-33.4" fill="url(#D)"/></g><path d="M13491.6 14394.1c-114.2-342.5-702.2-114.2-599.4 222.6 171.2-137 365.3-228.3 587.9-239.7l11.5 17.1" fill="#c06"/><path d="M13477.5 14356.6h-1.4l1.4 2.8v-2.8m0 20.5l-12 .7.6 1.6-1-1.5c-25 1.7-49.6 4.4-73.8 8l5.9 7.2c.1.2.3.3.4.5 19 1.9 37.7 3 55.5 3h8.1c5.8-5.2 11.2-10.8 16.3-17.2v-2.3" fill="#b76e6e"/><g clip-path="url(#M)"><path d="M13391.3 14385.9l-24.9 4.1c10.4 1.4 20.8 2.6 31.2 3.6-.1-.2-.3-.3-.4-.5l-5.9-7.2" fill="url(#E)"/></g><path d="M13465.5 14377.8c-.1 0-.3.1-.4.1l1 1.5-.6-1.6" fill="#a35555"/><path d="M13224.3 14323.4c-24.9 0-50.7 2.9-77.9 10.3-120.8 29-172.1 90.8-198.8 195.6 1.9.6 3.8 1.3 5.7 1.9 44.1-93.3 121.4-159 238.8-163.2 2.4-.2 4.9-.2 7.6-.2 26.9 0 68.1 7.2 113.5 14.4l53.2 7.8c8.2-1.5 16.6-2.8 24.9-4.1 24.2-3.6 48.8-6.3 73.8-8 .1 0 .3-.1.4-.1l12-.7v-17.7c-.5-.9-.9-1.8-1.4-2.8-4.3.2-8.6.3-12.9.3-39.7 0-78.2-8.3-117.3-16.7-39.2-8.4-79-16.8-121.6-16.8" fill="#a82442"/><path d="M12805.9 14507c-35.5 0-70.1 4-103.3 11.7l54.3 42.2c36.7 2.9 72.1 10.2 105.8 21.3-9.2-25.1-14.4-49.6-16.1-73.4-13.4-1.2-27-1.8-40.7-1.8m-234.1 64.4a488.27 488.27 0 0 0-22.8 14.5l5.1 4.4c9.5-3.7 19.1-7.1 28.9-10.1-3.7-3-7.5-5.9-11.2-8.8" fill="#adadad"/><g clip-path="url(#N)"><path d="M12702.6 14518.7c-46.7 10.8-90.7 28.7-130.8 52.7l11.2 8.8c43.1-13.5 89-20.8 136.7-20.8 12.5 0 25 .5 37.2 1.5l-54.3-42.2m-153.6 67.2c-7.5 5.1-14.8 10.4-21.9 15.9 8.9-4.1 17.9-8 27-11.5l-5.1-4.4" fill="url(#b)"/></g><path d="M12987.7 14646.1c75.9 55 134.2 132.8 165 223.3 1.4 1.1 2.7 2.3 4.1 3.4 12.3-25.1 28.1-48.1 46.7-68.6l-174.6-149.6c-13.5-3.8-27.3-6.6-41.2-8.5" fill="#adadad"/><g clip-path="url(#O)"><path d="M13028.9 14654.6l174.6 149.6a324.67 324.67 0 0 1 22.1-21.8l-1.8-4.1c-77.5-8-79.3-52.2-134.5-96.4-18.9-12.5-39.3-21.3-60.4-27.3m123.8 214.8l2.4 7.1c.5-1.2 1.1-2.4 1.7-3.7-1.4-1.1-2.7-2.3-4.1-3.4" fill="url(#b)"/></g><path d="M13148.4 15176.1c-2.7 7.2-5.5 14.3-8.5 21.3l36.1 35.5c5-6.8 9.8-13.8 14.3-20.9l-41.9-35.9m-70.9 125.3c-23.1 29-49.6 55.1-79 77.7 35.5-16.5 68.6-37.4 98.4-62.1l-15.9-12.7c-1.2-1-2.4-1.9-3.5-2.9" fill="#adadad"/><g clip-path="url(#P)"><path d="M13160.7 15137.8c-3.5 13-7.7 25.8-12.3 38.3l41.9 35.9a413.58 413.58 0 0 0 10.3-16.6 294.43 294.43 0 0 1-39.9-57.6m-20.8 59.6c-16.2 37.5-37.3 72.5-62.4 104 1.1 1 2.3 1.9 3.5 2.9l15.9 12.7c29.8-24.6 56.4-52.8 79.1-84.1l-36.1-35.5" fill="url(#b)"/></g><path d="M12846.6 14508.8c1.7 23.8 6.9 48.3 16.1 73.4 7.7 2.5 15.3 5.2 22.8 8.2-4.5-21.8-6-43.1-5.1-63.7l-19-16.4c-4.9-.6-9.9-1.1-14.8-1.5" fill="#7e7272"/><g clip-path="url(#Q)"><path d="M12861.4 14510.3l19 16.4 1-13.5c-6.6-1.1-13.3-2.1-20-2.9" fill="url(#F)"/></g><path d="M12932.1 14586l-20.5 15.5 14.1 6.8c1.9-7.5 4.1-15 6.4-22.3" fill="#7e7272"/><path d="M12881.4 14513.2c-.4 4.4-.7 9-1 13.5-.9 20.6.6 41.9 5.1 63.7 8.8 3.4 17.5 7.1 26.1 11.1 6.8-5.3 13.6-10.4 20.5-15.5a446.85 446.85 0 0 1 8.1-23.9c2.3-11.4 4.7-22.3 7.4-32.8-21.4-6.9-43.5-12.4-66.2-16.1" fill="#8a0045"/><path d="M12947.6 14529.3c-2.7 10.5-5.1 21.4-7.4 32.8 4-10.6 8.4-20.9 13.1-30.9-1.9-.6-3.8-1.3-5.7-1.9" fill="#72182d"/><path d="M13491 14667.2c-6.2 0-12.3.2-18.3.5l-6.8 7.2c-1.3 15.7-15.3 30.9-31.7 34 155.1 7.4 278.7 135.6 278.7 292.6 0 93.2-43.6 176.3-111.5 229.9 107-43.6 182.5-148.7 182.5-271.3 0-161.8-131.2-292.9-292.9-292.9" fill="#adadad"/><g clip-path="url(#R)"><path d="M13465.9 14674.9c-10.7 11.1-22.5 22.6-35.1 33.9 1.1 0 2.2.1 3.4.1 16.4-3.1 30.4-18.3 31.7-34" fill="url(#G)"/></g><g clip-path="url(#S)"><path d="M12719.7 14559.4c-47.7 0-93.6 7.3-136.7 20.8-9.8 3-19.4 6.4-28.9 10.1-9.1 3.5-18.1 7.4-27 11.5a455.91 455.91 0 0 0-92.6 57.3c-11.1 9-21.9 18.4-32.2 28.4-16.7 16.1-32.2 33.5-46.4 52-22.3 29.3-41.2 61.4-56.1 95.7-9.9 22.9-18 46.8-24.1 71.4-.1.3-.1.6-.2 1-6 24.3-10 49.5-11.9 75.3-.1 1.2-.1 2.4-.2 3.7-.7 9.9-1 20-1 30.1 0 22.6 1.6 44.7 4.8 66.5 3.9 26.6 10.1 52.6 18.4 77.5 14.6 44.1 35.7 85.1 62.2 122.1 69.9 97.6 177.3 166.5 301.1 185.7 23.1 3.6 46.7 5.4 70.8 5.4 45.2 0 88.9-6.5 130.1-18.7 17.2-5.1 33.9-11.2 50.1-18.2 24.7-10.6 48.3-23.3 70.5-37.9 9.6-6.3 19-13 28.1-20 29.4-22.6 55.9-48.7 79-77.7 25.1-31.5 46.2-66.5 62.4-104 3-7 5.8-14.1 8.5-21.3 4.6-12.5 8.8-25.3 12.3-38.3-21.4-40.7-33.6-87.1-33.6-136.3 0-44.7 10.1-87.1 28-125l-2.4-7.1c-30.8-90.5-89.1-168.3-165-223.3-23.4-3.2-47-4.1-69.6-4.1 2.2-11.4 4.7-22.7 7.6-33.7-4.7-2.4-9.4-4.6-14.1-6.8-8.6-4-17.3-7.7-26.1-11.1-7.5-3-15.1-5.7-22.8-8.2-33.7-11.1-69.1-18.4-105.8-21.3-12.2-1-24.7-1.5-37.2-1.5m6.5 544.3c-24.5-35.2-38.9-77.9-38.9-124 0-119.9 97.2-217.1 217.1-217.1s217.1 97.2 217.1 217.1-97.2 217.1-217.1 217.1c-39 0-75.7-10.3-107.3-28.4-35.2-4.3-63.5-30.6-70.9-64.7" fill="url(#T)"/></g><path d="M13121.5 14979.7c0-119.9-97.2-217.1-217.1-217.1s-217.1 97.2-217.1 217.1 97.2 217.1 217.1 217.1 217.1-97.2 217.1-217.1" fill="#06c"/><path d="M13038.4 14901.2c0-66.3-53.8-120.1-120.1-120.1s-120.1 53.8-120.1 120.1 53.8 120.1 120.1 120.1 120.1-53.8 120.1-120.1"/><path d="M12810.2 14848.8c-64.9 13.6-113.6 71.2-113.6 140.1 0 32.2 10.6 61.9 28.5 85.8 5.5-40.6 40.2-71.9 82.3-71.9 45.9 0 83.2 37.2 83.2 83.1 0 14.7-3.8 28.5-10.5 40.5 55.2-16.2 96.5-64.7 102.2-123.6-18.5 11.7-40.5 18.5-64 18.5-66.3 0-120.1-53.8-120.1-120.1 0-18.8 4.3-36.6 12-52.4" fill="#abcdee"/><path d="M12839.8 14845.8c-10.2 0-20.1 1-29.6 3-7.7 15.8-12 33.6-12 52.4 0 66.3 53.8 120.1 120.1 120.1 23.5 0 45.5-6.8 64-18.5.4-4.5.6-9.2.6-13.9 0-79-64.1-143.1-143.1-143.1" fill="#ababab"/><g clip-path="url(#U)"><path d="M12726.2 15103.7c7.4 34.1 35.7 60.4 70.9 64.7-28.2-16-52.4-38.2-70.9-64.7" fill="url(#V)"/></g><path d="M12725.1 15074.7c-.5 3.7-.8 7.4-.8 11.2 0 6.1.6 12.1 1.9 17.8 18.5 26.5 42.7 48.7 70.9 64.7 3.4.5 6.8.7 10.3.7 31.3 0 58.5-17.2 72.7-42.7-12.8 3.7-26.3 5.7-40.3 5.7-47 0-88.6-22.5-114.7-57.4" fill="#abcdee"/><path d="M12807.4 15002.8c-42.1 0-76.8 31.3-82.3 71.9 26.1 34.9 67.7 57.4 114.7 57.4 14 0 27.5-2 40.3-5.7 6.7-12 10.5-25.8 10.5-40.5 0-45.9-37.3-83.1-83.2-83.1" fill="#e3eff9"/><g clip-path="url(#W)"><path d="M13430.8 14708.8c-46.8 41.8-105 80.6-157.5 80.6-15.1 0-29.8-3.3-43.5-10.6h-.1l-4.1 3.6a324.67 324.67 0 0 0-22.1 21.8c-18.6 20.5-34.4 43.5-46.7 68.6-.6 1.3-1.2 2.5-1.7 3.7-17.9 37.9-28 80.3-28 125 0 49.2 12.2 95.6 33.6 136.3a294.43 294.43 0 0 0 39.9 57.6c48.8 55.2 118.2 91.9 196.1 98a300.46 300.46 0 0 0 23.3.9c68.5 0 131.5-23.5 181.4-62.9 67.9-53.6 111.5-136.7 111.5-229.9 0-157-123.6-285.2-278.7-292.6-1.2 0-2.3-.1-3.4-.1m-6.6 348.4c-15.7-22.5-24.9-49.9-24.9-79.4 0-76.8 62.2-139 139-139s139.1 62.2 139.1 139-62.3 139-139.1 139c-25 0-48.4-6.6-68.7-18.1-22.5-2.8-40.7-19.7-45.4-41.5" fill="url(#X)"/></g><path d="M13677.4 14977.8c0-76.8-62.3-139-139.1-139s-139 62.2-139 139 62.2 139 139 139 139.1-62.2 139.1-139" fill="#06c"/><path d="M13624.1 14927.5c0-42.5-34.4-76.9-76.9-76.9s-76.9 34.4-76.9 76.9 34.4 76.9 76.9 76.9 76.9-34.4 76.9-76.9"/><path d="M13478 14894c-41.6 8.7-72.8 45.6-72.8 89.7 0 20.6 6.8 39.6 18.2 54.9 3.6-26 25.9-46 52.8-46 29.4 0 53.3 23.8 53.3 53.2 0 9.4-2.5 18.3-6.7 25.9 35.3-10.3 61.8-41.4 65.4-79.1-11.9 7.5-25.9 11.8-41 11.8-42.5 0-76.9-34.4-76.9-76.9 0-12 2.7-23.4 7.7-33.5" fill="#abcdee"/><path d="M13496.9 14892a90.44 90.44 0 0 0-18.9 2c-5 10.1-7.7 21.5-7.7 33.5 0 42.5 34.4 76.9 76.9 76.9 15.1 0 29.1-4.3 41-11.8.3-2.9.4-5.9.4-8.9 0-50.6-41-91.7-91.7-91.7" fill="#ababab"/><g clip-path="url(#Y)"><path d="M13424.2 15057.2c4.7 21.8 22.9 38.7 45.4 41.5-18.1-10.3-33.6-24.5-45.4-41.5" fill="url(#Z)"/></g><path d="M13423.4 15038.6c-.3 2.4-.4 4.8-.4 7.2 0 3.9.4 7.7 1.2 11.4 11.8 17 27.3 31.2 45.4 41.5 2.2.2 4.4.4 6.6.4 20 0 37.5-11 46.6-27.4a92.12 92.12 0 0 1-25.9 3.7c-30 0-56.7-14.4-73.5-36.8" fill="#abcdee"/><path d="M13476.2 14992.6c-26.9 0-49.2 20-52.8 46 16.8 22.4 43.5 36.8 73.5 36.8a92.12 92.12 0 0 0 25.9-3.7c4.2-7.6 6.7-16.5 6.7-25.9 0-29.4-23.9-53.2-53.3-53.2" fill="#e3eff9"/><path d="M13220.6 14773.3c91.3 62.8 228.4-74.2 279.7-137 79.9-91.4 102.8-216.9 85.7-336.8 4 121.6-150.3 102.1-272.8 82.7-50-7.9-94.7-15.9-121.1-14.2-159.9 5.7-245.5 125.6-274 274 57 0 119.8 5.7 171.2 39.9 57.1 45.7 57.1 91.4 142.7 97.1l-11.4-5.7" fill="#c06"/><path d="M13534.6 14419.4c-102.8 68.5-165.6 262.5-314 279.7l-22.8 17.1c24.4 21.4 50.9 30.7 78.1 30.7 131.7 0 277.6-218.7 258.7-327.5" fill="#f0b5d3"/><path d="M13424.7 13000.4l-8.4.2c24.5 25.4 48.6 51.2 72.1 77.4l18.9 3.2-75.5-80.8h-7.1m-166 26c-11.1 3.5-22 7.4-32.8 11.7l44 44.2c15.5-3.2 31.2-5.7 47-7.6l-58.2-48.3m-120.8 60.3c-15.9 11.7-31 24.7-45.1 39.2l19.2 19.6c17.8-11.7 36.5-22 56-30.7l-30.1-28.1m633.8 15.4c15.8 27.6 30.9 55.5 45.2 83.8 6.5 12.7 5.6 24.6.4 33.8 60.2 46.8 112.8 103.5 154.6 168.8 30.6 5.7 61.4 14.9 92.7 28.2-30.7-72.6-73.7-137.4-125.7-193-3.1 1.1-6.3 1.6-9.6 1.6-5.7 0-11.6-1.7-17.4-5.8-49.9-35.6-96.4-75-140.2-117.4" fill="#b09c9c"/><g clip-path="url(#a)"><path d="M13431.8 13000.4l75.5 80.8c112.6 20.5 219.8 68.3 310 138.5 5.2-9.2 6.1-21.1-.4-33.8-14.3-28.3-29.4-56.2-45.2-83.8 43.8 42.4 90.3 81.8 140.2 117.4 5.8 4.1 11.7 5.8 17.4 5.8 3.3 0 6.5-.5 9.6-1.6-130-139.2-316.2-220.9-507.1-223.3m-15.5.2c-54.1 2-107.5 9.9-157.6 25.8l58.2 48.3c22-2.7 44.3-4.3 66.7-4.9 35.1.1 70.2 2.9 104.8 8.2-23.5-26.2-47.6-52-72.1-77.4m-190.4 37.5c-31.2 12.5-60.8 28.6-88 48.6l30.1 28.1c32.3-14.6 66.5-25.2 101.9-32.5l-44-44.2m-133.1 87.8c-21.4 21.9-40.6 47.1-57.2 76.1a515.61 515.61 0 0 0-15 29.7c26.3-35.2 57.2-63.6 91.4-86.2l-19.2-19.6" fill="url(#H)"/></g><path d="M13211 13668.5c-80.3 39.3-198.3-35.6-242.1-113.6-54.2-89.6-22.6-193.5 25.6-283.5 83.7-146 234.4-197.7 389.1-201.6 269.8.6 531.3 160 639.9 416.4-144.8-61.8-278.9-34.8-429.6 16.9-123.8 38.5-262.5 194.9-385.4 172.1l2.5-6.7" fill="#939"/><path d="M13006.6 13299.1c-56.9 82.3-42.2 222.2 60 254.2 36.1 26.4 72.1 36.9 107.5 36.9 87.8 0 172.5-64.4 247.6-112.9 80.8-44.5 205.2-84.6 300.2-84.6 12.9 0 25.3.8 37 2.4-22.1-19.5-58.9-26.8-104.7-26.8-71.5 0-164.9 17.9-258.6 35.7-93.8 17.9-188 35.8-261.1 35.8-98.4 0-158.5-32.4-127.9-140.7" fill="#ca95ca"/><path d="M13383.9 13079.8c-46.9 0-90.5 6.3-127.6 19.6l-17.8 8.7c227.6 15.7 582.2 101.9 703.4 324.5-46.2-214.2-338.6-352.8-558-352.8" fill="#460a46"/><path d="M13875 13381c-4-6.3-8.5-13-13.6-20.2l20.2-14.3c5.3 7.5 10 14.5 14.2 21zm-28-39.8c-4.7-6.2-9.8-12.5-15.2-19l19.1-15.8c5.6 6.7 10.9 13.3 15.8 19.7zm-31-37.4c-5.3-5.9-10.8-11.9-16.6-17.8l17.8-17.3c6 6.2 11.7 12.4 17.2 18.5zm-33.9-34.9a477.45 477.45 0 0 0-17.9-16.4l16.3-18.6c6.5 5.6 12.7 11.3 18.7 17zm-36.5-32c-6.2-5-12.6-9.9-19.2-14.8l14.7-19.9c6.9 5 13.6 10.2 20 15.4zm-39-28.6c-6.7-4.4-13.5-8.8-20.5-13l12.8-21.2c7.3 4.4 14.4 8.9 21.4 13.5zm-41.5-24.9c-7-3.8-14.2-7.4-21.6-11l10.7-22.3c7.7 3.7 15.2 7.5 22.6 11.5zm-43.6-20.8c-7.4-3.1-14.9-6-22.5-8.7l8.3-23.3c8.1 2.8 16 5.9 23.7 9.1zm-45.5-16.3c-7.6-2.3-15.3-4.5-23.2-6.4l6-24.1c8.3 2.1 16.4 4.3 24.4 6.8zm-46.8-11.7l-.9-.2c-7.7-1.5-15.4-2.8-23-4l3.8-24.5a502.29 502.29 0 0 1 24 4.2l.9.2zm-48-7.6l-24.2-2.4 2-24.7c8.3.7 16.7 1.5 25.1 2.5zm-48.4-3.7c-7.3-.3-14.5-.5-21.7-.5l-2.5.1-.2-24.8h2.7c7.5 0 15.1.1 22.6.4zm-48.5.2c-8.1.4-16.2.9-24.1 1.7l-2.3-24.7a514.93 514.93 0 0 1 25.2-1.8zm-48.2 4.5a454.05 454.05 0 0 0-23.8 3.9l-4.6-24.4c8.2-1.5 16.6-2.9 25-4.1zm-47.4 9c-7.9 1.9-15.7 4-23.3 6.3l-7.1-23.8c8-2.4 16.2-4.6 24.5-6.6zm-46.2 13.8c-7.6 2.7-15.1 5.7-22.4 8.8l-9.7-22.8c7.7-3.3 15.7-6.4 23.7-9.3zm-44.2 18.9c-7.1 3.6-14.2 7.4-21 11.4l-12.5-21.3c7.3-4.3 14.8-8.4 22.4-12.2zm-41.2 24.2c-6.6 4.5-13.1 9.2-19.3 14.2l-15.3-19.5c6.6-5.3 13.5-10.3 20.6-15.2zm-37.4 29.7c-5.9 5.3-11.5 10.9-16.9 16.7l-18.2-16.9c5.9-6.2 12-12.3 18.3-18.1zm-32.4 34.7c-5 6.2-9.6 12.6-14.1 19.2l-20.5-13.8c4.8-7.1 9.8-14.1 15.1-20.8zm-26.5 39.4c-3.8 6.9-7.4 14-10.7 21.2l-22.5-10.3c3.6-7.8 7.4-15.5 11.6-23zm-19.7 43.2c-2.7 7.4-5.1 14.9-7.3 22.7l-23.8-6.7c2.3-8.3 4.9-16.5 7.8-24.5zm-12.8 45.8c-1.6 7.7-2.9 15.6-3.9 23.6l-24.6-3.2c1.1-8.5 2.5-17 4.2-25.2zm-6.1 47.4c-.2 2.4-.3 4.8-.4 7.2l-.2 7.2c0 3.1.1 6 .3 8.9l-24.8 1.4-.2-10.3.1-8.3.4-7.6zm2.7 45.9c1.6 7.6 3.9 14.7 6.7 21.5l-22.9 9.4c-3.4-8.1-6.1-16.6-8-25.7zm17.1 41.3c4.1 6.4 8.7 12.3 13.8 17.9l-18.2 16.8c-6-6.6-11.5-13.6-16.4-21.2zm30.6 33.4c6 4.7 12.3 9.1 19 13.2l-12.8 21.2c-7.5-4.6-14.8-9.6-21.6-15zm39.7 24.2c7.1 3.3 14.4 6.3 21.9 9l-8.4 23.3c-8.1-2.9-16.1-6.2-23.9-9.8zm44.6 16.1c7.7 2.1 15.5 4 23.3 5.5l-4.9 24.3c-8.3-1.7-16.6-3.6-24.9-5.9zm47 9.5c8.1 1.1 16.1 1.9 23.9 2.5l-1.8 24.7c-8.3-.6-16.8-1.5-25.4-2.6zm47.9 3.6h4.6c6.8 0 13.2-.2 19.3-.5l1.4 24.7c-6.5.4-13.5.6-20.7.6-1.6 0-3.2 0-4.9-.1zm47.4-3c9.1-1.3 16.6-3.2 21.5-5.1l8.8 23.1c-7.3 2.8-16.2 4.9-26.5 6.5zm37.7-17.2l19-16.4 16 18.9-18.6 16.1zm38.4-32.4l19.7-15.5 15.1 19.6-19.3 15.2zm39.7-30.6l20.4-14.7 14.2 20.3-19.9 14.3zm41.2-28.8c6.8-4.6 13.8-9.1 21.1-13.7l13.1 21-20.5 13.3zm42.5-26.7l21.9-12.5 12 21.7c-7.3 4-14.3 8-21.3 12.1zm44.1-24.3c7.4-3.8 15-7.5 22.6-11.1l10.6 22.4-21.9 10.7zm45.7-21.5c7.7-3.3 15.5-6.5 23.4-9.5l8.8 23.2c-7.6 2.9-15.1 5.9-22.5 9.1zm47.1-18c8-2.7 16.1-5.2 24.2-7.6l6.9 23.8-23.2 7.2zm48.8-14c8.2-1.9 16.5-3.7 24.9-5.2l4.3 24.4c-7.9 1.5-15.7 3.1-23.6 4.9zm50.1-8.9c8.4-1.1 16.9-1.8 25.4-2.3l1.4 24.7c-8 .5-15.9 1.2-23.9 2.2zm51-3c8.5.1 17 .4 25.6 1.1l-2 24.7c-7.9-.6-15.9-.9-23.8-1zm51.1 4.1a372.28 372.28 0 0 1 25.2 4.8l-5.6 24.1c-7.7-1.8-15.5-3.3-23.4-4.4zm50.1 11.6c8.1 2.5 16.1 5.4 24.2 8.7l-9.3 23c-7.4-3-14.9-5.7-22.4-8.1zm12.5 27.2l-.2-.3c-.7-1.5-4.4-9-11.3-20.7l21.4-12.5c8.2 14 12.3 22.5 12.4 22.8l-22.3 10.7" fill="#603"/><g fill="#909"><path d="M13239.6 12221.3c-168.2-256.1-220.9-550.3-310.7-837.8l43 24.4c-229.5 59.8-464.8 62.7-700.5 62.7-45.1 0-45.1-70 0-70 229.5 0 458.4-2 681.9-60.2 19-4.9 37.3 6.1 43.1 24.5 88 281.7 138.8 570.1 303.7 821.1 24.9 37.9-35.8 72.9-60.5 35.3"/><path d="M12941.2 11361.8c-210.6 61.7-441.2 19.2-626-95.7-38.3-23.7-3.1-84.3 35.3-60.4 169.6 105.3 378.7 145.3 572.1 88.6 43.4-12.7 61.9 54.9 18.6 67.5"/><path d="M12945 11389c-127.2-96-247.4-200.3-360.4-312.7-32-31.8 17.5-81.3 49.5-49.4 108.6 108 223.9 209.3 346.2 301.7 35.6 26.8.7 87.7-35.3 60.4m-89.4 817c-51.3-100.2-117.7-191.7-169-291.9-11-21.6-.7-42.9 21-51.4 122.6-48.3 259-38.8 388.2-43.1 111-3.6 215.5-19.9 289.2-109 70.6-85.4 115.7-196.3 157.2-297.8 39.5-96.7 73.1-195.6 108.7-293.7 15.2-42.1 82.9-23.9 67.5 18.6-74.9 206.8-139.1 439.3-277.6 614.4-173.8 219.9-485 87.7-714.6 178.1l20.9-51.4c51.3 100.2 117.7 191.7 169 291.8 20.5 40.1-39.9 75.6-60.5 35.4"/><path d="M13343.6 11779.6c46.5-203.9 73.8-411.1 60.2-620.5-2.9-45.1 67.1-44.8 70 0 14 215.3-14.9 429.5-62.7 639.1-10 44-77.5 25.4-67.5-18.6"/><path d="M13297.6 11798.2c-31.1-226.4-18.5-461.1-107.6-675.8-17.3-41.8 50.5-59.8 67.5-18.7 89.4 215.4 76.5 449.2 107.6 675.9 6 44.1-61.4 63.2-67.5 18.6"/></g></g></svg>