<svg xmlns="http://www.w3.org/2000/svg" xmlns:xlink="http://www.w3.org/1999/xlink" width="515.596" height="662.2" viewBox="0 0 136.418 175.207"><defs><clipPath id="A"><path d="M2136.76 11740.9c-24.06 0-46.97 27.4-31.72 52.9 85.37 142.5 188.34 272 295.64 398.2 40.56-5.2 81.42-8 122.3-8.3-117.02-147.7-233.4-296.1-362.96-432.4-6.94-7.3-15.16-10.4-23.25-10.4m558.24 14.2c-22.78 0-45.57 25.2-32.82 52.9 32.02 69.6 68.73 137.5 107.5 204.7l119.77 236.4c49.23 18.8 96.86 41.6 142.26 68.4-64.88-114-135.93-225.4-201.2-338.9-35.1-70-70.44-139.3-107.9-205.9h0c-7-12.5-17.3-17.6-27.62-17.6m-718.15 17c-16.57 0-32.53 9.2-34.73 25.3-.67 4.9-.05 10.4 2.25 16.6 60.6 161.2 157.64 296.1 269.47 420.6 25.2-8.4 50.74-15.8 76.5-22.1-21.62-23.3-42.86-47-63.5-71.1l69.64 69.6c26.6-6.3 53.45-11.5 80.47-15.6-129.75-127.1-255.56-257.9-364.97-403.5l-3.65-4.9c-7.66-10.3-19.73-14.9-31.5-14.9m960.5 26.9c-20.66 0-42.13 17.2-35.84 43.5 7.02 29.4 15.67 58.3 25.64 86.6 51.66 159.3 124.8 310 204.92 457.4 25.67 20.4 50.3 42.3 73.7 65.7-9.8-.4-19.5-.7-29.05-.7l-8.74.1 115.2 202.2c3.4 13.2 6.34 26.5 8.78 39.9-47.1-43.4-89.92-90.6-129.43-140.5h-5c-27.75 0-54.55 1.7-80.58 5.1 20.13 45.5 38.2 91.8 53.54 139.2-44.7-38.7-86.55-80.9-126.07-125.3-37.4 9.6-73.37 22.5-108.4 38.2l14.02 22-19.46-19.5c-41.53 19.1-81.78 42.1-121.68 68.1 57.73 63.6 113.06 129.3 164.7 198.5h0c8.17 10.9 19.24 15.5 29.98 15.5 23.92 0 46.12-23 30.46-50.9a1883.23 1883.23 0 0 0-49.73-83.2c26.18 23.4 52.95 46.3 80.47 68.5 7.74 6.3 16.28 9 24.42 9 24.02 0 44.52-23.8 30.56-51.4-14.35-28.3-29.5-56.2-45.26-83.8 43.78 42.4 90.3 81.9 140.23 117.4 5.74 4.1 11.67 5.9 17.37 5.9 20.93 0 38.9-23.9 34.04-45.4-5.43-24-11.6-47.7-18.48-71.1 32.15 32.1 66.3 62.5 102.84 90.8 7.6 5.9 16.93 8.8 25.93 8.8 10.92 0 21.37-4.2 27.7-12.8 6.64 9.2 17.9 13.8 29.05 13.8 15.12 0 30.05-8.4 32.97-25.2 7.04-40.4 10.92-81 12.2-121.8 20.84 48.7 43.1 96.8 66.7 144.4 6.13 12.4 16.42 17.6 27.05 17.6 18 0 36.97-14.9 38.17-35.2 2.08-35.3 2.36-70.9 1.07-106.5 39.8 77.4 83.76 152.5 133.7 224.1 8.07 11.6 19 16.8 29.62 16.8 16.92 0 33.06-13.1 35.6-34.4 1.65-13.9 2.82-27.8 3.54-41.8l59.8 130.9c5.87 12.5 15.96 17.7 26.48 17.7 18.1 0 37.43-15.4 38.74-35.4 1.25-19 1.88-38.1 1.94-57.2l75.7 174.9c5.63 12.9 15.5 18.2 25.83 18.2 19.2 0 40.07-18.3 38.74-40.6 1.53-5.5 1.52-11.9-.6-18.9l-7.8-25.5c-29.14-150.1-57.02-301.4-124.3-440-6.18-12.7-16.2-18-26.53-18-11.67 0-23.72 6.7-31.06 17.1-25.85-89.6-60.24-176.2-99.55-256.2-5.97-12.2-16.62-17.3-27.62-17.3-21.42 0-44.18 19.4-36.35 44.2 34.56 109.6 73.82 217.7 115.87 324.7 9.1 40.7 16.16 81.7 20.86 122.7l-71.53-168.3c-8.48-39.4-18.88-78.2-30.3-115.9-36.2-119.9-83.48-236.7-142.37-347.3-6.32-11.8-17.2-16.9-28.33-16.9-21.56 0-44 19-35.64 43.9 53.03 158.3 111.43 315 175.03 469.5 7.37 41.4 12.13 82.8 13.67 124-61.77-101.9-113.65-209.4-160.3-319.3-4.88-24.7-10.3-49.1-16.2-73.3-30.26-124.2-72.08-252.2-148.25-356.4-7.6-10.5-19.57-15.2-31.26-15.2-8.22 0-16.3 2.4-22.64 6.7l-14-54.6c-4.45-17.7-17-25.3-30.12-25.3-20.04 0-41.4 17.6-37.38 43.9h0a2793.12 2793.12 0 0 0 98.57 421.5c15.07 83.6 27.03 169.7 25.4 254.9l-20.92-36.6c-31.3-112.7-90.1-219-147.38-319.2-73.83-129.2-157.14-258.2-206.63-399.5a1656.07 1656.07 0 0 1-24.41-82.6h0c-4.66-17.4-17.98-24.9-31.66-24.9m481.92 617.1c-10.06-60.3-23.25-120.5-37.77-180.1 30.07 81.1 61.03 162.3 94.62 242.1 9.2 48.1 16.4 96.5 20.86 145.2-28.74-68-54.64-137.2-77.7-207.2m-925.63-588.5c-21.7 0-43.9 18.5-35 43.5 39.85 111.9 94.4 215.8 155.58 316 41.04 3.3 81.86 9.1 122.12 17.4-74.7-118-144.43-239.1-213.73-360.4-6.6-11.5-17.72-16.5-28.98-16.5m-682.06 15.8c-19.33 6.3-34.23 27.7-20.82 50.4 74.64 126.2 159.46 244.8 250.93 358.1-128.03-118.9-258.6-235-395.96-343.4h0c-7.95-6.3-16.35-9-24.26-9-27.03 0-48.24 31.4-25.25 58.5l357.3 426.1a621.69 621.69 0 0 1 54.25-43.9l-91.4-108.5 106.24 98.1c47.4-32.3 99.76-59.3 154.7-81.6-115.53-107.4-221.48-223.4-306.55-357.8-6.6 5.7-15.45 8.6-24.3 8.6-17.5 0-35-11.2-34.96-33.8l.05-21.8m-360.18 156.9c-29.06 0-54.43 35-26.6 57.7h0l132.68 110.1c110.85 96.3 216.32 198.4 319.47 302.9 17.2-24.8 36.73-47.9 58.16-69.3l-328.2-283.1c-43.3-37.7-87.44-74.4-132.6-110.1-7.28-5.8-15.22-8.2-22.9-8.2m-186.82 99.3c-27.34 0-49.48 31.8-25.5 58.4 147.42 163.1 318.17 298.1 494.33 426.6l70.03 60.9c5.42-27.8 13.07-54.1 22.72-79l-43.5-31.6c-164.26-143.7-325.13-291.9-494.07-426.4h0c-7.78-6.2-16.1-8.9-24-8.9m-114.67 142c-26.4 0-46.78 32.4-25.12 59.2 94.74 117.6 199.52 225.7 309.8 328.7l179.7 167.9-575.64-380.1c-5.68-3.9-11.55-5.7-17.23-5.7-27.035 0-49.582 39-25.183 60.7 96.763 86.1 192.133 174.3 287.133 263.1-112.3-85.1-230.38-161.1-359.005-218.1-5.585-2.5-11.136-3.6-16.425-3.6-2.176 0-4.305.2-6.37.6-2.74-.7-5.477-1.1-8.168-1.1-27.168 0-50.028 33.6-25.74 59.1l975.738 1002.9c-170.9-124.3-338.8-251.5-501.04-387.4-187.15-156.8-369.592-319.1-553.768-479.3-8.05-7-16.566-10-24.53-10-23.235 0-41.79 25.6-30.438 52.4 68.2 161.1 177.907 298.4 305.697 420.4 100.55 66.4 199.04 135.7 295.94 207.3 34.13 5 68.07 12.9 101.26 23.5-203.58-146.1-410.4-308.7-548.924-514.9 235.234 204.4 471.094 406.6 717.574 596.9 18.63 12.7 36.47 26.3 53.38 40.8l172.9 127.8c122.46 87.9 246.77 178.7 365.94 276-151.9-100.1-301.74-203.4-450.98-308 28.16 39.8 49.95 83.2 63.55 129.6 223.17 155 448.4 306.2 680.82 447.4 90.7 95.7 173.12 198.4 242.84 310.3 7.26 11.7 17.94 16.5 28.6 16.5 24.3 0 48.48-25.1 31.84-51.8-35.57-57.1-74.32-111.9-115.7-164.6 4.1 1.8 8.3 2.5 12.4 2.5 28.54 0 53.45-38.2 26.4-59.3-350.05-272.9-675.03-574.5-988.97-887.7 290.27 236.8 591.85 460.6 889.4 685.6 6.4 4.8 12.7 6.9 18.57 6.9 25.4 0 42.68-38.9 23.85-61.9-111.4-135.9-228.9-269.7-378.5-364.8-97.02-61.8-183.76-132.9-268.65-206.9 36.14 24.6 72.98 48.3 110.73 71.2l92.54 55.4c110.66 81.6 225 158.4 344.33 228.6 5.35 3.2 10.88 4.6 16.27 4.6 28.3 0 52.7-38.2 26.14-59.5-108.77-87.4-227.43-159.3-346.62-230.9-312.94-230.5-596.18-499.6-880.68-766l426.23 277.2c-20.52-48-27.62-101.8-26.82-156.6-99.46-85.8-195.23-176.8-290.9-266.5l-26.57-25.1c105.7 73 214.1 142.2 323.9 209.4l1-7.3c3.57-20.5 8.35-40.3 14.24-59.3l.48-5.2c-217.25-133.4-428.5-275.5-622.85-441.2h0c-8.03-6.8-16.48-9.7-24.4-9.7m702.2 1132.5c-121.8-97.9-241.92-197.8-359.12-300.8 105.48 83 209.64 167.5 309.96 256.8l49.16 44m1253.53-918.6c-10.3 1.2-20.47 2.6-30.52 4.3 17.68 12.5 34.92 25.7 51.7 39.6l-21.18-43.9m-346.84 232.2c-29.97 19.9-59.8 41.6-89.83 64.5 69.33 61 136.28 124.2 198.67 191.5 6.77 7.3 14.94 10.4 23.05 10.4 24.26 0 47.97-27.7 31.92-52.8-48.5-76-104.2-146.5-163.8-213.6m-127.3 93.8c-21.08 17.9-41.37 38.9-61.28 61.7 60.06 53.7 120.96 106.4 183.15 157.6h0c7.54 6.3 15.75 8.9 23.6 8.9 27.78 0 51.24-33 25.9-58.4l-171.37-169.8m-103.8 113.2l-49.5 63.2 25.5 20.6c1.67 2.9 3.92 5.6 6.82 8.1 12.4 10.5 26.02 19.4 39.18 28.9l13.13 10.1c1.6 1.3 3.22 2.5 4.83 3.8h0c.57.5 1.15.9 1.74 1.3 20.56 16 41.04 32.2 62.5 47 5.56 3.9 11.34 5.6 16.97 5.6 27.33 0 50.84-39.5 25.45-60.5-50.17-41.5-98.96-84.2-146.6-128.1m-63.38 80.7c-37.32 46.7-75.68 90.6-117.72 122.4l156.72 94.2c5.94 3.7 11.9 5.3 17.56 5.3 21.97 0 39.44-24 33.45-45.5 2.38.4 4.75.6 7.1.6 28.98 0 53.82-33.5 27.16-58.2-42.03-38.9-83.4-78.6-124.27-118.8m-271.63 193.3c-25.7 10-54.9 14.5-85.34 14.5-15.82 0-31.98-1.2-48.15-3.5 135.6 96.7 267.8 197.8 394.18 306.9h0c7.6 6.5 15.88 9.3 23.8 9.3 27.27 0 50.1-33.2 25.7-58.8-94.88-99.7-201.07-185.8-310.2-268.4"/></clipPath><linearGradient x1="823.931" y1="15485.6" x2="2995.361" y2="11885.6" spreadMethod="pad" id="B" xlink:href="#d"><stop offset="0" stop-color="red"/><stop offset=".036" stop-color="red"/><stop offset=".695" stop-color="#ff3"/><stop offset="1" stop-color="#ff3"/></linearGradient><clipPath id="C"><path d="M650.71 12941.5c-28.18 0-51.168 36.2-25.914 59.3l449.533 403.9c25.55-10 52-17.6 79.07-22.9l-217.357-194.2c93.107 59.7 184.407 122.1 274.197 186.5 13.84-1.1 27.72-1.6 41.7-1.6 27.66 0 55.56 2.1 83.3 6.1-96.9-71.6-195.4-140.9-295.94-207.3-120.794-79.8-244.53-155.3-372.1-225.4-5.492-3-11.1-4.4-16.5-4.4m-85.356 86.1c-28.468 0-51.906 35.3-26.273 59l45.606 42.8-17.477-12.1c-6.246-4.3-12.438-6.1-18.25-6.1-26.258 0-44.668 37.9-24.164 61.1 110.664 125.3 226.922 244.7 346.894 360.2 22.692-18.6 47.286-34.2 73.286-46.8 31.933-29.6 67.423-53 105.243-70.6l-2.38-2.4c-142.297-141.3-285.79-288.7-466.34-381.1-5.367-2.8-10.84-4-16.145-4m-101.128 328.5c-26.57 0-47.176 32.1-25.145 59 59.1 72.2 119.777 142.8 181.87 212 1.36-25.3 3.863-50.5 7.45-75.6h0c-3.05 91.5 49.282 133.6 126.06 149.4 11.617-31 25.734-59 42.012-84l-307.887-251.3c-8.004-6.7-16.445-9.5-24.36-9.5m-56.332 285c-26.793 0-50.118 34.6-25.954 59.7 94.63 98.4 197.497 187.5 303.618 272.8-20.65-42.2-36.137-86.8-46.887-132.8-70.75-61-139.977-124-207.23-189.5h0c-7.394-7.2-15.62-10.2-23.546-10.2m359.07 49l-7.836 11.7c9.516 1.8 19.39 3.2 29.562 4.3l-14.726-15.7-7-.3m10.32.5l20.528 16.3c10.535.9 21.36 1.5 32.42 1.7a238.05 238.05 0 0 1-15.609-15.3 1147.65 1147.65 0 0 0-37.34-2.7m1033.755 63.4c9.36 33.1 14.55 67.7 14.9 103.4l856 729.2c7.54 6.2 15.74 8.8 23.6 8.8 27.78 0 51.27-33.1 25.9-58.3-131.5-131-269.58-255.2-414.3-371.5-7.28-5.8-15.22-8.3-22.9-8.3-2.93 0-5.83.4-8.64 1l-474.57-404.3m-5.24 234.7c-10.24 32.5-24.57 65.6-43.38 99.1 213.3 9.5 388.6 165.3 428.08 369.4 168.86 138 337.57 276.3 512.8 406.2 5.23 3.9 10.93 5.6 16.6 5.6 24.32 0 48.06-31 31.28-53.4-252.94-337.9-630.7-553.5-945.4-826.9m-1428.448 9.1c-27.102 0-43.215 35.4-23.98 60.2 39.012 50.3 81.13 97.3 125.57 141.8 33.344-32.7 71.688-60.4 113.774-81.8-64.828-39.6-130.37-78.1-196.93-115-6.484-3.6-12.703-5.2-18.433-5.2m1210.748 115.9c-17.08 2.6-34.08 6-50.83 10.5l8.36 7.1c13.8-6.6 27.95-12.5 42.47-17.6m-110.77 31.7c-15.55 7-30.67 15.3-45.23 25-6.12 4.9-11.85 9.8-17.23 14.7l16.4 12.5a429.71 429.71 0 0 1 27.02-12c11.9-9.4 24.3-18.3 37.1-26.5l-18.06-13.7m-1097.908 66.2c-25.742 0-48.313 34.8-26.05 60.7l16.172 18.5c16.477-17 34.238-32.7 53.168-47l-19.84-21c-7.308-7.9-15.527-11.2-23.45-11.2m882.118 105.7c-14.46 4.4-31.08 7.6-50.6 9.4 8.7 17.9 16.28 36.6 22.62 55.7 11.55-20.1 24.57-39.3 38.95-57.4l-10.96-7.7m934.5 176.5a463.06 463.06 0 0 1 2.78 50.8c0 17.3-.96 34.4-2.83 51.2l457.37 390.8c7.5 6.5 15.7 9.3 23.6 9.3 27.5 0 51-33.9 25.9-58.8-159.24-158.6-330.6-304.1-506.82-443.3m-.9 109.1a455.41 455.41 0 0 1-17.31 79.1l17.77 16.4-18.38-14.5c-7.4 23.2-16.6 45.5-27.42 66.9l194 154.6c80.1 64.6 169.04 126.4 241.84 199.2h0c3.8 3.8 7.85 6.4 12 8.1 10.7 8.1 22 15.4 34.24 22.2 6 3.3 11.96 4.8 17.57 4.8 27.55 0 46.88-35.4 24.85-59.8-151.45-167.7-312.76-325-479.16-477m-1038.9 209c-19.82 24.7-42.15 47.4-66.6 67.5 53.42 46 104.52 94.2 157.6 141.1 29.98 26.5 61.08 51.4 92.86 75.5-103.26-56.9-204.88-116.4-305.76-177.3-16.43 17.9-34.26 34.4-53.324 49.5 120.454 72.8 241.974 143.8 366.034 210.4 235.95 126.8 437.43 310.9 672.3 438.2 41.97 26.3 86.56 48.6 135.17 64.5 4.3 1.4 8.3 2 12.03 2 34.33 0 43.17-54.6 6.58-69.5h0c-41.6-17.1-81.98-36.6-121.4-58-112.9-71-205.87-175.4-310-257.4-138.57-109.1-294.5-196.3-427.83-312 334.96 194.5 679.66 376.2 989.4 605.6 6.27 4.7 12.5 6.7 18.36 6.7 25.7 0 43.93-38.7 24.06-61.6-127.7-147.7-303.48-241.7-468.44-341-67.7-40.7-131.53-85.5-193.3-132.7-17.47 2-35.26 3.1-53.28 3.1-154.5 0-291.1-76.6-373.87-193.9l-100.6-60.7m912.92 51.7c-19.93 20.4-41.76 39-65.2 55.5 95.44 69.9 189.57 141.5 281.6 215.8l196.36 165.9c7.36 6.3 15.44 9 23.25 9 28.26 0 52.86-34.8 26.25-58.5h0c-64.18-57-129.74-112.2-196.4-166l-265.87-221.7m-102.74 79.2a465.93 465.93 0 0 1-52.43 25.4c-4.37 3.5-8.8 6.8-13.3 10.1l24.3 18.6-26.9-16.7c-20.9 15.1-43.1 28.5-66.42 39.9 196.12 120.5 390.38 243.9 564.56 395h0c7.78 6.8 16.14 9.6 24.06 9.6 26.8 0 48.5-32.8 25.44-59.1-141.74-161.4-309.32-293.4-479.3-422.8m-988.47 27.8c-37.52 29.1-79.69 52.5-125.227 68.9L1239 15295.9c-141.82-86.4-284.74-170.5-434.264-242-34.344 8.2-70.183 12.6-107.055 12.6-44.086 0-86.707-6.2-127.043-17.9 306.223 308.7 788.902 353.7 1120.612 622.7-313.88-122.9-613.5-279.3-909.76-439.7h0c-5.914-3.2-11.72-4.6-17.187-4.6-31.215 0-51.46 45.8-18.145 65 208.18 120.3 422.072 234.4 620.882 370.2l-103.9-37.9c-106.38-41.3-223.66-87.8-303.142-173-7.172-7.6-15.344-10.9-23.28-10.9-26.204 0-49.82 35.1-26.22 60.4 81.512 87.4 198.502 137.6 307.632 180.6 115.8 45.7 235.53 81.1 350.67 128.4 3.65 1.5 7.24 2.2 10.72 2.2 27.12 0 46.77-41.5 23.34-60.7-37.77-30.8-76.33-60.4-115.6-89.1 111.2 48.4 223.94 93.3 338.68 133.4 4.1 1.4 7.97 2 11.6 2 28.03 0 41.06-38.9 22.46-60.5l-11.12-12.7 54.42 24.8a39.55 39.55 0 0 0 16.1 3.4c28.67 0 50.63-32.5 26.32-58.4l-9.95-10.5 81.8 36.9c6 2.6 11.78 3.8 17.15 3.8 31.7 0 49.26-41 18.18-64.2-340.76-254.5-719.4-456.3-1074.96-689.6m137.04 330.7c-134.066-57-264.898-118.7-380.094-203.6 130.887 59.7 256.43 129.9 380.094 203.6m613 284c-78.27-41.9-155.06-86.5-231.3-132.2 71.76 41.8 144.27 82.2 217.73 120.9l13.57 11.3"/></clipPath><linearGradient x1="777.52" y1="15457.6" x2="2948.95" y2="11857.6" spreadMethod="pad" id="D" xlink:href="#d"><stop offset="0" stop-color="red"/><stop offset=".036" stop-color="red"/><stop offset=".695" stop-color="#ff3"/><stop offset="1" stop-color="#ff3"/></linearGradient><clipPath id="E"><path d="M1335.25 13378.6c154.5 114.1 304.98 234 453.26 356.7l21.44 15c-13.6-46.4-35.4-89.8-63.55-129.6l-161-113.3-148.9-105.3c-33.2-10.6-67.13-18.5-101.26-23.5m269.9 105.5l53.38 40.8c-16.9-14.5-34.75-28.1-53.38-40.8"/></clipPath><linearGradient x1="823.931" y1="15485.6" x2="2995.361" y2="11885.6" spreadMethod="pad" id="F" xlink:href="#d"><stop offset="0" stop-color="#b90000"/><stop offset=".036" stop-color="#b90000"/><stop offset=".695" stop-color="#b9a822"/><stop offset="1" stop-color="#b9a822"/></linearGradient><clipPath id="G"><path d="M1251.94 13372.5c-13.98 0-27.86.5-41.7 1.6l148.2 109.1c129.78 47.7 247.46 135.6 316.26 248.9l151.25 125.3c-.36-35.7-5.55-70.3-14.9-103.4l-22.53-18.7c-148.28-122.7-298.77-242.6-453.26-356.7-27.75-4-55.65-6.1-83.3-6.1m-98.54 9.3c-27.06 5.3-53.52 12.9-79.07 22.9l43.56 39.1a510.07 510.07 0 0 1 24.78-.6c28.56 0 57.5 2.2 86.42 6.6l-75.7-68m-103.18 33.3c-37.82 17.6-73.3 41-105.243 70.6 42.668-20.6 89.203-33.4 137.633-39.1l-32.4-31.5m686.97 512.6c2.82 48.1-2.88 98.4-18.72 150.3l-18.46-14.6.35 1.5 27.9 22.6 13.3-.2c7 0 13.94.1 20.86.5 18.8-33.5 33.14-66.6 43.38-99.1l-13.75-12-54.86-49"/></clipPath><linearGradient x1="777.52" y1="15457.6" x2="2948.95" y2="11857.6" spreadMethod="pad" id="H" xlink:href="#d"><stop offset="0" stop-color="#b90000"/><stop offset=".036" stop-color="#b90000"/><stop offset=".695" stop-color="#b9a822"/><stop offset="1" stop-color="#b9a822"/></linearGradient><clipPath id="I"><path d="M814.625 13693.3a238.05 238.05 0 0 0 15.609 15.3c4.36.1 8.746.1 13.172.1 21.15 0 43.05-1 65.293-2.7-.922-.7-1.855-1.5-2.773-2.2-30.086-4.4-60.535-8-91.3-10.5"/></clipPath><linearGradient x1="777.52" y1="15457.6" x2="2948.95" y2="11857.6" spreadMethod="pad" id="J" xlink:href="#d"><stop offset="0" stop-color="#b72424"/><stop offset=".036" stop-color="#b72424"/><stop offset=".695" stop-color="#b76e33"/><stop offset="1" stop-color="#b76e33"/></linearGradient><clipPath id="K"><path d="M592.715 14118c-42.086 21.4-80.43 49.1-113.774 81.8l5.067 5c50.828-26.9 107.32-44.5 167.246-50.5l-58.54-36.3m618.215 208.7c-2 .2-4.03.3-6.1.5-16.2 8.6-33.16 13.7-50.6 15.9l68.82 58.8c3.34-6.6 6.85-13.1 10.5-19.5-6.34-19.1-13.9-37.8-22.62-55.7m-74.82 152.1c9.3 31.3 15.32 64 17.7 97.7l20 13.9c1.08-26.8 4.47-53 9.97-78.4l-47.68-33.2m18.15 156.1c-1.46 26.3-5.15 52.1-10.9 77.1l52.74 39.8c-10.63-32.4-17.74-66.4-20.86-101.6l-21-15.3m-35.8 153.7a453.21 453.21 0 0 1-43.12 78.5l14.3 12.3c24.45-20.1 46.78-42.8 66.6-67.5l-37.8-23.3"/></clipPath><clipPath id="L"><path d="M1762.42 14087.8l-10.82 18.5 377.6 300.8 61.3 50.1c-39.5-204.1-214.77-359.9-428.08-369.4m-54.28 12.3l1.1 5.7c-39.42 0-80.52 1.6-121.14 7.9-14.52 5.1-28.67 11-42.47 17.6l28.42 24.1a460.69 460.69 0 0 1 56.66-3.5c66.42 0 129.52 14.2 186.47 39.7l-109.04-91.5m-212.75 59c-12.8 8.2-25.2 17.1-37.1 26.5 16.1-6.6 32.6-12.2 49.56-17l-12.46-9.5m510.22 188.2c50.3 71.9 80.46 158.9 82.3 252.8l89.93 81.9a455.41 455.41 0 0 0 17.31-79.1l-120.83-108.6 121.7 101.5c1.87-16.8 2.83-33.9 2.83-51.2a463.06 463.06 0 0 0-2.78-50.8l-41.5-32.6-148.95-113.9m82.35 266.7c-.28 28-3.08 55.3-8.16 81.8l70 55c10.83-21.4 20-43.7 27.42-66.9l-89.26-69.9m-57.47 217.4c-14.1 25.3-30.56 49.2-49.04 71.2l22.52 16.5c23.44-16.5 45.27-35.1 65.2-55.5l-38.68-32.2m-76.9 101.6c-12.5 12.5-25.72 24.3-39.58 35.2a465.93 465.93 0 0 0 52.43-25.4l-12.85-9.8"/></clipPath><clipPath id="M"><path d="M1741.56 14087.3c-4.44 0-8.9.1-13.3.2l23.34 18.8c3.76-6.2 7.37-12.4 10.82-18.5-6.92-.4-13.87-.5-20.86-.5"/></clipPath><linearGradient x1="777.52" y1="15457.6" x2="2948.95" y2="11857.6" spreadMethod="pad" id="N" xlink:href="#d"><stop offset="0" stop-color="#7e0000"/><stop offset=".036" stop-color="#7e0000"/><stop offset=".695" stop-color="#7e7217"/><stop offset="1" stop-color="#7e7217"/></linearGradient><clipPath id="O"><path d="M4468.53 13139.4l-42.86-228.5c-8.7-44.1 58.5-62.9 67.5-18.7l42.86 200-68.75 9.3c-1.65-43.2-12.63-85.2-14.3-128.5-1.72-45.2 68.28-45 70 0 1.65 43.2 12.64 85.3 14.3 128.5 1.5 39.2-60.84 48.3-68.75 9.4l-42.86-200 67.5-18.7 42.86 228.6c8.7 44.1-58.76 62.9-67.5 18.6z"/></clipPath><linearGradient x1="2508.61" y1="16285.6" x2="4680.12" y2="12685.46" spreadMethod="pad" id="P" xlink:href="#d"><stop offset="0" stop-color="red"/><stop offset=".036" stop-color="red"/><stop offset=".695" stop-color="#ff3"/><stop offset="1" stop-color="#ff3"/></linearGradient><clipPath id="Q"><path d="M4438.7 13101.5v-100c0-45.3 67.74-44.8 70 0 .3 6.2-1.78-9.9-.16-1.6.57 2.9 1.32 5.8 2.05 8.6 1.8 7.1 3.98 14.1 6.2 21.1 2.26 7.1 4.8 14.1 7.45 21.1 3.87 10.1-2.64-5.6 1.2 2.7 4.8 10.4 5.8 1-7.2-4.9l-26.97-3.5.58-.1-20.9 16c-2.86 15.2-4.1 19.2-3.7 12.1 1.47-45 71.47-45.2 70 0-.7 21-13.47 40.8-36.67 40.8-19.04 0-30.95-14.3-37.9-30.1-11.06-25.3-22.6-54.3-24-82.2h70v100c0 45.2-70 45.2-70 0z"/></clipPath><linearGradient x1="2523.99" y1="16294.4" x2="4695.28" y2="12694.62" spreadMethod="pad" id="R" xlink:href="#d"><stop offset="0" stop-color="red"/><stop offset=".036" stop-color="red"/><stop offset=".695" stop-color="#ff3"/><stop offset="1" stop-color="#ff3"/></linearGradient><clipPath id="S"><path d="M697.69 14151.9c-15.675 0-31.168.8-46.437 2.4-59.926 6-116.418 23.6-167.246 50.5-7.422 4-14.742 8.1-21.918 12.4-13.602 8.2-26.75 17.1-39.38 26.6-18.93 14.3-36.69 30-53.168 47-79.918 82.3-129.13 194.6-129.13 318.4 0 208.5 139.5 384.4 330.234 439.4 40.336 11.7 82.957 17.9 127.043 17.9 36.872 0 72.71-4.4 107.055-12.6 16.356-3.9 32.37-8.7 47.988-14.4 45.536-16.4 87.707-39.8 125.227-68.9l3.055-2.4c19.064-15.1 36.894-31.6 53.324-49.5l.58-.6c14.63-16 28.15-33 40.42-51a453.21 453.21 0 0 0 43.12-78.5 453.87 453.87 0 0 0 24.91-76.6c5.74-25 9.43-50.8 10.9-77.1.47-8.5.7-17.1.7-25.7 0-11-.4-21.9-1.15-32.7-2.4-33.7-8.42-66.4-17.7-97.7-16.16-54.4-42.2-104.6-76.02-148.5-80.32-28.4-161.766-95.3-223.172-156.8-43.902-14-90.672-21.6-139.227-21.6m6.508 544.3c-24.484-35.1-38.844-77.8-38.844-123.9 0-119.9 97.192-217.1 217.1-217.1s217.095 97.2 217.095 217.1-97.2 217.1-217.095 217.1c-39.05 0-75.687-10.3-107.343-28.4-35.153-4.4-63.497-30.7-70.903-64.8"/></clipPath><radialGradient fx="0" fy="0" cx="0" cy="0" r="1" gradientTransform="matrix(457.275,0,0,-457.275,697.69,14609.2)" spreadMethod="pad" id="T" xlink:href="#d"><stop offset="0" stop-color="#fff"/><stop offset=".741" stop-color="#fff"/><stop offset="1" stop-color="#cff"/></radialGradient><clipPath id="U"><path d="M704.2 14696.2c7.406 34.1 35.75 60.4 70.903 64.8a218.78 218.78 0 0 1-70.903-64.8"/></clipPath><radialGradient fx="0" fy="0" cx="0" cy="0" r="1" gradientTransform="matrix(457.275,0,0,-457.275,697.69,14609.2)" spreadMethod="pad" id="V" xlink:href="#d"><stop offset="0" stop-color="#fff"/><stop offset=".741" stop-color="#fff"/><stop offset="1" stop-color="#eff"/></radialGradient><clipPath id="W"><path d="M1630.7 14151.9a460.69 460.69 0 0 0-56.66 3.5c-22.6 2.8-44.74 7.3-66.2 13.2-16.95 4.8-33.47 10.4-49.56 17a429.71 429.71 0 0 0-27.02 12c-22.22 10.8-43.46 23.3-63.5 37.5-24.96 29.4-45.58 55.2-80.48 72.2-5.07 5.7-10.02 11.6-14.8 17.7-14.38 18.1-27.4 37.3-38.95 57.4-3.65 6.4-7.16 12.9-10.5 19.5-17.55 34.4-30.86 71.3-39.26 110.1-5.5 25.4-8.9 51.6-9.97 78.4a467.8 467.8 0 0 0-.38 18.8c0 13.8.6 27.5 1.8 41 3.12 35.2 10.23 69.2 20.86 101.6.12.4.23.7.35 1.1 14.25 43.1 34.73 83.3 60.38 119.7 82.78 117.3 219.38 193.9 373.87 193.9 18.02 0 35.8-1.1 53.28-3.1 52.44-6.1 102.2-21 147.68-43.3 23.32-11.4 45.53-24.8 66.42-39.9.87-.6 1.74-1.2 2.6-1.9 4.5-3.3 8.93-6.6 13.3-10.1 13.86-10.9 27.08-22.7 39.58-35.2 9.74-9.7 19.03-19.8 27.87-30.4 18.48-22 34.94-45.9 49.04-71.2a454.31 454.31 0 0 0 49.31-135.6c5.08-26.5 7.88-53.8 8.16-81.8l.03-4.8-.1-9.1c-1.83-93.9-32-180.9-82.3-252.8-47.28-67.5-112.37-121.7-188.43-155.7-56.95-25.5-120.05-39.7-186.47-39.7m6.52 544.3c-24.5-35.1-38.85-77.8-38.85-123.9 0-119.9 97.2-217.1 217.1-217.1s217.1 97.2 217.1 217.1-97.2 217.1-217.1 217.1c-39.05 0-75.7-10.3-107.35-28.4-35.15-4.4-63.5-30.7-70.9-64.8"/></clipPath><radialGradient fx="0" fy="0" cx="0" cy="0" r="1" gradientTransform="matrix(457.275,0,0,-457.275,1630.71,14609.2)" spreadMethod="pad" id="X" xlink:href="#d"><stop offset="0" stop-color="#fff"/><stop offset=".741" stop-color="#fff"/><stop offset="1" stop-color="#cff"/></radialGradient><clipPath id="Y"><path d="M1637.23 14696.2c7.4 34.1 35.74 60.4 70.9 64.8-28.18-16.1-52.42-38.3-70.9-64.8"/></clipPath><radialGradient fx="0" fy="0" cx="0" cy="0" r="1" gradientTransform="matrix(457.275,0,0,-457.275,1630.71,14609.2)" spreadMethod="pad" id="Z" xlink:href="#d"><stop offset="0" stop-color="#fff"/><stop offset=".741" stop-color="#fff"/><stop offset="1" stop-color="#eff"/></radialGradient><clipPath id="a"><path d="M2522.97 12183.7c-40.87.3-81.73 3.1-122.3 8.3l80.67 93.7c10.17-.3 20.32-.4 30.5-.4a1018.04 1018.04 0 0 1 95.67 4.5l-84.54-106.1m91.26 3.4c23.33 38.2 47.63 75.8 72.45 113.2 45.55 7.9 90.5 19 134.43 33.1-.13-.2-.25-.4-.38-.5-28.94-42.3-57-85.2-84.38-128.4-40.26-8.3-81.08-14.1-122.12-17.4m-237.27 8.3c-27.02 4.1-53.86 9.3-80.47 15.6l84.8 82.7c29.65-3.9 59.47-6.4 89.32-7.6l-93.64-90.7m-86.62 17.1c-25.76 6.3-51.3 13.7-76.5 22.1 23.2 25.8 47.06 51.2 71.33 76.2 27.97-6.4 56.26-11.6 84.66-15.6-26.8-27.1-53.42-54.6-79.5-82.7m-113 35.7c-54.95 22.3-107.32 49.3-154.7 81.6l58.8 55.3c31.54-16.4 64.46-30.9 98.22-43.8 24.87-8.7 50.05-16.4 75.52-23.1l-77.84-70m712.1.9c26.25 49.8 53.33 99 81.93 147.1 35.9 18.9 70.58 40 103.76 63.6 10.05-1.7 20.23-3.1 30.52-4.3-23.15-46.6-48.07-92.5-73.95-138-45.4-26.8-93.03-49.6-142.26-68.4m-881.66 91.1a621.69 621.69 0 0 0-54.25 43.9l43.86 51.5c19.16-13.3 39.15-25.8 59.84-37.4l-49.45-58m1124.3 46.3l35.9 65.1 8.74-.1c9.56 0 19.26.3 29.05.7-23.4-23.4-48.03-45.3-73.7-65.7m-1196.97 15.2c-21.43 21.4-40.95 44.5-58.16 69.3l35.34 36c22.08-22.5 46.27-43.1 72.13-62.1l-49.3-43.2m-108.94 164.8c-9.65 24.9-17.3 51.2-22.72 79l9.45 8.1c10.54-24.6 23.06-47.9 37.34-69.8l-24.07-17.3m-29 126l-.48 5.2 1.45-4.6c-.3-.2-.66-.4-.97-.6"/></clipPath><linearGradient x1="823.931" y1="15485.6" x2="2995.361" y2="11885.6" spreadMethod="pad" id="b" xlink:href="#d"><stop offset="0" stop-color="#b00000"/><stop offset=".036" stop-color="#b00000"/><stop offset=".695" stop-color="#b09c1f"/><stop offset="1" stop-color="#b09c1f"/></linearGradient><linearGradient id="c" x1="777.52" y1="15457.6" x2="2948.95" y2="11857.6" spreadMethod="pad" xlink:href="#d"><stop offset="0" stop-color="#ad0000"/><stop offset=".036" stop-color="#ad0000"/><stop offset=".695" stop-color="#adad23"/><stop offset="1" stop-color="#adad23"/></linearGradient><linearGradient id="d" gradientUnits="userSpaceOnUse"/></defs><g transform="matrix(.035278 0 0 -.035278 -8.480981 557.81183)"><path d="M2026.17 10991.9c-1.3 0-2.6.1-3.92.2.64 3.5.7 7.1.24 10.7 1.67 15.1-5.62 30.1-25.06 33.9l-7.03 1.3c.57 8-1.9 15.9-8.37 22.1-30.47 243.2-39.8 488.8-40.05 733.8 0 1.2.05 2.4.14 3.5 2.2-16.1 18.16-25.3 34.73-25.3 11.76 0 23.83 4.6 31.5 14.9l3.65 4.9c.32-256 10.57-512.8 44.56-766.7 2.97-22.3-12.94-33.3-30.38-33.3m-617-146.4c-37.3 0-50.5 59-9.7 68.6l361.38 81.3c73.07-5.2 145.92-12.4 217.95-26.2 2.6-.5 5.1-.8 7.5-.8 16.38 0 28.38 10.9 33.56 24l2.36-.3c-2-11-9.8-20.4-24.82-22.9-194.77-32.9-387.13-77.4-579.32-122.6-3.1-.7-6.1-1.1-8.93-1.1" fill="#bbafa7"/><path d="M2022.25 10992.1l-2.36.3c1.33 3.4 2.2 6.9 2.6 10.4.46-3.6.4-7.2-.24-10.7" fill="#8f7c6f"/><path d="M1760.87 10995.4l-99.23 6.4c66.7 13.7 133.56 26.5 200.73 37.8l38.12-16.8-139.62-27.4m-332.78 27c-43.23 6.1-86.23 14-128.86 24.7-25.12 6.4-29.7 31.3-20.75 49.4 116.27-17.9 234.4-21.4 351.93-29.8l-202.32-44.3" fill="#bbafa7"/><path d="M2022.5 11002.8c-2 15.9-14 31.7-32.2 34.1l.1 1.1 7.03-1.3c19.44-3.8 26.73-18.8 25.06-33.9m-36.16-34.4c-2.4 0-4.92.3-7.5.8-72.03 13.8-144.88 21-217.95 26.2l139.62 27.4 36.55-16.7c5.4-2.5 10.72-3.6 15.77-3.6 15 0 27.73 9.8 33.82 22.1 2.84-19.1 17.84-29.9 33.26-32.2-5.18-13.1-17.18-24-33.56-24" fill="#8f7c6f"/><path d="M2019.9 10992.4c-15.42 2.3-30.42 13.1-33.26 32.2 1.96 3.9 3.23 8.1 3.67 12.3 18.2-2.4 30.2-18.2 32.2-34.1-.4-3.5-1.27-7-2.6-10.4" fill="#735a4a"/><path d="M1984.72 11039c-32.15 5.9-64.47 10.4-96.9 14.1 2 3.1 3.3 6.6 3.97 10.3 1.3-.1 2.62-.2 3.92-.2 14.93 0 28.73 8.1 30.54 24.3l46.1-20.9c3.9-1.9 7.1-4 9.66-6.5l2.7-21.1m-300.95 92.5l-47.7 3.6c-88.65 38.3-175.9 79.2-258.1 129.6 99.6-48.9 203.4-89.9 305.8-133.2m-270.45 193.7c-16.96 8.3-33.8 16.9-50.48 25.7h.92c5.76 0 11.92-1.8 18.14-5.8 10.4-6.8 20.86-13.5 31.42-19.9" fill="#a08f84"/><path d="M1990.4 11038l-5.68 1-2.7 21.1c6.48-6.2 8.94-14.1 8.37-22.1m-89.9-15.2l-38.12 16.8 4.6.8c10.03 1.7 16.83 6.5 20.85 12.7 32.42-3.7 64.74-8.2 96.9-14.1l.24-1.8c-2 0-4.04-.2-6.14-.5l-78.33-13.9" fill="#7e6859"/><path d="M1990.3 11036.9c-1.55.2-3.15.3-4.78.3h-.56l-.24 1.8 5.68-1-.1-1.1m-37.5-34.4c-5.05 0-10.37 1.1-15.77 3.6l-36.55 16.7 78.33 13.9c2.1.3 4.15.5 6.14.5l1.6-12c.03-.2.05-.4.08-.6-6.1-12.3-18.82-22.1-33.82-22.1" fill="#694e3d"/><path d="M1986.63 11024.6l-1.67 12.6h.56c1.63 0 3.23-.1 4.78-.3-.44-4.2-1.7-8.4-3.67-12.3" fill="#5a3e2b"/><g fill="#a08f84"><path d="M3336.3 11068.2c-3 0-6.16.4-9.46 1.2-200.22 50.7-398.16 127.5-577.45 230.4-1.43.8-2.85 1.6-4.3 2.5-5.3 14.8-8.46 30.1-8.97 46-.73 22.5-18.63 33.8-36.14 33.8-17 0-33.64-10.6-33.88-32-140.74 90.2-274.5 205-340.57 359.3-12.04 28.1 12.5 53.7 34.84 53.7 10.24 0 20.03-5.3 25.6-18.4 77.98-182 254.43-306.2 422.92-398 168.9-92 350.1-162.6 536.56-209.8 40.44-10.2 27.62-68.7-9.16-68.7"/><path d="M3225.54 10900.9a36.78 36.78 0 0 0-10.09 1.4c-123.44 34.1-245.36 95.9-348.9 170.7-90.33 65.3-196.48 154.4-200.4 275.3-.02.6-.03 1.2-.02 1.8a2000.28 2000.28 0 0 1 78.99-47.8c29.3-82.2 123.33-148.3 189.2-191 92.38-59.9 193.2-112.1 299.74-141.5 39.94-11 27.58-68.9-8.52-68.9"/></g><path d="M2745.1 11302.3a2000.28 2000.28 0 0 0-78.99 47.8c.24 21.4 16.88 32 33.88 32 17.5 0 35.4-11.3 36.14-33.8.5-15.9 3.68-31.2 8.97-46" fill="#715847"/><g clip-path="url(#A)"><path d="M2136.76 11740.9c-24.06 0-46.97 27.4-31.72 52.9 85.37 142.5 188.34 272 295.64 398.2 40.56-5.2 81.42-8 122.3-8.3-117.02-147.7-233.4-296.1-362.96-432.4-6.94-7.3-15.16-10.4-23.25-10.4m558.24 14.2c-22.78 0-45.57 25.2-32.82 52.9 32.02 69.6 68.73 137.5 107.5 204.7l119.77 236.4c49.23 18.8 96.86 41.6 142.26 68.4-64.88-114-135.93-225.4-201.2-338.9-35.1-70-70.44-139.3-107.9-205.9h0c-7-12.5-17.3-17.6-27.62-17.6m-718.15 17c-16.57 0-32.53 9.2-34.73 25.3-.67 4.9-.05 10.4 2.25 16.6 60.6 161.2 157.64 296.1 269.47 420.6 25.2-8.4 50.74-15.8 76.5-22.1-21.62-23.3-42.86-47-63.5-71.1l69.64 69.6c26.6-6.3 53.45-11.5 80.47-15.6-129.75-127.1-255.56-257.9-364.97-403.5l-3.65-4.9c-7.66-10.3-19.73-14.9-31.5-14.9m960.5 26.9c-20.66 0-42.13 17.2-35.84 43.5 7.02 29.4 15.67 58.3 25.64 86.6 51.66 159.3 124.8 310 204.92 457.4 25.67 20.4 50.3 42.3 73.7 65.7-9.8-.4-19.5-.7-29.05-.7l-8.74.1 115.2 202.2c3.4 13.2 6.34 26.5 8.78 39.9-47.1-43.4-89.92-90.6-129.43-140.5h-5c-27.75 0-54.55 1.7-80.58 5.1 20.13 45.5 38.2 91.8 53.54 139.2-44.7-38.7-86.55-80.9-126.07-125.3-37.4 9.6-73.37 22.5-108.4 38.2l14.02 22-19.46-19.5c-41.53 19.1-81.78 42.1-121.68 68.1 57.73 63.6 113.06 129.3 164.7 198.5h0c8.17 10.9 19.24 15.5 29.98 15.5 23.92 0 46.12-23 30.46-50.9a1883.23 1883.23 0 0 0-49.73-83.2c26.18 23.4 52.95 46.3 80.47 68.5 7.74 6.3 16.28 9 24.42 9 24.02 0 44.52-23.8 30.56-51.4-14.35-28.3-29.5-56.2-45.26-83.8 43.78 42.4 90.3 81.9 140.23 117.4 5.74 4.1 11.67 5.9 17.37 5.9 20.93 0 38.9-23.9 34.04-45.4-5.43-24-11.6-47.7-18.48-71.1 32.15 32.1 66.3 62.5 102.84 90.8 7.6 5.9 16.93 8.8 25.93 8.8 10.92 0 21.37-4.2 27.7-12.8 6.64 9.2 17.9 13.8 29.05 13.8 15.12 0 30.05-8.4 32.97-25.2 7.04-40.4 10.92-81 12.2-121.8 20.84 48.7 43.1 96.8 66.7 144.4 6.13 12.4 16.42 17.6 27.05 17.6 18 0 36.97-14.9 38.17-35.2 2.08-35.3 2.36-70.9 1.07-106.5 39.8 77.4 83.76 152.5 133.7 224.1 8.07 11.6 19 16.8 29.62 16.8 16.92 0 33.06-13.1 35.6-34.4 1.65-13.9 2.82-27.8 3.54-41.8l59.8 130.9c5.87 12.5 15.96 17.7 26.48 17.7 18.1 0 37.43-15.4 38.74-35.4 1.25-19 1.88-38.1 1.94-57.2l75.7 174.9c5.63 12.9 15.5 18.2 25.83 18.2 19.2 0 40.07-18.3 38.74-40.6 1.53-5.5 1.52-11.9-.6-18.9l-7.8-25.5c-29.14-150.1-57.02-301.4-124.3-440-6.18-12.7-16.2-18-26.53-18-11.67 0-23.72 6.7-31.06 17.1-25.85-89.6-60.24-176.2-99.55-256.2-5.97-12.2-16.62-17.3-27.62-17.3-21.42 0-44.18 19.4-36.35 44.2 34.56 109.6 73.82 217.7 115.87 324.7 9.1 40.7 16.16 81.7 20.86 122.7l-71.53-168.3c-8.48-39.4-18.88-78.2-30.3-115.9-36.2-119.9-83.48-236.7-142.37-347.3-6.32-11.8-17.2-16.9-28.33-16.9-21.56 0-44 19-35.64 43.9 53.03 158.3 111.43 315 175.03 469.5 7.37 41.4 12.13 82.8 13.67 124-61.77-101.9-113.65-209.4-160.3-319.3-4.88-24.7-10.3-49.1-16.2-73.3-30.26-124.2-72.08-252.2-148.25-356.4-7.6-10.5-19.57-15.2-31.26-15.2-8.22 0-16.3 2.4-22.64 6.7l-14-54.6c-4.45-17.7-17-25.3-30.12-25.3-20.04 0-41.4 17.6-37.38 43.9h0a2793.12 2793.12 0 0 0 98.57 421.5c15.07 83.6 27.03 169.7 25.4 254.9l-20.92-36.6c-31.3-112.7-90.1-219-147.38-319.2-73.83-129.2-157.14-258.2-206.63-399.5a1656.07 1656.07 0 0 1-24.41-82.6h0c-4.66-17.4-17.98-24.9-31.66-24.9m481.92 617.1c-10.06-60.3-23.25-120.5-37.77-180.1 30.07 81.1 61.03 162.3 94.62 242.1 9.2 48.1 16.4 96.5 20.86 145.2-28.74-68-54.64-137.2-77.7-207.2m-925.63-588.5c-21.7 0-43.9 18.5-35 43.5 39.85 111.9 94.4 215.8 155.58 316 41.04 3.3 81.86 9.1 122.12 17.4-74.7-118-144.43-239.1-213.73-360.4-6.6-11.5-17.72-16.5-28.98-16.5m-682.06 15.8c-19.33 6.3-34.23 27.7-20.82 50.4 74.64 126.2 159.46 244.8 250.93 358.1-128.03-118.9-258.6-235-395.96-343.4h0c-7.95-6.3-16.35-9-24.26-9-27.03 0-48.24 31.4-25.25 58.5l357.3 426.1a621.69 621.69 0 0 1 54.25-43.9l-91.4-108.5 106.24 98.1c47.4-32.3 99.76-59.3 154.7-81.6-115.53-107.4-221.48-223.4-306.55-357.8-6.6 5.7-15.45 8.6-24.3 8.6-17.5 0-35-11.2-34.96-33.8l.05-21.8m-360.18 156.9c-29.06 0-54.43 35-26.6 57.7h0l132.68 110.1c110.85 96.3 216.32 198.4 319.47 302.9 17.2-24.8 36.73-47.9 58.16-69.3l-328.2-283.1c-43.3-37.7-87.44-74.4-132.6-110.1-7.28-5.8-15.22-8.2-22.9-8.2m-186.82 99.3c-27.34 0-49.48 31.8-25.5 58.4 147.42 163.1 318.17 298.1 494.33 426.6l70.03 60.9c5.42-27.8 13.07-54.1 22.72-79l-43.5-31.6c-164.26-143.7-325.13-291.9-494.07-426.4h0c-7.78-6.2-16.1-8.9-24-8.9m-114.67 142c-26.4 0-46.78 32.4-25.12 59.2 94.74 117.6 199.52 225.7 309.8 328.7l179.7 167.9-575.64-380.1c-5.68-3.9-11.55-5.7-17.23-5.7-27.035 0-49.582 39-25.183 60.7 96.763 86.1 192.133 174.3 287.133 263.1-112.3-85.1-230.38-161.1-359.005-218.1-5.585-2.5-11.136-3.6-16.425-3.6-2.176 0-4.305.2-6.37.6-2.74-.7-5.477-1.1-8.168-1.1-27.168 0-50.028 33.6-25.74 59.1l975.738 1002.9c-170.9-124.3-338.8-251.5-501.04-387.4-187.15-156.8-369.592-319.1-553.768-479.3-8.05-7-16.566-10-24.53-10-23.235 0-41.79 25.6-30.438 52.4 68.2 161.1 177.907 298.4 305.697 420.4 100.55 66.4 199.04 135.7 295.94 207.3 34.13 5 68.07 12.9 101.26 23.5-203.58-146.1-410.4-308.7-548.924-514.9 235.234 204.4 471.094 406.6 717.574 596.9 18.63 12.7 36.47 26.3 53.38 40.8l172.9 127.8c122.46 87.9 246.77 178.7 365.94 276-151.9-100.1-301.74-203.4-450.98-308 28.16 39.8 49.95 83.2 63.55 129.6 223.17 155 448.4 306.2 680.82 447.4 90.7 95.7 173.12 198.4 242.84 310.3 7.26 11.7 17.94 16.5 28.6 16.5 24.3 0 48.48-25.1 31.84-51.8-35.57-57.1-74.32-111.9-115.7-164.6 4.1 1.8 8.3 2.5 12.4 2.5 28.54 0 53.45-38.2 26.4-59.3-350.05-272.9-675.03-574.5-988.97-887.7 290.27 236.8 591.85 460.6 889.4 685.6 6.4 4.8 12.7 6.9 18.57 6.9 25.4 0 42.68-38.9 23.85-61.9-111.4-135.9-228.9-269.7-378.5-364.8-97.02-61.8-183.76-132.9-268.65-206.9 36.14 24.6 72.98 48.3 110.73 71.2l92.54 55.4c110.66 81.6 225 158.4 344.33 228.6 5.35 3.2 10.88 4.6 16.27 4.6 28.3 0 52.7-38.2 26.14-59.5-108.77-87.4-227.43-159.3-346.62-230.9-312.94-230.5-596.18-499.6-880.68-766l426.23 277.2c-20.52-48-27.62-101.8-26.82-156.6-99.46-85.8-195.23-176.8-290.9-266.5l-26.57-25.1c105.7 73 214.1 142.2 323.9 209.4l1-7.3c3.57-20.5 8.35-40.3 14.24-59.3l.48-5.2c-217.25-133.4-428.5-275.5-622.85-441.2h0c-8.03-6.8-16.48-9.7-24.4-9.7m702.2 1132.5c-121.8-97.9-241.92-197.8-359.12-300.8 105.48 83 209.64 167.5 309.96 256.8l49.16 44m1253.53-918.6c-10.3 1.2-20.47 2.6-30.52 4.3 17.68 12.5 34.92 25.7 51.7 39.6l-21.18-43.9m-346.84 232.2c-29.97 19.9-59.8 41.6-89.83 64.5 69.33 61 136.28 124.2 198.67 191.5 6.77 7.3 14.94 10.4 23.05 10.4 24.26 0 47.97-27.7 31.92-52.8-48.5-76-104.2-146.5-163.8-213.6m-127.3 93.8c-21.08 17.9-41.37 38.9-61.28 61.7 60.06 53.7 120.96 106.4 183.15 157.6h0c7.54 6.3 15.75 8.9 23.6 8.9 27.78 0 51.24-33 25.9-58.4l-171.37-169.8m-103.8 113.2l-49.5 63.2 25.5 20.6c1.67 2.9 3.92 5.6 6.82 8.1 12.4 10.5 26.02 19.4 39.18 28.9l13.13 10.1c1.6 1.3 3.22 2.5 4.83 3.8h0c.57.5 1.15.9 1.74 1.3 20.56 16 41.04 32.2 62.5 47 5.56 3.9 11.34 5.6 16.97 5.6 27.33 0 50.84-39.5 25.45-60.5-50.17-41.5-98.96-84.2-146.6-128.1m-63.38 80.7c-37.32 46.7-75.68 90.6-117.72 122.4l156.72 94.2c5.94 3.7 11.9 5.3 17.56 5.3 21.97 0 39.44-24 33.45-45.5 2.38.4 4.75.6 7.1.6 28.98 0 53.82-33.5 27.16-58.2-42.03-38.9-83.4-78.6-124.27-118.8m-271.63 193.3c-25.7 10-54.9 14.5-85.34 14.5-15.82 0-31.98-1.2-48.15-3.5 135.6 96.7 267.8 197.8 394.18 306.9h0c7.6 6.5 15.88 9.3 23.8 9.3 27.27 0 50.1-33.2 25.7-58.8-94.88-99.7-201.07-185.8-310.2-268.4" fill="url(#B)"/></g><g clip-path="url(#C)"><path d="M650.71 12941.5c-28.18 0-51.168 36.2-25.914 59.3l449.533 403.9c25.55-10 52-17.6 79.07-22.9l-217.357-194.2c93.107 59.7 184.407 122.1 274.197 186.5 13.84-1.1 27.72-1.6 41.7-1.6 27.66 0 55.56 2.1 83.3 6.1-96.9-71.6-195.4-140.9-295.94-207.3-120.794-79.8-244.53-155.3-372.1-225.4-5.492-3-11.1-4.4-16.5-4.4m-85.356 86.1c-28.468 0-51.906 35.3-26.273 59l45.606 42.8-17.477-12.1c-6.246-4.3-12.438-6.1-18.25-6.1-26.258 0-44.668 37.9-24.164 61.1 110.664 125.3 226.922 244.7 346.894 360.2 22.692-18.6 47.286-34.2 73.286-46.8 31.933-29.6 67.423-53 105.243-70.6l-2.38-2.4c-142.297-141.3-285.79-288.7-466.34-381.1-5.367-2.8-10.84-4-16.145-4m-101.128 328.5c-26.57 0-47.176 32.1-25.145 59 59.1 72.2 119.777 142.8 181.87 212 1.36-25.3 3.863-50.5 7.45-75.6h0c-3.05 91.5 49.282 133.6 126.06 149.4 11.617-31 25.734-59 42.012-84l-307.887-251.3c-8.004-6.7-16.445-9.5-24.36-9.5m-56.332 285c-26.793 0-50.118 34.6-25.954 59.7 94.63 98.4 197.497 187.5 303.618 272.8-20.65-42.2-36.137-86.8-46.887-132.8-70.75-61-139.977-124-207.23-189.5h0c-7.394-7.2-15.62-10.2-23.546-10.2m359.07 49l-7.836 11.7c9.516 1.8 19.39 3.2 29.562 4.3l-14.726-15.7-7-.3m10.32.5l20.528 16.3c10.535.9 21.36 1.5 32.42 1.7a238.05 238.05 0 0 1-15.609-15.3 1147.65 1147.65 0 0 0-37.34-2.7m1033.755 63.4c9.36 33.1 14.55 67.7 14.9 103.4l856 729.2c7.54 6.2 15.74 8.8 23.6 8.8 27.78 0 51.27-33.1 25.9-58.3-131.5-131-269.58-255.2-414.3-371.5-7.28-5.8-15.22-8.3-22.9-8.3-2.93 0-5.83.4-8.64 1l-474.57-404.3m-5.24 234.7c-10.24 32.5-24.57 65.6-43.38 99.1 213.3 9.5 388.6 165.3 428.08 369.4 168.86 138 337.57 276.3 512.8 406.2 5.23 3.9 10.93 5.6 16.6 5.6 24.32 0 48.06-31 31.28-53.4-252.94-337.9-630.7-553.5-945.4-826.9m-1428.448 9.1c-27.102 0-43.215 35.4-23.98 60.2 39.012 50.3 81.13 97.3 125.57 141.8 33.344-32.7 71.688-60.4 113.774-81.8-64.828-39.6-130.37-78.1-196.93-115-6.484-3.6-12.703-5.2-18.433-5.2m1210.748 115.9c-17.08 2.6-34.08 6-50.83 10.5l8.36 7.1c13.8-6.6 27.95-12.5 42.47-17.6m-110.77 31.7c-15.55 7-30.67 15.3-45.23 25-6.12 4.9-11.85 9.8-17.23 14.7l16.4 12.5a429.71 429.71 0 0 1 27.02-12c11.9-9.4 24.3-18.3 37.1-26.5l-18.06-13.7m-1097.908 66.2c-25.742 0-48.313 34.8-26.05 60.7l16.172 18.5c16.477-17 34.238-32.7 53.168-47l-19.84-21c-7.308-7.9-15.527-11.2-23.45-11.2m882.118 105.7c-14.46 4.4-31.08 7.6-50.6 9.4 8.7 17.9 16.28 36.6 22.62 55.7 11.55-20.1 24.57-39.3 38.95-57.4l-10.96-7.7m934.5 176.5a463.06 463.06 0 0 1 2.78 50.8c0 17.3-.96 34.4-2.83 51.2l457.37 390.8c7.5 6.5 15.7 9.3 23.6 9.3 27.5 0 51-33.9 25.9-58.8-159.24-158.6-330.6-304.1-506.82-443.3m-.9 109.1a455.41 455.41 0 0 1-17.31 79.1l17.77 16.4-18.38-14.5c-7.4 23.2-16.6 45.5-27.42 66.9l194 154.6c80.1 64.6 169.04 126.4 241.84 199.2h0c3.8 3.8 7.85 6.4 12 8.1 10.7 8.1 22 15.4 34.24 22.2 6 3.3 11.96 4.8 17.57 4.8 27.55 0 46.88-35.4 24.85-59.8-151.45-167.7-312.76-325-479.16-477m-1038.9 209c-19.82 24.7-42.15 47.4-66.6 67.5 53.42 46 104.52 94.2 157.6 141.1 29.98 26.5 61.08 51.4 92.86 75.5-103.26-56.9-204.88-116.4-305.76-177.3-16.43 17.9-34.26 34.4-53.324 49.5 120.454 72.8 241.974 143.8 366.034 210.4 235.95 126.8 437.43 310.9 672.3 438.2 41.97 26.3 86.56 48.6 135.17 64.5 4.3 1.4 8.3 2 12.03 2 34.33 0 43.17-54.6 6.58-69.5h0c-41.6-17.1-81.98-36.6-121.4-58-112.9-71-205.87-175.4-310-257.4-138.57-109.1-294.5-196.3-427.83-312 334.96 194.5 679.66 376.2 989.4 605.6 6.27 4.7 12.5 6.7 18.36 6.7 25.7 0 43.93-38.7 24.06-61.6-127.7-147.7-303.48-241.7-468.44-341-67.7-40.7-131.53-85.5-193.3-132.7-17.47 2-35.26 3.1-53.28 3.1-154.5 0-291.1-76.6-373.87-193.9l-100.6-60.7m912.92 51.7c-19.93 20.4-41.76 39-65.2 55.5 95.44 69.9 189.57 141.5 281.6 215.8l196.36 165.9c7.36 6.3 15.44 9 23.25 9 28.26 0 52.86-34.8 26.25-58.5h0c-64.18-57-129.74-112.2-196.4-166l-265.87-221.7m-102.74 79.2a465.93 465.93 0 0 1-52.43 25.4c-4.37 3.5-8.8 6.8-13.3 10.1l24.3 18.6-26.9-16.7c-20.9 15.1-43.1 28.5-66.42 39.9 196.12 120.5 390.38 243.9 564.56 395h0c7.78 6.8 16.14 9.6 24.06 9.6 26.8 0 48.5-32.8 25.44-59.1-141.74-161.4-309.32-293.4-479.3-422.8m-988.47 27.8c-37.52 29.1-79.69 52.5-125.227 68.9L1239 15295.9c-141.82-86.4-284.74-170.5-434.264-242-34.344 8.2-70.183 12.6-107.055 12.6-44.086 0-86.707-6.2-127.043-17.9 306.223 308.7 788.902 353.7 1120.612 622.7-313.88-122.9-613.5-279.3-909.76-439.7h0c-5.914-3.2-11.72-4.6-17.187-4.6-31.215 0-51.46 45.8-18.145 65 208.18 120.3 422.072 234.4 620.882 370.2l-103.9-37.9c-106.38-41.3-223.66-87.8-303.142-173-7.172-7.6-15.344-10.9-23.28-10.9-26.204 0-49.82 35.1-26.22 60.4 81.512 87.4 198.502 137.6 307.632 180.6 115.8 45.7 235.53 81.1 350.67 128.4 3.65 1.5 7.24 2.2 10.72 2.2 27.12 0 46.77-41.5 23.34-60.7-37.77-30.8-76.33-60.4-115.6-89.1 111.2 48.4 223.94 93.3 338.68 133.4 4.1 1.4 7.97 2 11.6 2 28.03 0 41.06-38.9 22.46-60.5l-11.12-12.7 54.42 24.8a39.55 39.55 0 0 0 16.1 3.4c28.67 0 50.63-32.5 26.32-58.4l-9.95-10.5 81.8 36.9c6 2.6 11.78 3.8 17.15 3.8 31.7 0 49.26-41 18.18-64.2-340.76-254.5-719.4-456.3-1074.96-689.6m137.04 330.7c-134.066-57-264.898-118.7-380.094-203.6 130.887 59.7 256.43 129.9 380.094 203.6m613 284c-78.27-41.9-155.06-86.5-231.3-132.2 71.76 41.8 144.27 82.2 217.73 120.9l13.57 11.3" fill="url(#D)"/></g><path d="M1210.24 13374.1c-19.13 1.5-38.17 4.1-56.84 7.7l75.7 68c43.56 6.5 87.08 17.8 129.35 33.4l-148.2-109.1m226.27 28l148.9 105.3 161 113.3c-24.8-35-54.47-67.1-87.86-95.8l-53.38-40.8c-51.45-35.1-108.8-63-168.65-82m352 333.2l22.53 18.7-1.1-3.7-21.44-15" fill="#b9a8a8"/><g clip-path="url(#E)"><path d="M1335.25 13378.6c154.5 114.1 304.98 234 453.26 356.7l21.44 15c-13.6-46.4-35.4-89.8-63.55-129.6l-161-113.3-148.9-105.3c-33.2-10.6-67.13-18.5-101.26-23.5m269.9 105.5l53.38 40.8c-16.9-14.5-34.75-28.1-53.38-40.8" fill="url(#F)"/></g><path d="M1074.33 13404.7c-8.13 3.2-16.17 6.7-24.1 10.4l32.4 31.5c11.65-1.3 23.44-2.3 35.28-2.8l-43.56-39.1m600.37 327.4c35.8 59 58.34 124.9 62.5 195.6l54.86 49 13.75 12c14.22-45.1 20.58-89 20.15-131.3l-151.25-125.3m25.66 332.8l3.83 16.5c2.84 2.2 5.66 4.5 8.5 6.8l15.57-.7-27.9-22.6" fill="#b9a8a8"/><g clip-path="url(#G)"><path d="M1251.94 13372.5c-13.98 0-27.86.5-41.7 1.6l148.2 109.1c129.78 47.7 247.46 135.6 316.26 248.9l151.25 125.3c-.36-35.7-5.55-70.3-14.9-103.4l-22.53-18.7c-148.28-122.7-298.77-242.6-453.26-356.7-27.75-4-55.65-6.1-83.3-6.1m-98.54 9.3c-27.06 5.3-53.52 12.9-79.07 22.9l43.56 39.1a510.07 510.07 0 0 1 24.78-.6c28.56 0 57.5 2.2 86.42 6.6l-75.7-68m-103.18 33.3c-37.82 17.6-73.3 41-105.243 70.6 42.668-20.6 89.203-33.4 137.633-39.1l-32.4-31.5m686.97 512.6c2.82 48.1-2.88 98.4-18.72 150.3l-18.46-14.6.35 1.5 27.9 22.6 13.3-.2c7 0 13.94.1 20.86.5 18.8-33.5 33.14-66.6 43.38-99.1l-13.75-12-54.86-49" fill="url(#H)"/></g><path d="M748.496 13717.8c184.758-554.3 1136.254-184.8 969.974 360.2-277.14-221.7-591.22-369.5-951.505-387.9l-18.47 27.7" fill="#c33"/><path d="M905.926 13703.8l2.773 2.2 7.633-.6c-3.453-.6-6.94-1.1-10.406-1.6" fill="#b76e6e"/><g clip-path="url(#I)"><path d="M814.625 13693.3a238.05 238.05 0 0 0 15.609 15.3c4.36.1 8.746.1 13.172.1 21.15 0 43.05-1 65.293-2.7-.922-.7-1.855-1.5-2.773-2.2-30.086-4.4-60.535-8-91.3-10.5" fill="url(#J)"/></g><path d="M1213.6 13590.3c-68.88 0-133.37 13.5-196.7 27.1-63.345 13.5-125.548 27.1-189.892 27.1-7.66 0-15.36-.2-23.086-.6v36.9c3.47 4.3 7.04 8.5 10.703 12.5 30.766 2.5 61.215 6.1 91.3 10.5l10.406 1.6c51.156-4.3 103.868-12.2 153.398-20 73.6-11.7 140.1-23.4 183.78-23.4 4.33 0 8.44.1 12.3.3 210.2 7.5 341.07 137.1 407.53 314.2-39.66-202.2-118.53-318-333.63-369.6-44-12-85.8-16.6-126.1-16.6" fill="#a83333"/><path d="M746.598 14071.8c-54.84 6.3-106.703 22.3-153.883 46.2l58.54 36.3c15.27-1.6 30.762-2.4 46.437-2.4 48.555 0 95.325 7.6 139.227 21.6-28.242-28.2-52.234-55.3-69.953-77-7.063-8.1-13.852-16.3-20.367-24.7m-267.657 128c-5.77 5.6-11.386 11.5-16.85 17.4 7.176-4.3 14.496-8.4 21.918-12.4-1.692-1.6-3.38-3.3-5.067-5m581.15 130.5c33.82 43.9 59.86 94.1 76.02 148.5l47.68 33.2c8.4-38.8 21.7-75.7 39.26-110.1l-68.82-58.8c-6.58.8-13.23 1.2-19.94 1.2-24.2 0-49.14-5.1-74.2-14m93.73 246.2c.76 10.8 1.15 21.7 1.15 32.7 0 8.6-.24 17.2-.7 25.7l21 15.3c-1.2-13.5-1.8-27.2-1.8-41a467.8 467.8 0 0 1 .38-18.8l-20-13.9m-10.45 135.5a453.87 453.87 0 0 1-24.91 76.6l37.8 23.3c14.88-18.5 28.33-38.3 40.2-59-.12-.4-.23-.7-.35-1.1l-52.74-39.8m-68.03 155.1c-12.27 18-25.8 35-40.42 51 19.2-11.6 37.5-24.5 54.73-38.7l-14.3-12.3" fill="#adadad"/><g clip-path="url(#K)"><path d="M592.715 14118c-42.086 21.4-80.43 49.1-113.774 81.8l5.067 5c50.828-26.9 107.32-44.5 167.246-50.5l-58.54-36.3m618.215 208.7c-2 .2-4.03.3-6.1.5-16.2 8.6-33.16 13.7-50.6 15.9l68.82 58.8c3.34-6.6 6.85-13.1 10.5-19.5-6.34-19.1-13.9-37.8-22.62-55.7m-74.82 152.1c9.3 31.3 15.32 64 17.7 97.7l20 13.9c1.08-26.8 4.47-53 9.97-78.4l-47.68-33.2m18.15 156.1c-1.46 26.3-5.15 52.1-10.9 77.1l52.74 39.8c-10.63-32.4-17.74-66.4-20.86-101.6l-21-15.3m-35.8 153.7a453.21 453.21 0 0 1-43.12 78.5l14.3 12.3c24.45-20.1 46.78-42.8 66.6-67.5l-37.8-23.3" fill="url(#c)"/></g><path d="M1712.7 14088.2l-6.92.5 2.37 11.4 109.04 91.5c76.06 34 141.15 88.2 188.43 155.7l148.95 113.9 41.5 32.6c-1.36-12.3-3.22-24.6-5.55-36.6l-61.3-50.1-377.6-300.8-5.4 8.7-33.5-26.8m-167.06 43.1c-17.38 8.2-34.16 17.5-50.24 27.8l12.46 9.5c21.46-5.9 43.6-10.4 66.2-13.2l-28.42-24.1m528.68 363l120.83 108.6.86-7.1-121.7-101.5m13.6 105.8l.1 9.1-.03 4.8 19.35 15.1 69.9 54.8.6-1.9-89.93-81.9m-8.1 95.7a454.31 454.31 0 0 1-49.31 135.6l38.68 32.2c32.25-33.1 59.54-71.2 80.63-112.8l-70-55m-98.35 206.8c-8.84 10.6-18.13 20.7-27.87 30.4l12.85 9.8c12.92-7.3 25.44-15.2 37.54-23.7l-22.52-16.5" fill="#adadad"/><g clip-path="url(#L)"><path d="M1762.42 14087.8l-10.82 18.5 377.6 300.8 61.3 50.1c-39.5-204.1-214.77-359.9-428.08-369.4m-54.28 12.3l1.1 5.7c-39.42 0-80.52 1.6-121.14 7.9-14.52 5.1-28.67 11-42.47 17.6l28.42 24.1a460.69 460.69 0 0 1 56.66-3.5c66.42 0 129.52 14.2 186.47 39.7l-109.04-91.5m-212.75 59c-12.8 8.2-25.2 17.1-37.1 26.5 16.1-6.6 32.6-12.2 49.56-17l-12.46-9.5m510.22 188.2c50.3 71.9 80.46 158.9 82.3 252.8l89.93 81.9a455.41 455.41 0 0 0 17.31-79.1l-120.83-108.6 121.7 101.5c1.87-16.8 2.83-33.9 2.83-51.2a463.06 463.06 0 0 0-2.78-50.8l-41.5-32.6-148.95-113.9m82.35 266.7c-.28 28-3.08 55.3-8.16 81.8l70 55c10.83-21.4 20-43.7 27.42-66.9l-89.26-69.9m-57.47 217.4c-14.1 25.3-30.56 49.2-49.04 71.2l22.52 16.5c23.44-16.5 45.27-35.1 65.2-55.5l-38.68-32.2m-76.9 101.6c-12.5 12.5-25.72 24.3-39.58 35.2a465.93 465.93 0 0 0 52.43-25.4l-12.85-9.8" fill="url(#c)"/></g><path d="M1728.26 14087.5c-5.22.1-10.4.4-15.57.7l33.5 26.8 5.4-8.7-23.34-18.8" fill="#7e7272"/><g clip-path="url(#M)"><path d="M1741.56 14087.3c-4.44 0-8.9.1-13.3.2l23.34 18.8c3.76-6.2 7.37-12.4 10.82-18.5-6.92-.4-13.87-.5-20.86-.5" fill="url(#N)"/></g><g clip-path="url(#O)" transform="translate(-435.89 -126.7)"><path d="M4468.53 13139.4l-42.86-228.5c-8.7-44.1 58.5-62.9 67.5-18.7l42.86 200-68.75 9.3c-1.65-43.2-12.63-85.2-14.3-128.5-1.72-45.2 68.28-45 70 0 1.65 43.2 12.64 85.3 14.3 128.5 1.5 39.2-60.84 48.3-68.75 9.4l-42.86-200 67.5-18.7 42.86 228.6c8.7 44.1-58.76 62.9-67.5 18.6" fill="url(#P)"/></g><g clip-path="url(#Q)" transform="translate(-429.93 -3.8)"><path d="M4438.7 13101.5v-100c0-45.3 67.74-44.8 70 0 .3 6.2-1.78-9.9-.16-1.6.57 2.9 1.32 5.8 2.05 8.6 1.8 7.1 3.98 14.1 6.2 21.1 2.26 7.1 4.8 14.1 7.45 21.1 3.87 10.1-2.64-5.6 1.2 2.7 4.8 10.4 5.8 1-7.2-4.9l-26.97-3.5.58-.1-20.9 16c-2.86 15.2-4.1 19.2-3.7 12.1 1.47-45 71.47-45.2 70 0-.7 21-13.47 40.8-36.67 40.8-19.04 0-30.95-14.3-37.9-30.1-11.06-25.3-22.6-54.3-24-82.2h70v100c0 45.2-70 45.2-70 0" fill="url(#R)"/></g><g clip-path="url(#S)"><path d="M697.69 14151.9c-15.675 0-31.168.8-46.437 2.4-59.926 6-116.418 23.6-167.246 50.5-7.422 4-14.742 8.1-21.918 12.4-13.602 8.2-26.75 17.1-39.38 26.6-18.93 14.3-36.69 30-53.168 47-79.918 82.3-129.13 194.6-129.13 318.4 0 208.5 139.5 384.4 330.234 439.4 40.336 11.7 82.957 17.9 127.043 17.9 36.872 0 72.71-4.4 107.055-12.6 16.356-3.9 32.37-8.7 47.988-14.4 45.536-16.4 87.707-39.8 125.227-68.9l3.055-2.4c19.064-15.1 36.894-31.6 53.324-49.5l.58-.6c14.63-16 28.15-33 40.42-51a453.21 453.21 0 0 0 43.12-78.5 453.87 453.87 0 0 0 24.91-76.6c5.74-25 9.43-50.8 10.9-77.1.47-8.5.7-17.1.7-25.7 0-11-.4-21.9-1.15-32.7-2.4-33.7-8.42-66.4-17.7-97.7-16.16-54.4-42.2-104.6-76.02-148.5-80.32-28.4-161.766-95.3-223.172-156.8-43.902-14-90.672-21.6-139.227-21.6m6.508 544.3c-24.484-35.1-38.844-77.8-38.844-123.9 0-119.9 97.192-217.1 217.1-217.1s217.095 97.2 217.095 217.1-97.2 217.1-217.095 217.1c-39.05 0-75.687-10.3-107.343-28.4-35.153-4.4-63.497-30.7-70.903-64.8" fill="url(#T)"/></g><path d="M1099.54 14572.3c0-119.9-97.2-217.1-217.095-217.1s-217.1 97.2-217.1 217.1 97.192 217.1 217.1 217.1 217.095-97.2 217.095-217.1" fill="#06c"/><path d="M1016.4 14493.8c0-66.4-53.77-120.2-120.095-120.2s-120.094 53.8-120.094 120.2c0 66.3 53.77 120 120.094 120s120.095-53.7 120.095-120"/><path d="M788.203 14441.4c-64.9 13.6-113.61 71.2-113.61 140.1a142.63 142.63 0 0 0 28.472 85.7c5.508-40.6 40.293-71.8 82.383-71.8 45.918 0 83.137 37.2 83.137 83.1 0 14.7-3.8 28.5-10.477 40.4 55.172-16.1 96.536-64.6 102.2-123.5-18.528 11.7-40.477 18.4-64.004 18.4-66.325 0-120.094-53.7-120.094-120 0-18.8 4.31-36.6 11.992-52.4" fill="#abcdee"/><path d="M817.78 14438.3c-10.14 0-20.035 1.1-29.578 3.1-7.683 15.8-11.992 33.6-11.992 52.4 0 66.3 53.77 120 120.094 120 23.527 0 45.476-6.7 64.004-18.4a145.05 145.05 0 0 0 .664-13.9c0-79.1-64.106-143.2-143.192-143.2" fill="#ababab"/><g clip-path="url(#U)"><path d="M704.2 14696.2c7.406 34.1 35.75 60.4 70.903 64.8a218.78 218.78 0 0 1-70.903-64.8" fill="url(#V)"/></g><path d="M703.066 14667.2a84.66 84.66 0 0 0-.757 11.3c0 6.1.652 12 1.9 17.7a218.78 218.78 0 0 0 70.903 64.8c3.4.4 6.843.6 10.347.6 31.24 0 58.453-17.2 72.66-42.7-12.79 3.8-26.324 5.8-40.328 5.8-46.933 0-88.597-22.6-114.715-57.5" fill="#abcdee"/><path d="M785.45 14595.4c-42.1 0-76.875 31.2-82.383 71.8 26.118 34.9 67.782 57.5 114.715 57.5 14.004 0 27.54-2 40.328-5.8 6.676-11.9 10.477-25.7 10.477-40.4 0-45.9-37.22-83.1-83.137-83.1" fill="#e3eff9"/><g clip-path="url(#W)"><path d="M1630.7 14151.9a460.69 460.69 0 0 0-56.66 3.5c-22.6 2.8-44.74 7.3-66.2 13.2-16.95 4.8-33.47 10.4-49.56 17a429.71 429.71 0 0 0-27.02 12c-22.22 10.8-43.46 23.3-63.5 37.5-24.96 29.4-45.58 55.2-80.48 72.2-5.07 5.7-10.02 11.6-14.8 17.7-14.38 18.1-27.4 37.3-38.95 57.4-3.65 6.4-7.16 12.9-10.5 19.5-17.55 34.4-30.86 71.3-39.26 110.1-5.5 25.4-8.9 51.6-9.97 78.4a467.8 467.8 0 0 0-.38 18.8c0 13.8.6 27.5 1.8 41 3.12 35.2 10.23 69.2 20.86 101.6.12.4.23.7.35 1.1 14.25 43.1 34.73 83.3 60.38 119.7 82.78 117.3 219.38 193.9 373.87 193.9 18.02 0 35.8-1.1 53.28-3.1 52.44-6.1 102.2-21 147.68-43.3 23.32-11.4 45.53-24.8 66.42-39.9.87-.6 1.74-1.2 2.6-1.9 4.5-3.3 8.93-6.6 13.3-10.1 13.86-10.9 27.08-22.7 39.58-35.2 9.74-9.7 19.03-19.8 27.87-30.4 18.48-22 34.94-45.9 49.04-71.2a454.31 454.31 0 0 0 49.31-135.6c5.08-26.5 7.88-53.8 8.16-81.8l.03-4.8-.1-9.1c-1.83-93.9-32-180.9-82.3-252.8-47.28-67.5-112.37-121.7-188.43-155.7-56.95-25.5-120.05-39.7-186.47-39.7m6.52 544.3c-24.5-35.1-38.85-77.8-38.85-123.9 0-119.9 97.2-217.1 217.1-217.1s217.1 97.2 217.1 217.1-97.2 217.1-217.1 217.1c-39.05 0-75.7-10.3-107.35-28.4-35.15-4.4-63.5-30.7-70.9-64.8" fill="url(#X)"/></g><path d="M2032.56 14572.3c0-119.9-97.2-217.1-217.1-217.1s-217.1 97.2-217.1 217.1 97.2 217.1 217.1 217.1 217.1-97.2 217.1-217.1" fill="#06c"/><path d="M1949.42 14493.8c0-66.4-53.77-120.2-120.1-120.2-66.33 0-120.1 53.8-120.1 120.2 0 66.3 53.76 120 120.1 120 66.32 0 120.1-53.7 120.1-120"/><path d="M1721.23 14441.4c-64.9 13.6-113.6 71.2-113.6 140.1 0 32.1 10.6 61.8 28.47 85.7 5.5-40.6 40.3-71.8 82.38-71.8 45.92 0 83.14 37.2 83.14 83.1 0 14.7-3.8 28.5-10.47 40.4 55.17-16.1 96.52-64.6 102.2-123.5-18.53 11.7-40.48 18.4-64 18.4-66.33 0-120.1-53.7-120.1-120 0-18.8 4.3-36.6 12-52.4" fill="#abcdee"/><path d="M1750.8 14438.3c-10.14 0-20.03 1.1-29.57 3.1-7.7 15.8-12 33.6-12 52.4 0 66.3 53.76 120 120.1 120 23.52 0 45.47-6.7 64-18.4a145.38 145.38 0 0 0 .66-13.9c0-79.1-64.1-143.2-143.2-143.2" fill="#ababab"/><g clip-path="url(#Y)"><path d="M1637.23 14696.2c7.4 34.1 35.74 60.4 70.9 64.8-28.18-16.1-52.42-38.3-70.9-64.8" fill="url(#Z)"/></g><path d="M1636.1 14667.2a84.66 84.66 0 0 0-.76 11.3 83.04 83.04 0 0 0 1.9 17.7c18.47 26.5 42.7 48.7 70.9 64.8 3.4.4 6.85.6 10.35.6 31.24 0 58.46-17.2 72.67-42.7-12.8 3.8-26.33 5.8-40.34 5.8-46.93 0-88.6-22.6-114.7-57.5" fill="#abcdee"/><path d="M1718.47 14595.4c-42.1 0-76.87 31.2-82.38 71.8 26.12 34.9 67.78 57.5 114.7 57.5 14 0 27.54-2 40.34-5.8 6.67-11.9 10.47-25.7 10.47-40.4 0-45.9-37.22-83.1-83.14-83.1" fill="#e3eff9"/><path d="M1219.63 14318.2c-147.8 101.6-369.517-120.1-452.665-221.7-129.324-147.8-166.277-351-138.563-545-6.558 196.8 243.106 165.3 441.328 133.9 80.9-12.9 153.24-25.7 196.1-23.1 258.66 9.3 397.22 203.3 443.42 443.5-92.4 0-194 9.2-277.14 64.6-92.38 73.9-92.38 147.8-230.95 157.1l18.48-9.3" fill="red"/><path d="M711.543 13745.5c-30.64 176.1 205.43 530.1 418.647 530.1 43.93 0 86.93-15 126.4-49.7l-36.95-27.8c-240.185-27.7-341.806-341.8-508.087-452.6" fill="#ffb5b5"/><path d="M2531.03 12183.7h-8.06l84.54 106.1a1051.11 1051.11 0 0 1 79.17 10.5c-24.82-37.4-49.12-75-72.45-113.2-27.67-2.3-55.43-3.4-83.2-3.4m-130.35 8.3c-7.9 1-15.84 2.1-23.72 3.4l93.64 90.7 10.75-.4-80.67-93.7m335.67 12.5c27.4 43.2 55.44 86.1 84.38 128.4.13.1.25.3.38.5 51.78 16.7 102.1 37.6 150.26 62.8-28.6-48.1-55.68-97.3-81.93-147.1-49.65-19-100.9-33.9-153.1-44.6m-439.86 6.5l-6.15 1.5c26.07 28.1 52.7 55.6 79.5 82.7l11.45-1.5-84.8-82.7m-82.65 23.6c-5 1.6-10 3.3-15 5.1-7.2 2.7-14.37 5.6-21.5 8.5 25.5 23.7 51.52 47 77.84 70l30-7.4c-24.27-25-48.13-50.4-71.33-76.2m817.86 82.9c25.88 45.5 50.8 91.4 73.95 138 20.28-2.3 41.02-3.6 62.33-3.9l-35.9-65.1c-31.93-25.4-65.5-48.3-100.37-69m-1009.07 12.3l-14.85 10.4 49.45 58c7.97-4.5 16.05-8.9 24.2-13.1l-58.8-55.3m-69.1 54.3c-6.3 5.8-12.43 11.6-18.43 17.6l49.3 43.2 12.98-9.3-43.86-51.5m-76.6 86.9c-20.33 29.3-37.45 61.1-50.78 95.5l24.07 17.3c18.05-27.7 38.9-53.2 62.05-76.8l-35.34-36m-73.5 174.5l-1.83 9.9a819.63 819.63 0 0 0-4.46 37.1c.3.2.66.4.97.6 4.37-13.5 9.3-26.7 14.77-39.5l-9.45-8.1" fill="#b09c9c"/><g clip-path="url(#a)"><path d="M2522.97 12183.7c-40.87.3-81.73 3.1-122.3 8.3l80.67 93.7c10.17-.3 20.32-.4 30.5-.4a1018.04 1018.04 0 0 1 95.67 4.5l-84.54-106.1m91.26 3.4c23.33 38.2 47.63 75.8 72.45 113.2 45.55 7.9 90.5 19 134.43 33.1-.13-.2-.25-.4-.38-.5-28.94-42.3-57-85.2-84.38-128.4-40.26-8.3-81.08-14.1-122.12-17.4m-237.27 8.3c-27.02 4.1-53.86 9.3-80.47 15.6l84.8 82.7c29.65-3.9 59.47-6.4 89.32-7.6l-93.64-90.7m-86.62 17.1c-25.76 6.3-51.3 13.7-76.5 22.1 23.2 25.8 47.06 51.2 71.33 76.2 27.97-6.4 56.26-11.6 84.66-15.6-26.8-27.1-53.42-54.6-79.5-82.7m-113 35.7c-54.95 22.3-107.32 49.3-154.7 81.6l58.8 55.3c31.54-16.4 64.46-30.9 98.22-43.8 24.87-8.7 50.05-16.4 75.52-23.1l-77.84-70m712.1.9c26.25 49.8 53.33 99 81.93 147.1 35.9 18.9 70.58 40 103.76 63.6 10.05-1.7 20.23-3.1 30.52-4.3-23.15-46.6-48.07-92.5-73.95-138-45.4-26.8-93.03-49.6-142.26-68.4m-881.66 91.1a621.69 621.69 0 0 0-54.25 43.9l43.86 51.5c19.16-13.3 39.15-25.8 59.84-37.4l-49.45-58m1124.3 46.3l35.9 65.1 8.74-.1c9.56 0 19.26.3 29.05.7-23.4-23.4-48.03-45.3-73.7-65.7m-1196.97 15.2c-21.43 21.4-40.95 44.5-58.16 69.3l35.34 36c22.08-22.5 46.27-43.1 72.13-62.1l-49.3-43.2m-108.94 164.8c-9.65 24.9-17.3 51.2-22.72 79l9.45 8.1c10.54-24.6 23.06-47.9 37.34-69.8l-24.07-17.3m-29 126l-.48 5.2 1.45-4.6c-.3-.2-.66-.4-.97-.6" fill="url(#b)"/></g><path d="M2244.32 13135.8c-83.14 83.1-267.9 46.2-360.28-27.7-110.85-83.2-120.1-221.7-101.6-351.1 36.95-212.4 203.23-341.8 397.23-415.7 341.8-120.1 748.26-46.2 1006.93 212.5-212.48-9.2-369.52 83.1-535.8 212.5-138.56 101.6-240.18 351-406.46 378.7v-9.2" fill="red"/><path d="M2766.3 12556.4c-101.06 0-257.8 90.5-415.4 181.1-157.6 90.6-316.02 181.1-420.43 181.1-66.57 0-111.17-36.8-119.6-133.9-32.35 121.3 48.03 278 186.76 278 3.13 0 6.3-.1 9.5-.2 25.6 6.8 49.75 9.9 72.58 9.9 157.1 0 252.47-147.5 340.86-260 92.38-101.6 258.66-221.7 388-249.4-12.64-4.5-26.8-6.6-42.24-6.6m-706.03 496.2h0" fill="#ff7a7a"/><path d="M2504.66 12301.8c-185.14 0-366.93 47.8-472.1 131.9l-18.48 18.5c143.12-40.3 331.75-74 517.6-74 198.02 0 392.86 38.3 526.3 147.9-105.65-156-331.87-224.3-553.3-224.3" fill="#cd2025"/><path d="M1811.53 11865.2c.27-256.7 10.5-514.1 44.56-768.7 5.9-44.1 75.98-44.7 70 0-34.07 254.6-44.3 512-44.56 768.7-.05 45.1-70.05 45.1-70 0" fill="red"/><path d="M1278.73 10916.8c-37.3 0-50.52 59-9.7 68.6l159.05 37c77.33-10.9 155.42-15.8 233.55-20.6-125.14-25.7-249.6-54.7-374-83.9-3.1-.8-6.08-1.1-8.92-1.1" fill="#ff3030"/><path d="M1661.64 11001.8c-78.13 4.8-156.22 9.7-233.55 20.6l202.32 44.3c73.08-5.3 145.92-12.5 217.96-26.3 2.6-.5 5.1-.7 7.5-.7 1.87 0 3.7.1 5.44.4.34-.1.72-.3 1.06-.5-67.17-11.3-134.04-24.1-200.73-37.8" fill="#f32120"/><path d="M1887.83 11053.1l-4.13.5a41.1 41.1 0 0 1 5.73 10.1l2.37-.3c-.67-3.7-1.98-7.2-3.97-10.3" fill="#ee1b19"/><path d="M1862.37 11039.6c-.34.2-.72.4-1.06.5 9.4 1.5 17.05 6.6 22.4 13.5 1.38-.2 2.74-.3 4.13-.5-4.02-6.2-10.82-11-20.85-12.7-1.54-.2-3.08-.5-4.6-.8" fill="#e71411"/><path d="M1891.8 11063.4l-2.37.3c1.34 3.3 2.22 6.9 2.6 10.4.46-3.6.4-7.3-.24-10.7" fill="red"/><path d="M1651.74 11071.1c-112.37 7-224.43 15.9-333.9 43.5-3.3.9-6.45 1.3-9.44 1.3-13.95 0-24.45-8.4-29.92-19.4-36.77 5.6-73.38 12.7-109.7 21.9-40.45 10.2-27.62 68.7 9.18 68.7 3 0 6.15-.3 9.44-1.2 146.73-37 298.13-40.4 448.68-50.8l108.62-45.7-92.95-18.3" fill="#ff3030"/><path d="M1630.4 11066.7c-117.54 8.4-235.66 11.9-351.93 29.8 5.47 11 15.97 19.4 29.92 19.4 3 0 6.15-.4 9.44-1.3 109.47-27.6 221.53-36.5 333.9-43.5l-21.33-4.4" fill="#f32120"/><path d="M1744.7 11089.4l-108.62 45.7 47.7-3.6 86.27-37.4-25.35-4.7" fill="#ee1b19"/><path d="M1892.04 11074.1c-2 15.8-14 31.7-32.2 34.1a22.31 22.31 0 0 1 .09 1.1l7.04-1.4c19.44-3.7 26.73-18.8 25.06-33.8" fill="red"/><path d="M1814.22 11060.3c-54.08 4.4-108.3 7.4-162.48 10.8l92.95 18.3 69.53-29.1" fill="#ff0909"/><path d="M1855.87 11039.7c-2.4 0-4.9.2-7.5.7-72.04 13.8-144.88 21-217.96 26.3l21.33 4.4 162.48-10.8 47.1-20.2c-1.75-.3-3.57-.4-5.44-.4" fill="#fd0606"/><path d="M1883.7 11053.6c-23.1 2.6-46.3 4.8-69.48 6.7l-69.53 29.1 25.35 4.7 36.54-16.7c5.4-2.5 10.72-3.7 15.78-3.7 15 0 27.73 9.9 33.82 22.2 2.84-19.1 17.84-29.9 33.25-32.2a41.1 41.1 0 0 0-5.73-10.1" fill="#fc0605"/><path d="M1861.3 11040.1l-47.1 20.2 69.48-6.7c-5.34-6.9-13-12-22.4-13.5" fill="#fa0403"/><path d="M1889.43 11063.7c-15.4 2.3-30.4 13.1-33.25 32.2 1.95 3.9 3.22 8.1 3.67 12.3 18.2-2.4 30.2-18.3 32.2-34.1-.4-3.5-1.27-7.1-2.6-10.4" fill="red"/><path d="M1853.12 11119.2c-149.3 63.2-301.66 121.2-439.8 206 139.75-68.7 287.74-121.7 428.6-187.4 3.9-1.8 7.1-4 9.65-6.4l1.55-12.2m-475.16 145.5c-55.58 27.4-109.85 57.1-161.84 91.2-31.4 20.6-12.1 66.3 17.2 66.3 5.76 0 11.9-1.8 18.14-5.9 36.14-23.6 73.38-45.2 111.4-65.4-28.78-.9-47.35-45.9-16.27-66.3 10.37-6.8 20.85-13.4 31.4-19.9" fill="#ff3030"/><path d="M1854.27 11110.3c-56.43 10.2-113.37 16.5-170.5 21.2-102.4 43.3-206.2 84.3-305.8 133.2l-31.4 19.9c-31.08 20.4-12.5 65.4 16.27 66.3l50.48-25.7c138.14-84.8 290.5-142.8 439.8-206l1.15-8.9" fill="#ee1b19"/><path d="M1859.94 11109.3l-5.67 1-1.15 8.9-1.55 12.2c6.48-6.3 8.94-14.2 8.37-22.1" fill="red"/><path d="M1770.04 11094.1l-86.27 37.4c57.13-4.7 114.07-11 170.5-21.2l.23-1.8c-1.98 0-4.03-.2-6.13-.6l-78.33-13.8" fill="#fc0605"/><path d="M1859.85 11108.2c-1.55.2-3.15.3-4.8.3h-.56l-.23 1.8 5.67-1-.1-1.1" fill="red"/><path d="M1822.36 11073.7c-5.06 0-10.38 1.2-15.78 3.7l-36.54 16.7 78.33 13.8c2.1.4 4.15.6 6.13.6l1.6-12 .1-.6c-6.1-12.3-18.82-22.2-33.82-22.2" fill="#fe0101"/><g fill="red"><path d="M1856.18 11095.9l-.1.6-1.6 12h.56c1.64 0 3.24-.1 4.8-.3-.45-4.2-1.72-8.4-3.67-12.3m338.93 684.8c79.06-184.6 254.97-312.8 423.85-409.6 179.3-102.9 377.22-179.7 577.45-230.4 43.8-11.1 62.35 56.4 18.6 67.5-186.46 47.2-367.66 117.8-536.56 209.8-168.48 91.7-344.93 215.9-422.9 398-17.73 41.4-78 5.7-60.44-35.3"/><path d="M2535.68 11419.5c3.93-120.8 110.08-209.9 200.4-275.2 103.54-74.8 225.46-136.7 348.9-170.7 43.6-12 62.07 55.5 18.6 67.5-106.55 29.4-207.36 81.5-299.74 141.5-77.78 50.4-194.82 133.4-198.2 236.9-1.46 45.1-71.46 45.2-70 0"/><path d="M2591.13 11363.5c206.3 33.6 417.08 43.1 625.72 32.2 45.13-2.4 44.9 67.6 0 70-215.1 11.2-431.7-.1-644.34-34.7-44.46-7.2-25.53-74.7 18.62-67.5"/></g></g></svg>